<svg width="179" height="34" viewBox="0 0 179 34" fill="none" xmlns="http://www.w3.org/2000/svg">
<path d="M48.8852 7.81665C48.2056 7.81665 47.6552 8.37284 47.6552 9.05947V11.3433C46.9683 10.1669 46.0014 9.2342 44.7471 8.54019C43.4927 7.84618 42.0021 7.49918 40.2704 7.49918C38.2708 7.49918 36.4587 8.02584 34.8342 9.08162C33.2072 10.1374 31.9236 11.6436 30.9835 13.605C30.0458 15.564 29.5757 17.8552 29.5757 20.4762C29.5757 23.0997 30.0458 25.4007 30.9835 27.372C31.9236 29.3482 33.2072 30.8618 34.8342 31.9176C36.4587 32.9733 38.2708 33.5 40.2704 33.5C41.9729 33.5 43.4562 33.153 44.7252 32.459C45.9941 31.7674 46.9683 30.8322 47.6552 29.6559V31.9397C47.6552 32.6263 48.2056 33.1825 48.8852 33.1825H56.4258V7.81665H48.8852ZM46.3351 24.3671C45.4558 25.2998 44.372 25.7674 43.0909 25.7674C41.7781 25.7674 40.6894 25.2924 39.8247 24.3425C38.9601 23.395 38.5265 22.1054 38.5265 20.4762C38.5265 18.8199 38.9601 17.5303 39.8247 16.6099C40.6918 15.692 41.7805 15.2317 43.0909 15.2317C44.3744 15.2317 45.4558 15.6993 46.3351 16.6321C47.2143 17.5673 47.6552 18.8495 47.6552 20.4762C47.6552 22.1374 47.2143 23.4319 46.3351 24.3671Z" fill="#FF9A25"/>
<path d="M72.145 25.6345C71.3997 25.6345 70.8687 25.482 70.5545 25.1817C70.2428 24.8815 70.0869 24.3843 70.0869 23.6879V15.1874H74.6512V7.81665H70.0869V0.5H62.5C61.8204 0.5 61.27 1.05619 61.27 1.74282V7.81665H59.4116C58.7321 7.81665 58.1816 8.37285 58.1816 9.05947V13.9422C58.1816 14.6288 58.7321 15.185 59.4116 15.185H61.27V23.55C61.27 29.9709 64.4752 33.1825 70.8931 33.1825H74.6975V25.6321H72.145V25.6345Z" fill="#FF9A25"/>
<path d="M90.4121 25.6345C89.6668 25.6345 89.1358 25.482 88.824 25.1817C88.5123 24.8815 88.354 24.3843 88.354 23.6879V15.1874H92.9183V7.81665H88.354V0.5H80.7671C80.0875 0.5 79.5371 1.05619 79.5371 1.74282V7.81665H77.6811C77.0016 7.81665 76.4512 8.37285 76.4512 9.05947V13.9422C76.4512 14.6288 77.0016 15.185 77.6811 15.185H79.5371V23.55C79.5371 29.9709 82.7448 33.1825 89.1602 33.1825H92.9646V25.6321H90.4121V25.6345Z" fill="#FF9A25"/>
<path d="M113.343 7.81665C112.664 7.81665 112.113 8.37284 112.113 9.05947V11.3433C111.426 10.1669 110.459 9.2342 109.205 8.54019C107.951 7.84618 106.46 7.49918 104.728 7.49918C102.729 7.49918 100.917 8.02584 99.2897 9.08162C97.6652 10.1374 96.3816 11.6436 95.4415 13.605C94.5038 15.564 94.0337 17.8552 94.0337 20.4762C94.0337 23.0997 94.5038 25.4007 95.4415 27.372C96.3816 29.3482 97.6652 30.8618 99.2897 31.9176C100.917 32.9733 102.729 33.5 104.728 33.5C106.431 33.5 107.912 33.153 109.183 32.459C110.45 31.7674 111.426 30.8322 112.113 29.6559V31.9397C112.113 32.6263 112.664 33.1825 113.343 33.1825H120.884V7.81665H113.343ZM110.793 24.3671C109.911 25.2998 108.83 25.7674 107.549 25.7674C106.236 25.7674 105.145 25.2924 104.283 24.3425C103.418 23.395 102.985 22.1054 102.985 20.4762C102.985 18.8199 103.418 17.5303 104.283 16.6099C105.147 15.692 106.239 15.2317 107.549 15.2317C108.832 15.2317 109.911 15.6993 110.793 16.6321C111.672 17.5673 112.113 18.8495 112.113 20.4762C112.113 22.1374 111.672 23.4319 110.793 24.3671Z" fill="#FF9A25"/>
<path d="M134.991 8.85769C133.588 9.70183 132.397 10.8487 131.411 12.2933V7.81668H123.87C123.191 7.81668 122.64 8.37287 122.64 9.0595V31.9397C122.64 32.6264 123.191 33.1826 123.87 33.1826H131.411V22.1079C131.411 20.2375 131.874 18.9258 132.797 18.1727C133.722 17.4221 135.14 17.0431 137.049 17.0431H139.512V7.59272C137.899 7.59026 136.394 8.01356 134.991 8.85769Z" fill="#FF9A25"/>
<path d="M142.498 7.81665C141.818 7.81665 141.268 8.37284 141.268 9.05947V31.9397C141.268 32.6263 141.818 33.1825 142.498 33.1825H150.036V7.81665H142.498Z" fill="#FF9A25"/>
<path d="M168.858 32.7691L164.633 26.8084L161.052 33.185H153.234C152.455 33.185 151.984 32.3138 152.406 31.6518L159.8 20.0258L152.201 9.39417C151.731 8.73708 152.196 7.81665 153 7.81665H160.921L165.441 14.1932L168.783 8.31624C168.958 8.00615 169.285 7.81665 169.638 7.81665H178.688L170.142 20.7494L179.003 33.185H169.662C169.343 33.185 169.043 33.0299 168.858 32.7691Z" fill="#FF9A25"/>
<path d="M17.5216 0.5L17.5192 0.504922C17.3998 0.5 17.2829 0.5 17.1611 0.5H17.5216Z" fill="#FF9A25"/>
<path d="M171.372 0.5V0.942986H172.499V4.66161H173.038V0.942986H174.16V0.5H171.372Z" fill="#FF9A25"/>
<path d="M178.427 0.529541L176.915 3.94546L175.402 0.529541H174.823V4.66162H175.359V1.57548L176.723 4.66408H177.102L178.462 1.58532V4.66408H178.997V0.529541H178.427Z" fill="#FF9A25"/>
<path d="M27.8244 24.2268C27.8244 27.089 26.8867 29.2966 25.0137 30.8519C23.1383 32.4073 20.4518 33.1825 16.9494 33.1825H0V1.49918C0 0.947908 0.44328 0.5 0.988856 0.5H9.30402L5.96236 15.6993C5.82597 16.3146 6.2863 16.9028 6.90981 16.9126L11.8103 17.0062L9.00931 28.6591L19.4264 10.7625H13.4567L16.9494 0.504922C20.0207 0.568909 22.4587 1.28999 24.2562 2.66817C26.1462 4.11526 27.0888 6.22436 27.0888 8.99303C27.0888 10.9028 26.5944 12.5098 25.6055 13.8167C24.6142 15.1259 23.299 15.9947 21.655 16.4278C23.6035 16.8905 25.1208 17.8355 26.2023 19.2654C27.2812 20.6977 27.8244 22.3515 27.8244 24.2268Z" fill="#FF9A25"/>
</svg>
