<svg width="284" height="239" viewBox="0 0 284 239" fill="none" xmlns="http://www.w3.org/2000/svg">
<path d="M22.464 130.356C22.464 131.516 22.064 132.483 21.264 133.256C20.4773 134.016 19.2707 134.396 17.644 134.396H14.964V140.216H13.144V126.276H17.644C19.2173 126.276 20.4107 126.656 21.224 127.416C22.0507 128.176 22.464 129.156 22.464 130.356ZM17.644 132.896C18.6573 132.896 19.404 132.676 19.884 132.236C20.364 131.796 20.604 131.17 20.604 130.356C20.604 128.636 19.6173 127.776 17.644 127.776H14.964V132.896H17.644ZM34.726 134.316C34.726 134.663 34.706 135.03 34.666 135.416H25.906C25.9727 136.496 26.3394 137.343 27.006 137.956C27.686 138.556 28.506 138.856 29.466 138.856C30.2527 138.856 30.906 138.676 31.426 138.316C31.9594 137.943 32.3327 137.45 32.546 136.836H34.506C34.2127 137.89 33.626 138.75 32.746 139.416C31.866 140.07 30.7727 140.396 29.466 140.396C28.426 140.396 27.4927 140.163 26.666 139.696C25.8527 139.23 25.2127 138.57 24.746 137.716C24.2794 136.85 24.046 135.85 24.046 134.716C24.046 133.583 24.2727 132.59 24.726 131.736C25.1794 130.883 25.8127 130.23 26.626 129.776C27.4527 129.31 28.3994 129.076 29.466 129.076C30.506 129.076 31.426 129.303 32.226 129.756C33.026 130.21 33.6394 130.836 34.066 131.636C34.506 132.423 34.726 133.316 34.726 134.316ZM32.846 133.936C32.846 133.243 32.6927 132.65 32.386 132.156C32.0794 131.65 31.6594 131.27 31.126 131.016C30.606 130.75 30.026 130.616 29.386 130.616C28.466 130.616 27.6794 130.91 27.026 131.496C26.386 132.083 26.0194 132.896 25.926 133.936H32.846ZM47.1284 134.316C47.1284 134.663 47.1084 135.03 47.0684 135.416H38.3084C38.375 136.496 38.7417 137.343 39.4084 137.956C40.0884 138.556 40.9084 138.856 41.8684 138.856C42.655 138.856 43.3084 138.676 43.8284 138.316C44.3617 137.943 44.735 137.45 44.9484 136.836H46.9084C46.615 137.89 46.0284 138.75 45.1484 139.416C44.2684 140.07 43.175 140.396 41.8684 140.396C40.8284 140.396 39.895 140.163 39.0684 139.696C38.255 139.23 37.615 138.57 37.1484 137.716C36.6817 136.85 36.4484 135.85 36.4484 134.716C36.4484 133.583 36.675 132.59 37.1284 131.736C37.5817 130.883 38.215 130.23 39.0284 129.776C39.855 129.31 40.8017 129.076 41.8684 129.076C42.9084 129.076 43.8284 129.303 44.6284 129.756C45.4284 130.21 46.0417 130.836 46.4684 131.636C46.9084 132.423 47.1284 133.316 47.1284 134.316ZM45.2484 133.936C45.2484 133.243 45.095 132.65 44.7884 132.156C44.4817 131.65 44.0617 131.27 43.5284 131.016C43.0084 130.75 42.4284 130.616 41.7884 130.616C40.8684 130.616 40.0817 130.91 39.4284 131.496C38.7884 132.083 38.4217 132.896 38.3284 133.936H45.2484ZM51.3507 125.416V140.216H49.5307V125.416H51.3507ZM64.5646 140.396C63.538 140.396 62.6046 140.163 61.7646 139.696C60.938 139.23 60.2846 138.57 59.8046 137.716C59.338 136.85 59.1046 135.85 59.1046 134.716C59.1046 133.596 59.3446 132.61 59.8246 131.756C60.318 130.89 60.9846 130.23 61.8246 129.776C62.6646 129.31 63.6046 129.076 64.6446 129.076C65.6846 129.076 66.6246 129.31 67.4646 129.776C68.3046 130.23 68.9646 130.883 69.4446 131.736C69.938 132.59 70.1846 133.583 70.1846 134.716C70.1846 135.85 69.9313 136.85 69.4246 137.716C68.9313 138.57 68.258 139.23 67.4046 139.696C66.5513 140.163 65.6046 140.396 64.5646 140.396ZM64.5646 138.796C65.218 138.796 65.8313 138.643 66.4046 138.336C66.978 138.03 67.438 137.57 67.7846 136.956C68.1446 136.343 68.3246 135.596 68.3246 134.716C68.3246 133.836 68.1513 133.09 67.8046 132.476C67.458 131.863 67.0046 131.41 66.4446 131.116C65.8846 130.81 65.278 130.656 64.6246 130.656C63.958 130.656 63.3446 130.81 62.7846 131.116C62.238 131.41 61.798 131.863 61.4646 132.476C61.1313 133.09 60.9646 133.836 60.9646 134.716C60.9646 135.61 61.1246 136.363 61.4446 136.976C61.778 137.59 62.218 138.05 62.7646 138.356C63.3113 138.65 63.9113 138.796 64.5646 138.796ZM77.0376 130.756H74.7376V140.216H72.9176V130.756H71.4976V129.256H72.9176V128.476C72.9176 127.25 73.2309 126.356 73.8576 125.796C74.4976 125.223 75.5176 124.936 76.9176 124.936V126.456C76.1176 126.456 75.5509 126.616 75.2176 126.936C74.8976 127.243 74.7376 127.756 74.7376 128.476V129.256H77.0376V130.756ZM83.6196 130.756H81.3196V140.216H79.4996V130.756H78.0796V129.256H79.4996V128.476C79.4996 127.25 79.813 126.356 80.4396 125.796C81.0796 125.223 82.0996 124.936 83.4996 124.936V126.456C82.6996 126.456 82.133 126.616 81.7996 126.936C81.4796 127.243 81.3196 127.756 81.3196 128.476V129.256H83.6196V130.756ZM93.2937 130.756V137.216C93.2937 137.75 93.407 138.13 93.6337 138.356C93.8604 138.57 94.2537 138.676 94.8137 138.676H96.1537V140.216H94.5137C93.5004 140.216 92.7404 139.983 92.2337 139.516C91.727 139.05 91.4737 138.283 91.4737 137.216V130.756H90.0537V129.256H91.4737V126.496H93.2937V129.256H96.1537V130.756H93.2937ZM103.799 129.056C104.626 129.056 105.372 129.236 106.039 129.596C106.706 129.943 107.226 130.47 107.599 131.176C107.986 131.883 108.179 132.743 108.179 133.756V140.216H106.379V134.016C106.379 132.923 106.106 132.09 105.559 131.516C105.012 130.93 104.266 130.636 103.319 130.636C102.359 130.636 101.592 130.936 101.019 131.536C100.459 132.136 100.179 133.01 100.179 134.156V140.216H98.3588V125.416H100.179V130.816C100.539 130.256 101.032 129.823 101.659 129.516C102.299 129.21 103.012 129.056 103.799 129.056ZM121.152 134.316C121.152 134.663 121.132 135.03 121.092 135.416H112.332C112.398 136.496 112.765 137.343 113.432 137.956C114.112 138.556 114.932 138.856 115.892 138.856C116.678 138.856 117.332 138.676 117.852 138.316C118.385 137.943 118.758 137.45 118.972 136.836H120.932C120.638 137.89 120.052 138.75 119.172 139.416C118.292 140.07 117.198 140.396 115.892 140.396C114.852 140.396 113.918 140.163 113.092 139.696C112.278 139.23 111.638 138.57 111.172 137.716C110.705 136.85 110.472 135.85 110.472 134.716C110.472 133.583 110.698 132.59 111.152 131.736C111.605 130.883 112.238 130.23 113.052 129.776C113.878 129.31 114.825 129.076 115.892 129.076C116.932 129.076 117.852 129.303 118.652 129.756C119.452 130.21 120.065 130.836 120.492 131.636C120.932 132.423 121.152 133.316 121.152 134.316ZM119.272 133.936C119.272 133.243 119.118 132.65 118.812 132.156C118.505 131.65 118.085 131.27 117.552 131.016C117.032 130.75 116.452 130.616 115.812 130.616C114.892 130.616 114.105 130.91 113.452 131.496C112.812 132.083 112.445 132.896 112.352 133.936H119.272ZM130.706 131.276C131.066 130.65 131.6 130.13 132.306 129.716C133.026 129.29 133.86 129.076 134.806 129.076C135.78 129.076 136.66 129.31 137.446 129.776C138.246 130.243 138.873 130.903 139.326 131.756C139.78 132.596 140.006 133.576 140.006 134.696C140.006 135.803 139.78 136.79 139.326 137.656C138.873 138.523 138.246 139.196 137.446 139.676C136.66 140.156 135.78 140.396 134.806 140.396C133.873 140.396 133.046 140.19 132.326 139.776C131.62 139.35 131.08 138.823 130.706 138.196V145.416H128.886V129.256H130.706V131.276ZM138.146 134.696C138.146 133.87 137.98 133.15 137.646 132.536C137.313 131.923 136.86 131.456 136.286 131.136C135.726 130.816 135.106 130.656 134.426 130.656C133.76 130.656 133.14 130.823 132.566 131.156C132.006 131.476 131.553 131.95 131.206 132.576C130.873 133.19 130.706 133.903 130.706 134.716C130.706 135.543 130.873 136.27 131.206 136.896C131.553 137.51 132.006 137.983 132.566 138.316C133.14 138.636 133.76 138.796 134.426 138.796C135.106 138.796 135.726 138.636 136.286 138.316C136.86 137.983 137.313 137.51 137.646 136.896C137.98 136.27 138.146 135.536 138.146 134.696ZM144.222 131.036C144.542 130.41 144.995 129.923 145.582 129.576C146.182 129.23 146.908 129.056 147.762 129.056V130.936H147.282C145.242 130.936 144.222 132.043 144.222 134.256V140.216H142.402V129.256H144.222V131.036ZM154.643 140.396C153.616 140.396 152.683 140.163 151.843 139.696C151.016 139.23 150.363 138.57 149.883 137.716C149.416 136.85 149.183 135.85 149.183 134.716C149.183 133.596 149.423 132.61 149.903 131.756C150.396 130.89 151.063 130.23 151.903 129.776C152.743 129.31 153.683 129.076 154.723 129.076C155.763 129.076 156.703 129.31 157.543 129.776C158.383 130.23 159.043 130.883 159.523 131.736C160.016 132.59 160.263 133.583 160.263 134.716C160.263 135.85 160.009 136.85 159.503 137.716C159.009 138.57 158.336 139.23 157.483 139.696C156.629 140.163 155.683 140.396 154.643 140.396ZM154.643 138.796C155.296 138.796 155.909 138.643 156.483 138.336C157.056 138.03 157.516 137.57 157.863 136.956C158.223 136.343 158.403 135.596 158.403 134.716C158.403 133.836 158.229 133.09 157.883 132.476C157.536 131.863 157.083 131.41 156.523 131.116C155.963 130.81 155.356 130.656 154.703 130.656C154.036 130.656 153.423 130.81 152.863 131.116C152.316 131.41 151.876 131.863 151.543 132.476C151.209 133.09 151.043 133.836 151.043 134.716C151.043 135.61 151.203 136.363 151.523 136.976C151.856 137.59 152.296 138.05 152.843 138.356C153.389 138.65 153.989 138.796 154.643 138.796ZM164.876 130.756V137.216C164.876 137.75 164.989 138.13 165.216 138.356C165.442 138.57 165.836 138.676 166.396 138.676H167.736V140.216H166.096C165.082 140.216 164.322 139.983 163.816 139.516C163.309 139.05 163.056 138.283 163.056 137.216V130.756H161.636V129.256H163.056V126.496H164.876V129.256H167.736V130.756H164.876ZM179.941 134.316C179.941 134.663 179.921 135.03 179.881 135.416H171.121C171.188 136.496 171.554 137.343 172.221 137.956C172.901 138.556 173.721 138.856 174.681 138.856C175.468 138.856 176.121 138.676 176.641 138.316C177.174 137.943 177.548 137.45 177.761 136.836H179.721C179.428 137.89 178.841 138.75 177.961 139.416C177.081 140.07 175.988 140.396 174.681 140.396C173.641 140.396 172.708 140.163 171.881 139.696C171.068 139.23 170.428 138.57 169.961 137.716C169.494 136.85 169.261 135.85 169.261 134.716C169.261 133.583 169.488 132.59 169.941 131.736C170.394 130.883 171.028 130.23 171.841 129.776C172.668 129.31 173.614 129.076 174.681 129.076C175.721 129.076 176.641 129.303 177.441 129.756C178.241 130.21 178.854 130.836 179.281 131.636C179.721 132.423 179.941 133.316 179.941 134.316ZM178.061 133.936C178.061 133.243 177.908 132.65 177.601 132.156C177.294 131.65 176.874 131.27 176.341 131.016C175.821 130.75 175.241 130.616 174.601 130.616C173.681 130.616 172.894 130.91 172.241 131.496C171.601 132.083 171.234 132.896 171.141 133.936H178.061ZM181.663 134.716C181.663 133.583 181.89 132.596 182.343 131.756C182.797 130.903 183.423 130.243 184.223 129.776C185.037 129.31 185.963 129.076 187.003 129.076C188.35 129.076 189.457 129.403 190.323 130.056C191.203 130.71 191.783 131.616 192.063 132.776H190.103C189.917 132.11 189.55 131.583 189.003 131.196C188.47 130.81 187.803 130.616 187.003 130.616C185.963 130.616 185.123 130.976 184.483 131.696C183.843 132.403 183.523 133.41 183.523 134.716C183.523 136.036 183.843 137.056 184.483 137.776C185.123 138.496 185.963 138.856 187.003 138.856C187.803 138.856 188.47 138.67 189.003 138.296C189.537 137.923 189.903 137.39 190.103 136.696H192.063C191.77 137.816 191.183 138.716 190.303 139.396C189.423 140.063 188.323 140.396 187.003 140.396C185.963 140.396 185.037 140.163 184.223 139.696C183.423 139.23 182.797 138.57 182.343 137.716C181.89 136.863 181.663 135.863 181.663 134.716ZM196.712 130.756V137.216C196.712 137.75 196.825 138.13 197.052 138.356C197.278 138.57 197.672 138.676 198.232 138.676H199.572V140.216H197.932C196.918 140.216 196.158 139.983 195.652 139.516C195.145 139.05 194.892 138.283 194.892 137.216V130.756H193.472V129.256H194.892V126.496H196.712V129.256H199.572V130.756H196.712ZM202.717 127.476C202.37 127.476 202.077 127.356 201.837 127.116C201.597 126.876 201.477 126.583 201.477 126.236C201.477 125.89 201.597 125.596 201.837 125.356C202.077 125.116 202.37 124.996 202.717 124.996C203.05 124.996 203.33 125.116 203.557 125.356C203.797 125.596 203.917 125.89 203.917 126.236C203.917 126.583 203.797 126.876 203.557 127.116C203.33 127.356 203.05 127.476 202.717 127.476ZM203.597 129.256V140.216H201.777V129.256H203.597ZM210.779 138.536L214.179 129.256H216.119L211.819 140.216H209.699L205.399 129.256H207.359L210.779 138.536ZM227.91 134.316C227.91 134.663 227.89 135.03 227.85 135.416H219.09C219.156 136.496 219.523 137.343 220.19 137.956C220.87 138.556 221.69 138.856 222.65 138.856C223.436 138.856 224.09 138.676 224.61 138.316C225.143 137.943 225.516 137.45 225.73 136.836H227.69C227.396 137.89 226.81 138.75 225.93 139.416C225.05 140.07 223.956 140.396 222.65 140.396C221.61 140.396 220.676 140.163 219.85 139.696C219.036 139.23 218.396 138.57 217.93 137.716C217.463 136.85 217.23 135.85 217.23 134.716C217.23 133.583 217.456 132.59 217.91 131.736C218.363 130.883 218.996 130.23 219.81 129.776C220.636 129.31 221.583 129.076 222.65 129.076C223.69 129.076 224.61 129.303 225.41 129.756C226.21 130.21 226.823 130.836 227.25 131.636C227.69 132.423 227.91 133.316 227.91 134.316ZM226.03 133.936C226.03 133.243 225.876 132.65 225.57 132.156C225.263 131.65 224.843 131.27 224.31 131.016C223.79 130.75 223.21 130.616 222.57 130.616C221.65 130.616 220.863 130.91 220.21 131.496C219.57 132.083 219.203 132.896 219.11 133.936H226.03ZM17.024 170.396C16.184 170.396 15.4307 170.256 14.764 169.976C14.0973 169.683 13.5707 169.283 13.184 168.776C12.7973 168.256 12.584 167.663 12.544 166.996H14.424C14.4773 167.543 14.7307 167.99 15.184 168.336C15.6507 168.683 16.2573 168.856 17.004 168.856C17.6973 168.856 18.244 168.703 18.644 168.396C19.044 168.09 19.244 167.703 19.244 167.236C19.244 166.756 19.0307 166.403 18.604 166.176C18.1773 165.936 17.5173 165.703 16.624 165.476C15.8107 165.263 15.144 165.05 14.624 164.836C14.1173 164.61 13.6773 164.283 13.304 163.856C12.944 163.416 12.764 162.843 12.764 162.136C12.764 161.576 12.9307 161.063 13.264 160.596C13.5973 160.13 14.0707 159.763 14.684 159.496C15.2973 159.216 15.9973 159.076 16.784 159.076C17.9973 159.076 18.9773 159.383 19.724 159.996C20.4707 160.61 20.8707 161.45 20.924 162.516H19.104C19.064 161.943 18.8307 161.483 18.404 161.136C17.9907 160.79 17.4307 160.616 16.724 160.616C16.0707 160.616 15.5507 160.756 15.164 161.036C14.7773 161.316 14.584 161.683 14.584 162.136C14.584 162.496 14.6973 162.796 14.924 163.036C15.164 163.263 15.4573 163.45 15.804 163.596C16.164 163.73 16.6573 163.883 17.284 164.056C18.0707 164.27 18.7107 164.483 19.204 164.696C19.6973 164.896 20.1173 165.203 20.464 165.616C20.824 166.03 21.0107 166.57 21.024 167.236C21.024 167.836 20.8573 168.376 20.524 168.856C20.1907 169.336 19.7173 169.716 19.104 169.996C18.504 170.263 17.8107 170.396 17.024 170.396ZM25.8132 160.756V167.216C25.8132 167.75 25.9266 168.13 26.1532 168.356C26.3799 168.57 26.7732 168.676 27.3332 168.676H28.6732V170.216H27.0332C26.0199 170.216 25.2599 169.983 24.7532 169.516C24.2466 169.05 23.9932 168.283 23.9932 167.216V160.756H22.5732V159.256H23.9932V156.496H25.8132V159.256H28.6732V160.756H25.8132ZM31.8184 157.476C31.4717 157.476 31.1784 157.356 30.9384 157.116C30.6984 156.876 30.5784 156.583 30.5784 156.236C30.5784 155.89 30.6984 155.596 30.9384 155.356C31.1784 155.116 31.4717 154.996 31.8184 154.996C32.1517 154.996 32.4317 155.116 32.6584 155.356C32.8984 155.596 33.0184 155.89 33.0184 156.236C33.0184 156.583 32.8984 156.876 32.6584 157.116C32.4317 157.356 32.1517 157.476 31.8184 157.476ZM32.6984 159.256V170.216H30.8784V159.256H32.6984ZM35.1203 164.716C35.1203 163.583 35.3469 162.596 35.8003 161.756C36.2536 160.903 36.8803 160.243 37.6803 159.776C38.4936 159.31 39.4203 159.076 40.4603 159.076C41.8069 159.076 42.9136 159.403 43.7803 160.056C44.6603 160.71 45.2403 161.616 45.5203 162.776H43.5603C43.3736 162.11 43.0069 161.583 42.4603 161.196C41.9269 160.81 41.2603 160.616 40.4603 160.616C39.4203 160.616 38.5803 160.976 37.9403 161.696C37.3003 162.403 36.9803 163.41 36.9803 164.716C36.9803 166.036 37.3003 167.056 37.9403 167.776C38.5803 168.496 39.4203 168.856 40.4603 168.856C41.2603 168.856 41.9269 168.67 42.4603 168.296C42.9936 167.923 43.3603 167.39 43.5603 166.696H45.5203C45.2269 167.816 44.6403 168.716 43.7603 169.396C42.8803 170.063 41.7803 170.396 40.4603 170.396C39.4203 170.396 38.4936 170.163 37.6803 169.696C36.8803 169.23 36.2536 168.57 35.8003 167.716C35.3469 166.863 35.1203 165.863 35.1203 164.716ZM54.0687 170.216L49.7687 165.376V170.216H47.9487V155.416H49.7687V164.116L53.9887 159.256H56.5287L51.3687 164.716L56.5487 170.216H54.0687ZM68.2417 164.316C68.2417 164.663 68.2217 165.03 68.1817 165.416H59.4217C59.4883 166.496 59.855 167.343 60.5217 167.956C61.2017 168.556 62.0217 168.856 62.9817 168.856C63.7683 168.856 64.4217 168.676 64.9417 168.316C65.475 167.943 65.8483 167.45 66.0617 166.836H68.0217C67.7283 167.89 67.1417 168.75 66.2617 169.416C65.3817 170.07 64.2883 170.396 62.9817 170.396C61.9417 170.396 61.0083 170.163 60.1817 169.696C59.3683 169.23 58.7283 168.57 58.2617 167.716C57.795 166.85 57.5617 165.85 57.5617 164.716C57.5617 163.583 57.7883 162.59 58.2417 161.736C58.695 160.883 59.3283 160.23 60.1417 159.776C60.9683 159.31 61.915 159.076 62.9817 159.076C64.0217 159.076 64.9417 159.303 65.7417 159.756C66.5417 160.21 67.155 160.836 67.5817 161.636C68.0217 162.423 68.2417 163.316 68.2417 164.316ZM66.3617 163.936C66.3617 163.243 66.2083 162.65 65.9017 162.156C65.595 161.65 65.175 161.27 64.6417 161.016C64.1217 160.75 63.5417 160.616 62.9017 160.616C61.9817 160.616 61.195 160.91 60.5417 161.496C59.9017 162.083 59.535 162.896 59.4417 163.936H66.3617ZM72.464 161.036C72.784 160.41 73.2373 159.923 73.824 159.576C74.424 159.23 75.1507 159.056 76.004 159.056V160.936H75.524C73.484 160.936 72.464 162.043 72.464 164.256V170.216H70.644V159.256H72.464V161.036ZM78.6849 170.336C78.3383 170.336 78.0449 170.216 77.8049 169.976C77.5649 169.736 77.4449 169.443 77.4449 169.096C77.4449 168.75 77.5649 168.456 77.8049 168.216C78.0449 167.976 78.3383 167.856 78.6849 167.856C79.0183 167.856 79.2983 167.976 79.5249 168.216C79.7649 168.456 79.8849 168.75 79.8849 169.096C79.8849 169.443 79.7649 169.736 79.5249 169.976C79.2983 170.216 79.0183 170.336 78.6849 170.336ZM96.9562 160.356C96.9562 161.516 96.5562 162.483 95.7562 163.256C94.9695 164.016 93.7629 164.396 92.1362 164.396H89.4562V170.216H87.6362V156.276H92.1362C93.7095 156.276 94.9029 156.656 95.7162 157.416C96.5429 158.176 96.9562 159.156 96.9562 160.356ZM92.1362 162.896C93.1495 162.896 93.8962 162.676 94.3762 162.236C94.8562 161.796 95.0962 161.17 95.0962 160.356C95.0962 158.636 94.1095 157.776 92.1362 157.776H89.4562V162.896H92.1362ZM103.998 170.396C102.972 170.396 102.038 170.163 101.198 169.696C100.372 169.23 99.7182 168.57 99.2382 167.716C98.7716 166.85 98.5382 165.85 98.5382 164.716C98.5382 163.596 98.7782 162.61 99.2582 161.756C99.7516 160.89 100.418 160.23 101.258 159.776C102.098 159.31 103.038 159.076 104.078 159.076C105.118 159.076 106.058 159.31 106.898 159.776C107.738 160.23 108.398 160.883 108.878 161.736C109.372 162.59 109.618 163.583 109.618 164.716C109.618 165.85 109.365 166.85 108.858 167.716C108.365 168.57 107.692 169.23 106.838 169.696C105.985 170.163 105.038 170.396 103.998 170.396ZM103.998 168.796C104.652 168.796 105.265 168.643 105.838 168.336C106.412 168.03 106.872 167.57 107.218 166.956C107.578 166.343 107.758 165.596 107.758 164.716C107.758 163.836 107.585 163.09 107.238 162.476C106.892 161.863 106.438 161.41 105.878 161.116C105.318 160.81 104.712 160.656 104.058 160.656C103.392 160.656 102.778 160.81 102.218 161.116C101.672 161.41 101.232 161.863 100.898 162.476C100.565 163.09 100.398 163.836 100.398 164.716C100.398 165.61 100.558 166.363 100.878 166.976C101.212 167.59 101.652 168.05 102.198 168.356C102.745 168.65 103.345 168.796 103.998 168.796ZM115.891 170.396C115.051 170.396 114.298 170.256 113.631 169.976C112.965 169.683 112.438 169.283 112.051 168.776C111.665 168.256 111.451 167.663 111.411 166.996H113.291C113.345 167.543 113.598 167.99 114.051 168.336C114.518 168.683 115.125 168.856 115.871 168.856C116.565 168.856 117.111 168.703 117.511 168.396C117.911 168.09 118.111 167.703 118.111 167.236C118.111 166.756 117.898 166.403 117.471 166.176C117.045 165.936 116.385 165.703 115.491 165.476C114.678 165.263 114.011 165.05 113.491 164.836C112.985 164.61 112.545 164.283 112.171 163.856C111.811 163.416 111.631 162.843 111.631 162.136C111.631 161.576 111.798 161.063 112.131 160.596C112.465 160.13 112.938 159.763 113.551 159.496C114.165 159.216 114.865 159.076 115.651 159.076C116.865 159.076 117.845 159.383 118.591 159.996C119.338 160.61 119.738 161.45 119.791 162.516H117.971C117.931 161.943 117.698 161.483 117.271 161.136C116.858 160.79 116.298 160.616 115.591 160.616C114.938 160.616 114.418 160.756 114.031 161.036C113.645 161.316 113.451 161.683 113.451 162.136C113.451 162.496 113.565 162.796 113.791 163.036C114.031 163.263 114.325 163.45 114.671 163.596C115.031 163.73 115.525 163.883 116.151 164.056C116.938 164.27 117.578 164.483 118.071 164.696C118.565 164.896 118.985 165.203 119.331 165.616C119.691 166.03 119.878 166.57 119.891 167.236C119.891 167.836 119.725 168.376 119.391 168.856C119.058 169.336 118.585 169.716 117.971 169.996C117.371 170.263 116.678 170.396 115.891 170.396ZM123.4 157.476C123.054 157.476 122.76 157.356 122.52 157.116C122.28 156.876 122.16 156.583 122.16 156.236C122.16 155.89 122.28 155.596 122.52 155.356C122.76 155.116 123.054 154.996 123.4 154.996C123.734 154.996 124.014 155.116 124.24 155.356C124.48 155.596 124.6 155.89 124.6 156.236C124.6 156.583 124.48 156.876 124.24 157.116C124.014 157.356 123.734 157.476 123.4 157.476ZM124.28 159.256V170.216H122.46V159.256H124.28ZM129.602 160.756V167.216C129.602 167.75 129.716 168.13 129.942 168.356C130.169 168.57 130.562 168.676 131.122 168.676H132.462V170.216H130.822C129.809 170.216 129.049 169.983 128.542 169.516C128.036 169.05 127.782 168.283 127.782 167.216V160.756H126.362V159.256H127.782V156.496H129.602V159.256H132.462V160.756H129.602ZM135.607 157.476C135.261 157.476 134.967 157.356 134.727 157.116C134.487 156.876 134.367 156.583 134.367 156.236C134.367 155.89 134.487 155.596 134.727 155.356C134.967 155.116 135.261 154.996 135.607 154.996C135.941 154.996 136.221 155.116 136.447 155.356C136.687 155.596 136.807 155.89 136.807 156.236C136.807 156.583 136.687 156.876 136.447 157.116C136.221 157.356 135.941 157.476 135.607 157.476ZM136.487 159.256V170.216H134.667V159.256H136.487ZM144.369 170.396C143.343 170.396 142.409 170.163 141.569 169.696C140.743 169.23 140.089 168.57 139.609 167.716C139.143 166.85 138.909 165.85 138.909 164.716C138.909 163.596 139.149 162.61 139.629 161.756C140.123 160.89 140.789 160.23 141.629 159.776C142.469 159.31 143.409 159.076 144.449 159.076C145.489 159.076 146.429 159.31 147.269 159.776C148.109 160.23 148.769 160.883 149.249 161.736C149.743 162.59 149.989 163.583 149.989 164.716C149.989 165.85 149.736 166.85 149.229 167.716C148.736 168.57 148.063 169.23 147.209 169.696C146.356 170.163 145.409 170.396 144.369 170.396ZM144.369 168.796C145.023 168.796 145.636 168.643 146.209 168.336C146.783 168.03 147.243 167.57 147.589 166.956C147.949 166.343 148.129 165.596 148.129 164.716C148.129 163.836 147.956 163.09 147.609 162.476C147.263 161.863 146.809 161.41 146.249 161.116C145.689 160.81 145.083 160.656 144.429 160.656C143.763 160.656 143.149 160.81 142.589 161.116C142.043 161.41 141.603 161.863 141.269 162.476C140.936 163.09 140.769 163.836 140.769 164.716C140.769 165.61 140.929 166.363 141.249 166.976C141.583 167.59 142.023 168.05 142.569 168.356C143.116 168.65 143.716 168.796 144.369 168.796ZM157.722 159.056C159.056 159.056 160.136 159.463 160.962 160.276C161.789 161.076 162.202 162.236 162.202 163.756V170.216H160.402V164.016C160.402 162.923 160.129 162.09 159.582 161.516C159.036 160.93 158.289 160.636 157.342 160.636C156.382 160.636 155.616 160.936 155.042 161.536C154.482 162.136 154.202 163.01 154.202 164.156V170.216H152.382V159.256H154.202V160.816C154.562 160.256 155.049 159.823 155.662 159.516C156.289 159.21 156.976 159.056 157.722 159.056ZM169.827 164.696C169.827 163.576 170.054 162.596 170.507 161.756C170.961 160.903 171.581 160.243 172.367 159.776C173.167 159.31 174.054 159.076 175.027 159.076C175.987 159.076 176.821 159.283 177.527 159.696C178.234 160.11 178.761 160.63 179.107 161.256V159.256H180.947V170.216H179.107V168.176C178.747 168.816 178.207 169.35 177.487 169.776C176.781 170.19 175.954 170.396 175.007 170.396C174.034 170.396 173.154 170.156 172.367 169.676C171.581 169.196 170.961 168.523 170.507 167.656C170.054 166.79 169.827 165.803 169.827 164.696ZM179.107 164.716C179.107 163.89 178.941 163.17 178.607 162.556C178.274 161.943 177.821 161.476 177.247 161.156C176.687 160.823 176.067 160.656 175.387 160.656C174.707 160.656 174.087 160.816 173.527 161.136C172.967 161.456 172.521 161.923 172.187 162.536C171.854 163.15 171.687 163.87 171.687 164.696C171.687 165.536 171.854 166.27 172.187 166.896C172.521 167.51 172.967 167.983 173.527 168.316C174.087 168.636 174.707 168.796 175.387 168.796C176.067 168.796 176.687 168.636 177.247 168.316C177.821 167.983 178.274 167.51 178.607 166.896C178.941 166.27 179.107 165.543 179.107 164.716ZM187.903 170.396C187.063 170.396 186.31 170.256 185.643 169.976C184.976 169.683 184.45 169.283 184.063 168.776C183.676 168.256 183.463 167.663 183.423 166.996H185.303C185.356 167.543 185.61 167.99 186.063 168.336C186.53 168.683 187.136 168.856 187.883 168.856C188.576 168.856 189.123 168.703 189.523 168.396C189.923 168.09 190.123 167.703 190.123 167.236C190.123 166.756 189.91 166.403 189.483 166.176C189.056 165.936 188.396 165.703 187.503 165.476C186.69 165.263 186.023 165.05 185.503 164.836C184.996 164.61 184.556 164.283 184.183 163.856C183.823 163.416 183.643 162.843 183.643 162.136C183.643 161.576 183.81 161.063 184.143 160.596C184.476 160.13 184.95 159.763 185.563 159.496C186.176 159.216 186.876 159.076 187.663 159.076C188.876 159.076 189.856 159.383 190.603 159.996C191.35 160.61 191.75 161.45 191.803 162.516H189.983C189.943 161.943 189.71 161.483 189.283 161.136C188.87 160.79 188.31 160.616 187.603 160.616C186.95 160.616 186.43 160.756 186.043 161.036C185.656 161.316 185.463 161.683 185.463 162.136C185.463 162.496 185.576 162.796 185.803 163.036C186.043 163.263 186.336 163.45 186.683 163.596C187.043 163.73 187.536 163.883 188.163 164.056C188.95 164.27 189.59 164.483 190.083 164.696C190.576 164.896 190.996 165.203 191.343 165.616C191.703 166.03 191.89 166.57 191.903 167.236C191.903 167.836 191.736 168.376 191.403 168.856C191.07 169.336 190.596 169.716 189.983 169.996C189.383 170.263 188.69 170.396 187.903 170.396ZM199.124 164.696C199.124 163.576 199.351 162.596 199.804 161.756C200.257 160.903 200.877 160.243 201.664 159.776C202.464 159.31 203.357 159.076 204.344 159.076C205.197 159.076 205.991 159.276 206.724 159.676C207.457 160.063 208.017 160.576 208.404 161.216V155.416H210.244V170.216H208.404V168.156C208.044 168.81 207.511 169.35 206.804 169.776C206.097 170.19 205.271 170.396 204.324 170.396C203.351 170.396 202.464 170.156 201.664 169.676C200.877 169.196 200.257 168.523 199.804 167.656C199.351 166.79 199.124 165.803 199.124 164.696ZM208.404 164.716C208.404 163.89 208.237 163.17 207.904 162.556C207.571 161.943 207.117 161.476 206.544 161.156C205.984 160.823 205.364 160.656 204.684 160.656C204.004 160.656 203.384 160.816 202.824 161.136C202.264 161.456 201.817 161.923 201.484 162.536C201.151 163.15 200.984 163.87 200.984 164.696C200.984 165.536 201.151 166.27 201.484 166.896C201.817 167.51 202.264 167.983 202.824 168.316C203.384 168.636 204.004 168.796 204.684 168.796C205.364 168.796 205.984 168.636 206.544 168.316C207.117 167.983 207.571 167.51 207.904 166.896C208.237 166.27 208.404 165.543 208.404 164.716ZM223.32 164.316C223.32 164.663 223.3 165.03 223.26 165.416H214.5C214.566 166.496 214.933 167.343 215.6 167.956C216.28 168.556 217.1 168.856 218.06 168.856C218.846 168.856 219.5 168.676 220.02 168.316C220.553 167.943 220.926 167.45 221.14 166.836H223.1C222.806 167.89 222.22 168.75 221.34 169.416C220.46 170.07 219.366 170.396 218.06 170.396C217.02 170.396 216.086 170.163 215.26 169.696C214.446 169.23 213.806 168.57 213.34 167.716C212.873 166.85 212.64 165.85 212.64 164.716C212.64 163.583 212.866 162.59 213.32 161.736C213.773 160.883 214.406 160.23 215.22 159.776C216.046 159.31 216.993 159.076 218.06 159.076C219.1 159.076 220.02 159.303 220.82 159.756C221.62 160.21 222.233 160.836 222.66 161.636C223.1 162.423 223.32 163.316 223.32 164.316ZM221.44 163.936C221.44 163.243 221.286 162.65 220.98 162.156C220.673 161.65 220.253 161.27 219.72 161.016C219.2 160.75 218.62 160.616 217.98 160.616C217.06 160.616 216.273 160.91 215.62 161.496C214.98 162.083 214.613 162.896 214.52 163.936H221.44ZM229.602 170.396C228.762 170.396 228.009 170.256 227.342 169.976C226.675 169.683 226.149 169.283 225.762 168.776C225.375 168.256 225.162 167.663 225.122 166.996H227.002C227.055 167.543 227.309 167.99 227.762 168.336C228.229 168.683 228.835 168.856 229.582 168.856C230.275 168.856 230.822 168.703 231.222 168.396C231.622 168.09 231.822 167.703 231.822 167.236C231.822 166.756 231.609 166.403 231.182 166.176C230.755 165.936 230.095 165.703 229.202 165.476C228.389 165.263 227.722 165.05 227.202 164.836C226.695 164.61 226.255 164.283 225.882 163.856C225.522 163.416 225.342 162.843 225.342 162.136C225.342 161.576 225.509 161.063 225.842 160.596C226.175 160.13 226.649 159.763 227.262 159.496C227.875 159.216 228.575 159.076 229.362 159.076C230.575 159.076 231.555 159.383 232.302 159.996C233.049 160.61 233.449 161.45 233.502 162.516H231.682C231.642 161.943 231.409 161.483 230.982 161.136C230.569 160.79 230.009 160.616 229.302 160.616C228.649 160.616 228.129 160.756 227.742 161.036C227.355 161.316 227.162 161.683 227.162 162.136C227.162 162.496 227.275 162.796 227.502 163.036C227.742 163.263 228.035 163.45 228.382 163.596C228.742 163.73 229.235 163.883 229.862 164.056C230.649 164.27 231.289 164.483 231.782 164.696C232.275 164.896 232.695 165.203 233.042 165.616C233.402 166.03 233.589 166.57 233.602 167.236C233.602 167.836 233.435 168.376 233.102 168.856C232.769 169.336 232.295 169.716 231.682 169.996C231.082 170.263 230.389 170.396 229.602 170.396ZM237.111 157.476C236.765 157.476 236.471 157.356 236.231 157.116C235.991 156.876 235.871 156.583 235.871 156.236C235.871 155.89 235.991 155.596 236.231 155.356C236.471 155.116 236.765 154.996 237.111 154.996C237.445 154.996 237.725 155.116 237.951 155.356C238.191 155.596 238.311 155.89 238.311 156.236C238.311 156.583 238.191 156.876 237.951 157.116C237.725 157.356 237.445 157.476 237.111 157.476ZM237.991 159.256V170.216H236.171V159.256H237.991ZM242.913 161.036C243.233 160.41 243.687 159.923 244.273 159.576C244.873 159.23 245.6 159.056 246.453 159.056V160.936H245.973C243.933 160.936 242.913 162.043 242.913 164.256V170.216H241.093V159.256H242.913V161.036ZM258.554 164.316C258.554 164.663 258.534 165.03 258.494 165.416H249.734C249.801 166.496 250.167 167.343 250.834 167.956C251.514 168.556 252.334 168.856 253.294 168.856C254.081 168.856 254.734 168.676 255.254 168.316C255.787 167.943 256.161 167.45 256.374 166.836H258.334C258.041 167.89 257.454 168.75 256.574 169.416C255.694 170.07 254.601 170.396 253.294 170.396C252.254 170.396 251.321 170.163 250.494 169.696C249.681 169.23 249.041 168.57 248.574 167.716C248.107 166.85 247.874 165.85 247.874 164.716C247.874 163.583 248.101 162.59 248.554 161.736C249.007 160.883 249.641 160.23 250.454 159.776C251.281 159.31 252.227 159.076 253.294 159.076C254.334 159.076 255.254 159.303 256.054 159.756C256.854 160.21 257.467 160.836 257.894 161.636C258.334 162.423 258.554 163.316 258.554 164.316ZM256.674 163.936C256.674 163.243 256.521 162.65 256.214 162.156C255.907 161.65 255.487 161.27 254.954 161.016C254.434 160.75 253.854 160.616 253.214 160.616C252.294 160.616 251.507 160.91 250.854 161.496C250.214 162.083 249.847 162.896 249.754 163.936H256.674ZM260.277 164.696C260.277 163.576 260.503 162.596 260.957 161.756C261.41 160.903 262.03 160.243 262.817 159.776C263.617 159.31 264.51 159.076 265.497 159.076C266.35 159.076 267.143 159.276 267.877 159.676C268.61 160.063 269.17 160.576 269.557 161.216V155.416H271.397V170.216H269.557V168.156C269.197 168.81 268.663 169.35 267.957 169.776C267.25 170.19 266.423 170.396 265.477 170.396C264.503 170.396 263.617 170.156 262.817 169.676C262.03 169.196 261.41 168.523 260.957 167.656C260.503 166.79 260.277 165.803 260.277 164.696ZM269.557 164.716C269.557 163.89 269.39 163.17 269.057 162.556C268.723 161.943 268.27 161.476 267.697 161.156C267.137 160.823 266.517 160.656 265.837 160.656C265.157 160.656 264.537 160.816 263.977 161.136C263.417 161.456 262.97 161.923 262.637 162.536C262.303 163.15 262.137 163.87 262.137 164.696C262.137 165.536 262.303 166.27 262.637 166.896C262.97 167.51 263.417 167.983 263.977 168.316C264.537 168.636 265.157 168.796 265.837 168.796C266.517 168.796 267.137 168.636 267.697 168.316C268.27 167.983 268.723 167.51 269.057 166.896C269.39 166.27 269.557 165.543 269.557 164.716ZM12.464 194.696C12.464 193.576 12.6907 192.596 13.144 191.756C13.5973 190.903 14.2173 190.243 15.004 189.776C15.804 189.31 16.6907 189.076 17.664 189.076C18.624 189.076 19.4573 189.283 20.164 189.696C20.8707 190.11 21.3973 190.63 21.744 191.256V189.256H23.584V200.216H21.744V198.176C21.384 198.816 20.844 199.35 20.124 199.776C19.4173 200.19 18.5907 200.396 17.644 200.396C16.6707 200.396 15.7907 200.156 15.004 199.676C14.2173 199.196 13.5973 198.523 13.144 197.656C12.6907 196.79 12.464 195.803 12.464 194.696ZM21.744 194.716C21.744 193.89 21.5773 193.17 21.244 192.556C20.9107 191.943 20.4573 191.476 19.884 191.156C19.324 190.823 18.704 190.656 18.024 190.656C17.344 190.656 16.724 190.816 16.164 191.136C15.604 191.456 15.1573 191.923 14.824 192.536C14.4907 193.15 14.324 193.87 14.324 194.696C14.324 195.536 14.4907 196.27 14.824 196.896C15.1573 197.51 15.604 197.983 16.164 198.316C16.724 198.636 17.344 198.796 18.024 198.796C18.704 198.796 19.324 198.636 19.884 198.316C20.4573 197.983 20.9107 197.51 21.244 196.896C21.5773 196.27 21.744 195.543 21.744 194.716ZM31.9996 189.056C33.333 189.056 34.413 189.463 35.2396 190.276C36.0663 191.076 36.4796 192.236 36.4796 193.756V200.216H34.6796V194.016C34.6796 192.923 34.4063 192.09 33.8596 191.516C33.313 190.93 32.5663 190.636 31.6196 190.636C30.6596 190.636 29.893 190.936 29.3196 191.536C28.7596 192.136 28.4796 193.01 28.4796 194.156V200.216H26.6596V189.256H28.4796V190.816C28.8396 190.256 29.3263 189.823 29.9396 189.516C30.5663 189.21 31.253 189.056 31.9996 189.056ZM38.7726 194.696C38.7726 193.576 38.9993 192.596 39.4526 191.756C39.9059 190.903 40.5259 190.243 41.3126 189.776C42.1126 189.31 43.0059 189.076 43.9926 189.076C44.8459 189.076 45.6393 189.276 46.3726 189.676C47.1059 190.063 47.6659 190.576 48.0526 191.216V185.416H49.8926V200.216H48.0526V198.156C47.6926 198.81 47.1593 199.35 46.4526 199.776C45.7459 200.19 44.9193 200.396 43.9726 200.396C42.9993 200.396 42.1126 200.156 41.3126 199.676C40.5259 199.196 39.9059 198.523 39.4526 197.656C38.9993 196.79 38.7726 195.803 38.7726 194.696ZM48.0526 194.716C48.0526 193.89 47.8859 193.17 47.5526 192.556C47.2193 191.943 46.7659 191.476 46.1926 191.156C45.6326 190.823 45.0126 190.656 44.3326 190.656C43.6526 190.656 43.0326 190.816 42.4726 191.136C41.9126 191.456 41.4659 191.923 41.1326 192.536C40.7993 193.15 40.6326 193.87 40.6326 194.696C40.6326 195.536 40.7993 196.27 41.1326 196.896C41.4659 197.51 41.9126 197.983 42.4726 198.316C43.0326 198.636 43.6526 198.796 44.3326 198.796C45.0126 198.796 45.6326 198.636 46.1926 198.316C46.7659 197.983 47.2193 197.51 47.5526 196.896C47.8859 196.27 48.0526 195.543 48.0526 194.716ZM60.1203 191.276C60.4803 190.65 61.0136 190.13 61.7203 189.716C62.4403 189.29 63.2736 189.076 64.2203 189.076C65.1936 189.076 66.0736 189.31 66.8603 189.776C67.6603 190.243 68.2869 190.903 68.7403 191.756C69.1936 192.596 69.4203 193.576 69.4203 194.696C69.4203 195.803 69.1936 196.79 68.7403 197.656C68.2869 198.523 67.6603 199.196 66.8603 199.676C66.0736 200.156 65.1936 200.396 64.2203 200.396C63.2869 200.396 62.4603 200.19 61.7403 199.776C61.0336 199.35 60.4936 198.823 60.1203 198.196V205.416H58.3003V189.256H60.1203V191.276ZM67.5603 194.696C67.5603 193.87 67.3936 193.15 67.0603 192.536C66.7269 191.923 66.2736 191.456 65.7003 191.136C65.1403 190.816 64.5203 190.656 63.8403 190.656C63.1736 190.656 62.5536 190.823 61.9803 191.156C61.4203 191.476 60.9669 191.95 60.6203 192.576C60.2869 193.19 60.1203 193.903 60.1203 194.716C60.1203 195.543 60.2869 196.27 60.6203 196.896C60.9669 197.51 61.4203 197.983 61.9803 198.316C62.5536 198.636 63.1736 198.796 63.8403 198.796C64.5203 198.796 65.1403 198.636 65.7003 198.316C66.2736 197.983 66.7269 197.51 67.0603 196.896C67.3936 196.27 67.5603 195.536 67.5603 194.696ZM73.6359 191.036C73.9559 190.41 74.4092 189.923 74.9959 189.576C75.5959 189.23 76.3225 189.056 77.1759 189.056V190.936H76.6959C74.6559 190.936 73.6359 192.043 73.6359 194.256V200.216H71.8159V189.256H73.6359V191.036ZM89.2768 194.316C89.2768 194.663 89.2568 195.03 89.2168 195.416H80.4568C80.5235 196.496 80.8901 197.343 81.5568 197.956C82.2368 198.556 83.0568 198.856 84.0168 198.856C84.8035 198.856 85.4568 198.676 85.9768 198.316C86.5102 197.943 86.8835 197.45 87.0968 196.836H89.0568C88.7635 197.89 88.1768 198.75 87.2968 199.416C86.4168 200.07 85.3235 200.396 84.0168 200.396C82.9768 200.396 82.0435 200.163 81.2168 199.696C80.4035 199.23 79.7635 198.57 79.2968 197.716C78.8301 196.85 78.5968 195.85 78.5968 194.716C78.5968 193.583 78.8235 192.59 79.2768 191.736C79.7301 190.883 80.3635 190.23 81.1768 189.776C82.0035 189.31 82.9501 189.076 84.0168 189.076C85.0568 189.076 85.9768 189.303 86.7768 189.756C87.5768 190.21 88.1902 190.836 88.6168 191.636C89.0568 192.423 89.2768 193.316 89.2768 194.316ZM87.3968 193.936C87.3968 193.243 87.2435 192.65 86.9368 192.156C86.6301 191.65 86.2101 191.27 85.6768 191.016C85.1568 190.75 84.5768 190.616 83.9368 190.616C83.0168 190.616 82.2301 190.91 81.5768 191.496C80.9368 192.083 80.5701 192.896 80.4768 193.936H87.3968ZM95.5592 200.396C94.7192 200.396 93.9658 200.256 93.2992 199.976C92.6325 199.683 92.1058 199.283 91.7192 198.776C91.3325 198.256 91.1192 197.663 91.0792 196.996H92.9592C93.0125 197.543 93.2658 197.99 93.7192 198.336C94.1858 198.683 94.7925 198.856 95.5392 198.856C96.2325 198.856 96.7792 198.703 97.1792 198.396C97.5792 198.09 97.7792 197.703 97.7792 197.236C97.7792 196.756 97.5658 196.403 97.1392 196.176C96.7125 195.936 96.0525 195.703 95.1592 195.476C94.3458 195.263 93.6792 195.05 93.1592 194.836C92.6525 194.61 92.2125 194.283 91.8392 193.856C91.4792 193.416 91.2992 192.843 91.2992 192.136C91.2992 191.576 91.4658 191.063 91.7992 190.596C92.1325 190.13 92.6058 189.763 93.2192 189.496C93.8325 189.216 94.5325 189.076 95.3192 189.076C96.5325 189.076 97.5125 189.383 98.2592 189.996C99.0058 190.61 99.4058 191.45 99.4592 192.516H97.6392C97.5992 191.943 97.3658 191.483 96.9392 191.136C96.5258 190.79 95.9658 190.616 95.2592 190.616C94.6058 190.616 94.0858 190.756 93.6992 191.036C93.3125 191.316 93.1192 191.683 93.1192 192.136C93.1192 192.496 93.2325 192.796 93.4592 193.036C93.6992 193.263 93.9925 193.45 94.3392 193.596C94.6992 193.73 95.1925 193.883 95.8192 194.056C96.6058 194.27 97.2458 194.483 97.7392 194.696C98.2325 194.896 98.6525 195.203 98.9992 195.616C99.3592 196.03 99.5458 196.57 99.5592 197.236C99.5592 197.836 99.3925 198.376 99.0592 198.856C98.7258 199.336 98.2525 199.716 97.6392 199.996C97.0392 200.263 96.3458 200.396 95.5592 200.396ZM106.008 200.396C105.168 200.396 104.415 200.256 103.748 199.976C103.082 199.683 102.555 199.283 102.168 198.776C101.782 198.256 101.568 197.663 101.528 196.996H103.408C103.462 197.543 103.715 197.99 104.168 198.336C104.635 198.683 105.242 198.856 105.988 198.856C106.682 198.856 107.228 198.703 107.628 198.396C108.028 198.09 108.228 197.703 108.228 197.236C108.228 196.756 108.015 196.403 107.588 196.176C107.162 195.936 106.502 195.703 105.608 195.476C104.795 195.263 104.128 195.05 103.608 194.836C103.102 194.61 102.662 194.283 102.288 193.856C101.928 193.416 101.748 192.843 101.748 192.136C101.748 191.576 101.915 191.063 102.248 190.596C102.582 190.13 103.055 189.763 103.668 189.496C104.282 189.216 104.982 189.076 105.768 189.076C106.982 189.076 107.962 189.383 108.708 189.996C109.455 190.61 109.855 191.45 109.908 192.516H108.088C108.048 191.943 107.815 191.483 107.388 191.136C106.975 190.79 106.415 190.616 105.708 190.616C105.055 190.616 104.535 190.756 104.148 191.036C103.762 191.316 103.568 191.683 103.568 192.136C103.568 192.496 103.682 192.796 103.908 193.036C104.148 193.263 104.442 193.45 104.788 193.596C105.148 193.73 105.642 193.883 106.268 194.056C107.055 194.27 107.695 194.483 108.188 194.696C108.682 194.896 109.102 195.203 109.448 195.616C109.808 196.03 109.995 196.57 110.008 197.236C110.008 197.836 109.842 198.376 109.508 198.856C109.175 199.336 108.702 199.716 108.088 199.996C107.488 200.263 106.795 200.396 106.008 200.396ZM122.37 190.756H120.07V200.216H118.25V190.756H116.83V189.256H118.25V188.476C118.25 187.25 118.563 186.356 119.19 185.796C119.83 185.223 120.85 184.936 122.25 184.936V186.456C121.45 186.456 120.883 186.616 120.55 186.936C120.23 187.243 120.07 187.756 120.07 188.476V189.256H122.37V190.756ZM125.432 187.476C125.085 187.476 124.792 187.356 124.552 187.116C124.312 186.876 124.192 186.583 124.192 186.236C124.192 185.89 124.312 185.596 124.552 185.356C124.792 185.116 125.085 184.996 125.432 184.996C125.765 184.996 126.045 185.116 126.272 185.356C126.512 185.596 126.632 185.89 126.632 186.236C126.632 186.583 126.512 186.876 126.272 187.116C126.045 187.356 125.765 187.476 125.432 187.476ZM126.312 189.256V200.216H124.492V189.256H126.312ZM131.234 191.036C131.554 190.41 132.007 189.923 132.594 189.576C133.194 189.23 133.92 189.056 134.774 189.056V190.936H134.294C132.254 190.936 131.234 192.043 131.234 194.256V200.216H129.414V189.256H131.234V191.036ZM150.054 189.056C150.908 189.056 151.668 189.236 152.334 189.596C153.001 189.943 153.528 190.47 153.914 191.176C154.301 191.883 154.494 192.743 154.494 193.756V200.216H152.694V194.016C152.694 192.923 152.421 192.09 151.874 191.516C151.341 190.93 150.614 190.636 149.694 190.636C148.748 190.636 147.994 190.943 147.434 191.556C146.874 192.156 146.594 193.03 146.594 194.176V200.216H144.794V194.016C144.794 192.923 144.521 192.09 143.974 191.516C143.441 190.93 142.714 190.636 141.794 190.636C140.848 190.636 140.094 190.943 139.534 191.556C138.974 192.156 138.694 193.03 138.694 194.176V200.216H136.874V189.256H138.694V190.836C139.054 190.263 139.534 189.823 140.134 189.516C140.748 189.21 141.421 189.056 142.154 189.056C143.074 189.056 143.888 189.263 144.594 189.676C145.301 190.09 145.828 190.696 146.174 191.496C146.481 190.723 146.988 190.123 147.694 189.696C148.401 189.27 149.188 189.056 150.054 189.056ZM159.3 185.416V200.216H157.48V185.416H159.3ZM171.842 189.256L165.242 205.376H163.362L165.522 200.096L161.102 189.256H163.122L166.562 198.136L169.962 189.256H171.842ZM183.783 200.396C182.757 200.396 181.823 200.163 180.983 199.696C180.157 199.23 179.503 198.57 179.023 197.716C178.557 196.85 178.323 195.85 178.323 194.716C178.323 193.596 178.563 192.61 179.043 191.756C179.537 190.89 180.203 190.23 181.043 189.776C181.883 189.31 182.823 189.076 183.863 189.076C184.903 189.076 185.843 189.31 186.683 189.776C187.523 190.23 188.183 190.883 188.663 191.736C189.157 192.59 189.403 193.583 189.403 194.716C189.403 195.85 189.15 196.85 188.643 197.716C188.15 198.57 187.477 199.23 186.623 199.696C185.77 200.163 184.823 200.396 183.783 200.396ZM183.783 198.796C184.437 198.796 185.05 198.643 185.623 198.336C186.197 198.03 186.657 197.57 187.003 196.956C187.363 196.343 187.543 195.596 187.543 194.716C187.543 193.836 187.37 193.09 187.023 192.476C186.677 191.863 186.223 191.41 185.663 191.116C185.103 190.81 184.497 190.656 183.843 190.656C183.177 190.656 182.563 190.81 182.003 191.116C181.457 191.41 181.017 191.863 180.683 192.476C180.35 193.09 180.183 193.836 180.183 194.716C180.183 195.61 180.343 196.363 180.663 196.976C180.997 197.59 181.437 198.05 181.983 198.356C182.53 198.65 183.13 198.796 183.783 198.796ZM197.136 189.056C198.47 189.056 199.55 189.463 200.376 190.276C201.203 191.076 201.616 192.236 201.616 193.756V200.216H199.816V194.016C199.816 192.923 199.543 192.09 198.996 191.516C198.45 190.93 197.703 190.636 196.756 190.636C195.796 190.636 195.03 190.936 194.456 191.536C193.896 192.136 193.616 193.01 193.616 194.156V200.216H191.796V189.256H193.616V190.816C193.976 190.256 194.463 189.823 195.076 189.516C195.703 189.21 196.39 189.056 197.136 189.056ZM212.141 190.756V197.216C212.141 197.75 212.255 198.13 212.481 198.356C212.708 198.57 213.101 198.676 213.661 198.676H215.001V200.216H213.361C212.348 200.216 211.588 199.983 211.081 199.516C210.575 199.05 210.321 198.283 210.321 197.216V190.756H208.901V189.256H210.321V186.496H212.141V189.256H215.001V190.756H212.141ZM222.647 189.056C223.473 189.056 224.22 189.236 224.887 189.596C225.553 189.943 226.073 190.47 226.447 191.176C226.833 191.883 227.027 192.743 227.027 193.756V200.216H225.227V194.016C225.227 192.923 224.953 192.09 224.407 191.516C223.86 190.93 223.113 190.636 222.167 190.636C221.207 190.636 220.44 190.936 219.867 191.536C219.307 192.136 219.027 193.01 219.027 194.156V200.216H217.207V185.416H219.027V190.816C219.387 190.256 219.88 189.823 220.507 189.516C221.147 189.21 221.86 189.056 222.647 189.056ZM239.999 194.316C239.999 194.663 239.979 195.03 239.939 195.416H231.179C231.246 196.496 231.613 197.343 232.279 197.956C232.959 198.556 233.779 198.856 234.739 198.856C235.526 198.856 236.179 198.676 236.699 198.316C237.233 197.943 237.606 197.45 237.819 196.836H239.779C239.486 197.89 238.899 198.75 238.019 199.416C237.139 200.07 236.046 200.396 234.739 200.396C233.699 200.396 232.766 200.163 231.939 199.696C231.126 199.23 230.486 198.57 230.019 197.716C229.553 196.85 229.319 195.85 229.319 194.716C229.319 193.583 229.546 192.59 229.999 191.736C230.453 190.883 231.086 190.23 231.899 189.776C232.726 189.31 233.673 189.076 234.739 189.076C235.779 189.076 236.699 189.303 237.499 189.756C238.299 190.21 238.913 190.836 239.339 191.636C239.779 192.423 239.999 193.316 239.999 194.316ZM238.119 193.936C238.119 193.243 237.966 192.65 237.659 192.156C237.353 191.65 236.933 191.27 236.399 191.016C235.879 190.75 235.299 190.616 234.659 190.616C233.739 190.616 232.953 190.91 232.299 191.496C231.659 192.083 231.293 192.896 231.199 193.936H238.119ZM12.464 224.696C12.464 223.576 12.6907 222.596 13.144 221.756C13.5973 220.903 14.2173 220.243 15.004 219.776C15.804 219.31 16.6973 219.076 17.684 219.076C18.5373 219.076 19.3307 219.276 20.064 219.676C20.7973 220.063 21.3573 220.576 21.744 221.216V215.416H23.584V230.216H21.744V228.156C21.384 228.81 20.8507 229.35 20.144 229.776C19.4373 230.19 18.6107 230.396 17.664 230.396C16.6907 230.396 15.804 230.156 15.004 229.676C14.2173 229.196 13.5973 228.523 13.144 227.656C12.6907 226.79 12.464 225.803 12.464 224.696ZM21.744 224.716C21.744 223.89 21.5773 223.17 21.244 222.556C20.9107 221.943 20.4573 221.476 19.884 221.156C19.324 220.823 18.704 220.656 18.024 220.656C17.344 220.656 16.724 220.816 16.164 221.136C15.604 221.456 15.1573 221.923 14.824 222.536C14.4907 223.15 14.324 223.87 14.324 224.696C14.324 225.536 14.4907 226.27 14.824 226.896C15.1573 227.51 15.604 227.983 16.164 228.316C16.724 228.636 17.344 228.796 18.024 228.796C18.704 228.796 19.324 228.636 19.884 228.316C20.4573 227.983 20.9107 227.51 21.244 226.896C21.5773 226.27 21.744 225.543 21.744 224.716ZM36.6596 224.316C36.6596 224.663 36.6396 225.03 36.5996 225.416H27.8396C27.9063 226.496 28.273 227.343 28.9396 227.956C29.6196 228.556 30.4396 228.856 31.3996 228.856C32.1863 228.856 32.8396 228.676 33.3596 228.316C33.893 227.943 34.2663 227.45 34.4796 226.836H36.4396C36.1463 227.89 35.5596 228.75 34.6796 229.416C33.7996 230.07 32.7063 230.396 31.3996 230.396C30.3596 230.396 29.4263 230.163 28.5996 229.696C27.7863 229.23 27.1463 228.57 26.6796 227.716C26.213 226.85 25.9796 225.85 25.9796 224.716C25.9796 223.583 26.2063 222.59 26.6596 221.736C27.113 220.883 27.7463 220.23 28.5596 219.776C29.3863 219.31 30.333 219.076 31.3996 219.076C32.4396 219.076 33.3596 219.303 34.1596 219.756C34.9596 220.21 35.573 220.836 35.9996 221.636C36.4396 222.423 36.6596 223.316 36.6596 224.316ZM34.7796 223.936C34.7796 223.243 34.6263 222.65 34.3196 222.156C34.013 221.65 33.593 221.27 33.0596 221.016C32.5396 220.75 31.9596 220.616 31.3196 220.616C30.3996 220.616 29.613 220.91 28.9596 221.496C28.3196 222.083 27.953 222.896 27.8596 223.936H34.7796ZM43.142 228.536L46.542 219.256H48.482L44.182 230.216H42.062L37.762 219.256H39.722L43.142 228.536ZM51.2129 217.476C50.8662 217.476 50.5729 217.356 50.3329 217.116C50.0929 216.876 49.9729 216.583 49.9729 216.236C49.9729 215.89 50.0929 215.596 50.3329 215.356C50.5729 215.116 50.8662 214.996 51.2129 214.996C51.5462 214.996 51.8262 215.116 52.0529 215.356C52.2929 215.596 52.4129 215.89 52.4129 216.236C52.4129 216.583 52.2929 216.876 52.0529 217.116C51.8262 217.356 51.5462 217.476 51.2129 217.476ZM52.0929 219.256V230.216H50.2729V219.256H52.0929ZM54.5148 224.716C54.5148 223.583 54.7415 222.596 55.1948 221.756C55.6481 220.903 56.2748 220.243 57.0748 219.776C57.8881 219.31 58.8148 219.076 59.8548 219.076C61.2015 219.076 62.3081 219.403 63.1748 220.056C64.0548 220.71 64.6348 221.616 64.9148 222.776H62.9548C62.7681 222.11 62.4015 221.583 61.8548 221.196C61.3215 220.81 60.6548 220.616 59.8548 220.616C58.8148 220.616 57.9748 220.976 57.3348 221.696C56.6948 222.403 56.3748 223.41 56.3748 224.716C56.3748 226.036 56.6948 227.056 57.3348 227.776C57.9748 228.496 58.8148 228.856 59.8548 228.856C60.6548 228.856 61.3215 228.67 61.8548 228.296C62.3881 227.923 62.7548 227.39 62.9548 226.696H64.9148C64.6215 227.816 64.0348 228.716 63.1548 229.396C62.2748 230.063 61.1748 230.396 59.8548 230.396C58.8148 230.396 57.8881 230.163 57.0748 229.696C56.2748 229.23 55.6481 228.57 55.1948 227.716C54.7415 226.863 54.5148 225.863 54.5148 224.716ZM77.3432 224.316C77.3432 224.663 77.3232 225.03 77.2832 225.416H68.5232C68.5899 226.496 68.9566 227.343 69.6232 227.956C70.3032 228.556 71.1232 228.856 72.0832 228.856C72.8699 228.856 73.5232 228.676 74.0432 228.316C74.5766 227.943 74.9499 227.45 75.1632 226.836H77.1232C76.8299 227.89 76.2432 228.75 75.3632 229.416C74.4832 230.07 73.3899 230.396 72.0832 230.396C71.0432 230.396 70.1099 230.163 69.2832 229.696C68.4699 229.23 67.8299 228.57 67.3632 227.716C66.8966 226.85 66.6632 225.85 66.6632 224.716C66.6632 223.583 66.8899 222.59 67.3432 221.736C67.7966 220.883 68.4299 220.23 69.2432 219.776C70.0699 219.31 71.0166 219.076 72.0832 219.076C73.1232 219.076 74.0432 219.303 74.8432 219.756C75.6432 220.21 76.2566 220.836 76.6832 221.636C77.1232 222.423 77.3432 223.316 77.3432 224.316ZM75.4632 223.936C75.4632 223.243 75.3099 222.65 75.0032 222.156C74.6966 221.65 74.2766 221.27 73.7432 221.016C73.2232 220.75 72.6432 220.616 72.0032 220.616C71.0832 220.616 70.2966 220.91 69.6432 221.496C69.0032 222.083 68.6366 222.896 68.5432 223.936H75.4632ZM80.0256 216.276H82.0456L80.1256 220.816H78.8456L80.0256 216.276ZM88.0006 230.396C87.1606 230.396 86.4072 230.256 85.7406 229.976C85.0739 229.683 84.5472 229.283 84.1606 228.776C83.7739 228.256 83.5606 227.663 83.5206 226.996H85.4006C85.4539 227.543 85.7072 227.99 86.1606 228.336C86.6272 228.683 87.2339 228.856 87.9806 228.856C88.6739 228.856 89.2206 228.703 89.6206 228.396C90.0206 228.09 90.2206 227.703 90.2206 227.236C90.2206 226.756 90.0072 226.403 89.5806 226.176C89.1539 225.936 88.4939 225.703 87.6006 225.476C86.7872 225.263 86.1206 225.05 85.6006 224.836C85.0939 224.61 84.6539 224.283 84.2806 223.856C83.9206 223.416 83.7406 222.843 83.7406 222.136C83.7406 221.576 83.9072 221.063 84.2406 220.596C84.5739 220.13 85.0472 219.763 85.6606 219.496C86.2739 219.216 86.9739 219.076 87.7606 219.076C88.9739 219.076 89.9539 219.383 90.7006 219.996C91.4472 220.61 91.8472 221.45 91.9006 222.516H90.0806C90.0406 221.943 89.8072 221.483 89.3806 221.136C88.9672 220.79 88.4072 220.616 87.7006 220.616C87.0472 220.616 86.5272 220.756 86.1406 221.036C85.7539 221.316 85.5606 221.683 85.5606 222.136C85.5606 222.496 85.6739 222.796 85.9006 223.036C86.1406 223.263 86.4339 223.45 86.7806 223.596C87.1406 223.73 87.6339 223.883 88.2606 224.056C89.0472 224.27 89.6872 224.483 90.1806 224.696C90.6739 224.896 91.0939 225.203 91.4406 225.616C91.8006 226.03 91.9872 226.57 92.0006 227.236C92.0006 227.836 91.8339 228.376 91.5006 228.856C91.1672 229.336 90.6939 229.716 90.0806 229.996C89.4806 230.263 88.7872 230.396 88.0006 230.396ZM103.782 230.396C102.942 230.396 102.188 230.256 101.522 229.976C100.855 229.683 100.328 229.283 99.9418 228.776C99.5551 228.256 99.3418 227.663 99.3018 226.996H101.182C101.235 227.543 101.488 227.99 101.942 228.336C102.408 228.683 103.015 228.856 103.762 228.856C104.455 228.856 105.002 228.703 105.402 228.396C105.802 228.09 106.002 227.703 106.002 227.236C106.002 226.756 105.788 226.403 105.362 226.176C104.935 225.936 104.275 225.703 103.382 225.476C102.568 225.263 101.902 225.05 101.382 224.836C100.875 224.61 100.435 224.283 100.062 223.856C99.7018 223.416 99.5218 222.843 99.5218 222.136C99.5218 221.576 99.6885 221.063 100.022 220.596C100.355 220.13 100.828 219.763 101.442 219.496C102.055 219.216 102.755 219.076 103.542 219.076C104.755 219.076 105.735 219.383 106.482 219.996C107.228 220.61 107.628 221.45 107.682 222.516H105.862C105.822 221.943 105.588 221.483 105.162 221.136C104.748 220.79 104.188 220.616 103.482 220.616C102.828 220.616 102.308 220.756 101.922 221.036C101.535 221.316 101.342 221.683 101.342 222.136C101.342 222.496 101.455 222.796 101.682 223.036C101.922 223.263 102.215 223.45 102.562 223.596C102.922 223.73 103.415 223.883 104.042 224.056C104.828 224.27 105.468 224.483 105.962 224.696C106.455 224.896 106.875 225.203 107.222 225.616C107.582 226.03 107.768 226.57 107.782 227.236C107.782 227.836 107.615 228.376 107.282 228.856C106.948 229.336 106.475 229.716 105.862 229.996C105.262 230.263 104.568 230.396 103.782 230.396ZM120.071 219.256V230.216H118.251V228.596C117.904 229.156 117.418 229.596 116.791 229.916C116.178 230.223 115.498 230.376 114.751 230.376C113.898 230.376 113.131 230.203 112.451 229.856C111.771 229.496 111.231 228.963 110.831 228.256C110.444 227.55 110.251 226.69 110.251 225.676V219.256H112.051V225.436C112.051 226.516 112.324 227.35 112.871 227.936C113.418 228.51 114.164 228.796 115.111 228.796C116.084 228.796 116.851 228.496 117.411 227.896C117.971 227.296 118.251 226.423 118.251 225.276V219.256H120.071ZM124.964 221.036C125.284 220.41 125.737 219.923 126.324 219.576C126.924 219.23 127.651 219.056 128.504 219.056V220.936H128.024C125.984 220.936 124.964 222.043 124.964 224.256V230.216H123.144V219.256H124.964V221.036ZM135.065 220.756H132.765V230.216H130.945V220.756H129.525V219.256H130.945V218.476C130.945 217.25 131.258 216.356 131.885 215.796C132.525 215.223 133.545 214.936 134.945 214.936V216.456C134.145 216.456 133.578 216.616 133.245 216.936C132.925 217.243 132.765 217.756 132.765 218.476V219.256H135.065V220.756ZM136.507 224.696C136.507 223.576 136.734 222.596 137.187 221.756C137.64 220.903 138.26 220.243 139.047 219.776C139.847 219.31 140.734 219.076 141.707 219.076C142.667 219.076 143.5 219.283 144.207 219.696C144.914 220.11 145.44 220.63 145.787 221.256V219.256H147.627V230.216H145.787V228.176C145.427 228.816 144.887 229.35 144.167 229.776C143.46 230.19 142.634 230.396 141.687 230.396C140.714 230.396 139.834 230.156 139.047 229.676C138.26 229.196 137.64 228.523 137.187 227.656C136.734 226.79 136.507 225.803 136.507 224.696ZM145.787 224.716C145.787 223.89 145.62 223.17 145.287 222.556C144.954 221.943 144.5 221.476 143.927 221.156C143.367 220.823 142.747 220.656 142.067 220.656C141.387 220.656 140.767 220.816 140.207 221.136C139.647 221.456 139.2 221.923 138.867 222.536C138.534 223.15 138.367 223.87 138.367 224.696C138.367 225.536 138.534 226.27 138.867 226.896C139.2 227.51 139.647 227.983 140.207 228.316C140.767 228.636 141.387 228.796 142.067 228.796C142.747 228.796 143.367 228.636 143.927 228.316C144.5 227.983 144.954 227.51 145.287 226.896C145.62 226.27 145.787 225.543 145.787 224.716ZM150.023 224.716C150.023 223.583 150.249 222.596 150.703 221.756C151.156 220.903 151.783 220.243 152.583 219.776C153.396 219.31 154.323 219.076 155.363 219.076C156.709 219.076 157.816 219.403 158.683 220.056C159.563 220.71 160.143 221.616 160.423 222.776H158.463C158.276 222.11 157.909 221.583 157.363 221.196C156.829 220.81 156.163 220.616 155.363 220.616C154.323 220.616 153.483 220.976 152.843 221.696C152.203 222.403 151.883 223.41 151.883 224.716C151.883 226.036 152.203 227.056 152.843 227.776C153.483 228.496 154.323 228.856 155.363 228.856C156.163 228.856 156.829 228.67 157.363 228.296C157.896 227.923 158.263 227.39 158.463 226.696H160.423C160.129 227.816 159.543 228.716 158.663 229.396C157.783 230.063 156.683 230.396 155.363 230.396C154.323 230.396 153.396 230.163 152.583 229.696C151.783 229.23 151.156 228.57 150.703 227.716C150.249 226.863 150.023 225.863 150.023 224.716ZM172.851 224.316C172.851 224.663 172.831 225.03 172.791 225.416H164.031C164.098 226.496 164.464 227.343 165.131 227.956C165.811 228.556 166.631 228.856 167.591 228.856C168.378 228.856 169.031 228.676 169.551 228.316C170.084 227.943 170.458 227.45 170.671 226.836H172.631C172.338 227.89 171.751 228.75 170.871 229.416C169.991 230.07 168.898 230.396 167.591 230.396C166.551 230.396 165.618 230.163 164.791 229.696C163.978 229.23 163.338 228.57 162.871 227.716C162.404 226.85 162.171 225.85 162.171 224.716C162.171 223.583 162.398 222.59 162.851 221.736C163.304 220.883 163.938 220.23 164.751 219.776C165.578 219.31 166.524 219.076 167.591 219.076C168.631 219.076 169.551 219.303 170.351 219.756C171.151 220.21 171.764 220.836 172.191 221.636C172.631 222.423 172.851 223.316 172.851 224.316ZM170.971 223.936C170.971 223.243 170.818 222.65 170.511 222.156C170.204 221.65 169.784 221.27 169.251 221.016C168.731 220.75 168.151 220.616 167.511 220.616C166.591 220.616 165.804 220.91 165.151 221.496C164.511 222.083 164.144 222.896 164.051 223.936H170.971ZM175.833 230.336C175.487 230.336 175.193 230.216 174.953 229.976C174.713 229.736 174.593 229.443 174.593 229.096C174.593 228.75 174.713 228.456 174.953 228.216C175.193 227.976 175.487 227.856 175.833 227.856C176.167 227.856 176.447 227.976 176.673 228.216C176.913 228.456 177.033 228.75 177.033 229.096C177.033 229.443 176.913 229.736 176.673 229.976C176.447 230.216 176.167 230.336 175.833 230.336Z" fill="#20023A"/>
<path d="M24.32 87.1599C24.32 87.9812 24.122 88.7512 23.726 89.4699C23.3447 90.1886 22.736 90.7679 21.9 91.2079C21.0787 91.6479 20.0373 91.8679 18.776 91.8679H16.202V97.7639H13.122V82.4079H18.776C19.964 82.4079 20.976 82.6132 21.812 83.0239C22.648 83.4346 23.2713 83.9992 23.682 84.7179C24.1073 85.4366 24.32 86.2506 24.32 87.1599ZM18.644 89.3819C19.4947 89.3819 20.1253 89.1912 20.536 88.8099C20.9467 88.4139 21.152 87.8639 21.152 87.1599C21.152 85.6639 20.316 84.9159 18.644 84.9159H16.202V89.3819H18.644ZM38.0128 85.5759V97.7639H34.9108V96.2239C34.5148 96.7519 33.9941 97.1699 33.3488 97.4779C32.7181 97.7712 32.0288 97.9179 31.2808 97.9179C30.3274 97.9179 29.4841 97.7199 28.7508 97.3239C28.0174 96.9132 27.4381 96.3192 27.0128 95.5419C26.6021 94.7499 26.3968 93.8112 26.3968 92.7259V85.5759H29.4768V92.2859C29.4768 93.2539 29.7188 94.0019 30.2028 94.5299C30.6868 95.0432 31.3468 95.2999 32.1828 95.2999C33.0334 95.2999 33.7008 95.0432 34.1848 94.5299C34.6688 94.0019 34.9108 93.2539 34.9108 92.2859V85.5759H38.0128ZM44.1317 81.4839V97.7639H41.0517V81.4839H44.1317ZM50.2547 81.4839V97.7639H47.1747V81.4839H50.2547ZM56.6638 94.5299L54.0898 100.712H52.1098L53.5398 94.5299H56.6638ZM75.3239 87.1599C75.3239 87.9812 75.1259 88.7512 74.7299 89.4699C74.3486 90.1886 73.7399 90.7679 72.9039 91.2079C72.0826 91.6479 71.0412 91.8679 69.7799 91.8679H67.2059V97.7639H64.1259V82.4079H69.7799C70.9679 82.4079 71.9799 82.6132 72.8159 83.0239C73.6519 83.4346 74.2752 83.9992 74.6859 84.7179C75.1112 85.4366 75.3239 86.2506 75.3239 87.1599ZM69.6479 89.3819C70.4986 89.3819 71.1292 89.1912 71.5399 88.8099C71.9506 88.4139 72.1559 87.8639 72.1559 87.1599C72.1559 85.6639 71.3199 84.9159 69.6479 84.9159H67.2059V89.3819H69.6479ZM80.5907 81.4839V97.7639H77.5107V81.4839H80.5907ZM95.1397 85.5759V97.7639H92.0377V96.2239C91.6417 96.7519 91.1211 97.1699 90.4757 97.4779C89.8451 97.7712 89.1557 97.9179 88.4077 97.9179C87.4544 97.9179 86.6111 97.7199 85.8777 97.3239C85.1444 96.9132 84.5651 96.3192 84.1397 95.5419C83.7291 94.7499 83.5237 93.8112 83.5237 92.7259V85.5759H86.6037V92.2859C86.6037 93.2539 86.8457 94.0019 87.3297 94.5299C87.8137 95.0432 88.4737 95.2999 89.3097 95.2999C90.1604 95.2999 90.8277 95.0432 91.3117 94.5299C91.7957 94.0019 92.0377 93.2539 92.0377 92.2859V85.5759H95.1397ZM102.953 85.3779C103.862 85.3779 104.661 85.5612 105.351 85.9279C106.04 86.2799 106.583 86.7419 106.979 87.3139V85.5759H110.081V97.8519C110.081 98.9812 109.853 99.9859 109.399 100.866C108.944 101.761 108.262 102.465 107.353 102.978C106.443 103.506 105.343 103.77 104.053 103.77C102.322 103.77 100.899 103.367 99.7846 102.56C98.6846 101.753 98.0613 100.653 97.9146 99.2599H100.973C101.134 99.8172 101.479 100.257 102.007 100.58C102.549 100.917 103.202 101.086 103.965 101.086C104.859 101.086 105.585 100.815 106.143 100.272C106.7 99.7439 106.979 98.9372 106.979 97.8519V95.9599C106.583 96.5319 106.033 97.0086 105.329 97.3899C104.639 97.7712 103.847 97.9619 102.953 97.9619C101.926 97.9619 100.987 97.6979 100.137 97.1699C99.286 96.6419 98.6113 95.9012 98.1126 94.9479C97.6286 93.9799 97.3866 92.8726 97.3866 91.6259C97.3866 90.3939 97.6286 89.3012 98.1126 88.3479C98.6113 87.3946 99.2786 86.6612 100.115 86.1479C100.965 85.6346 101.911 85.3779 102.953 85.3779ZM106.979 91.6699C106.979 90.9219 106.832 90.2839 106.539 89.7559C106.245 89.2132 105.849 88.8026 105.351 88.5239C104.852 88.2306 104.317 88.0839 103.745 88.0839C103.173 88.0839 102.645 88.2232 102.161 88.5019C101.677 88.7806 101.281 89.1912 100.973 89.7339C100.679 90.2619 100.533 90.8926 100.533 91.6259C100.533 92.3592 100.679 93.0046 100.973 93.5619C101.281 94.1046 101.677 94.5226 102.161 94.8159C102.659 95.1092 103.187 95.2559 103.745 95.2559C104.317 95.2559 104.852 95.1166 105.351 94.8379C105.849 94.5446 106.245 94.1339 106.539 93.6059C106.832 93.0632 106.979 92.4179 106.979 91.6699ZM117.539 91.6259C117.539 90.3939 117.781 89.3012 118.265 88.3479C118.764 87.3946 119.431 86.6612 120.267 86.1479C121.118 85.6346 122.064 85.3779 123.105 85.3779C124.014 85.3779 124.806 85.5612 125.481 85.9279C126.17 86.2946 126.72 86.7566 127.131 87.3139V85.5759H130.233V97.7639H127.131V95.9819C126.735 96.5539 126.185 97.0306 125.481 97.4119C124.792 97.7786 123.992 97.9619 123.083 97.9619C122.056 97.9619 121.118 97.6979 120.267 97.1699C119.431 96.6419 118.764 95.9012 118.265 94.9479C117.781 93.9799 117.539 92.8726 117.539 91.6259ZM127.131 91.6699C127.131 90.9219 126.984 90.2839 126.691 89.7559C126.398 89.2132 126.002 88.8026 125.503 88.5239C125.004 88.2306 124.469 88.0839 123.897 88.0839C123.325 88.0839 122.797 88.2232 122.313 88.5019C121.829 88.7806 121.433 89.1912 121.125 89.7339C120.832 90.2619 120.685 90.8926 120.685 91.6259C120.685 92.3592 120.832 93.0046 121.125 93.5619C121.433 94.1046 121.829 94.5226 122.313 94.8159C122.812 95.1092 123.34 95.2559 123.897 95.2559C124.469 95.2559 125.004 95.1166 125.503 94.8379C126.002 94.5446 126.398 94.1339 126.691 93.6059C126.984 93.0632 127.131 92.4179 127.131 91.6699ZM139.995 85.3999C141.447 85.3999 142.62 85.8619 143.515 86.7859C144.41 87.6952 144.857 88.9712 144.857 90.6139V97.7639H141.777V91.0319C141.777 90.0639 141.535 89.3232 141.051 88.8099C140.567 88.2819 139.907 88.0179 139.071 88.0179C138.22 88.0179 137.546 88.2819 137.047 88.8099C136.563 89.3232 136.321 90.0639 136.321 91.0319V97.7639H133.241V85.5759H136.321V87.0939C136.732 86.5659 137.252 86.1552 137.883 85.8619C138.528 85.5539 139.232 85.3999 139.995 85.3999ZM146.994 91.6259C146.994 90.3939 147.236 89.3012 147.72 88.3479C148.219 87.3946 148.893 86.6612 149.744 86.1479C150.595 85.6346 151.541 85.3779 152.582 85.3779C153.374 85.3779 154.129 85.5539 154.848 85.9059C155.567 86.2432 156.139 86.6979 156.564 87.2699V81.4839H159.688V97.7639H156.564V95.9599C156.183 96.5612 155.647 97.0452 154.958 97.4119C154.269 97.7786 153.469 97.9619 152.56 97.9619C151.533 97.9619 150.595 97.6979 149.744 97.1699C148.893 96.6419 148.219 95.9012 147.72 94.9479C147.236 93.9799 146.994 92.8726 146.994 91.6259ZM156.586 91.6699C156.586 90.9219 156.439 90.2839 156.146 89.7559C155.853 89.2132 155.457 88.8026 154.958 88.5239C154.459 88.2306 153.924 88.0839 153.352 88.0839C152.78 88.0839 152.252 88.2232 151.768 88.5019C151.284 88.7806 150.888 89.1912 150.58 89.7339C150.287 90.2619 150.14 90.8926 150.14 91.6259C150.14 92.3592 150.287 93.0046 150.58 93.5619C150.888 94.1046 151.284 94.5226 151.768 94.8159C152.267 95.1092 152.795 95.2559 153.352 95.2559C153.924 95.2559 154.459 95.1166 154.958 94.8379C155.457 94.5446 155.853 94.1339 156.146 93.6059C156.439 93.0632 156.586 92.4179 156.586 91.6699ZM179.136 87.1599C179.136 87.9812 178.938 88.7512 178.542 89.4699C178.161 90.1886 177.552 90.7679 176.716 91.2079C175.895 91.6479 174.854 91.8679 173.592 91.8679H171.018V97.7639H167.938V82.4079H173.592C174.78 82.4079 175.792 82.6132 176.628 83.0239C177.464 83.4346 178.088 83.9992 178.498 84.7179C178.924 85.4366 179.136 86.2506 179.136 87.1599ZM173.46 89.3819C174.311 89.3819 174.942 89.1912 175.352 88.8099C175.763 88.4139 175.968 87.8639 175.968 87.1599C175.968 85.6639 175.132 84.9159 173.46 84.9159H171.018V89.3819H173.46ZM184.403 81.4839V97.7639H181.323V81.4839H184.403ZM186.654 91.6259C186.654 90.3939 186.896 89.3012 187.38 88.3479C187.879 87.3946 188.546 86.6612 189.382 86.1479C190.233 85.6346 191.179 85.3779 192.22 85.3779C193.13 85.3779 193.922 85.5612 194.596 85.9279C195.286 86.2946 195.836 86.7566 196.246 87.3139V85.5759H199.348V97.7639H196.246V95.9819C195.85 96.5539 195.3 97.0306 194.596 97.4119C193.907 97.7786 193.108 97.9619 192.198 97.9619C191.172 97.9619 190.233 97.6979 189.382 97.1699C188.546 96.6419 187.879 95.9012 187.38 94.9479C186.896 93.9799 186.654 92.8726 186.654 91.6259ZM196.246 91.6699C196.246 90.9219 196.1 90.2839 195.806 89.7559C195.513 89.2132 195.117 88.8026 194.618 88.5239C194.12 88.2306 193.584 88.0839 193.012 88.0839C192.44 88.0839 191.912 88.2232 191.428 88.5019C190.944 88.7806 190.548 89.1912 190.24 89.7339C189.947 90.2619 189.8 90.8926 189.8 91.6259C189.8 92.3592 189.947 93.0046 190.24 93.5619C190.548 94.1046 190.944 94.5226 191.428 94.8159C191.927 95.1092 192.455 95.2559 193.012 95.2559C193.584 95.2559 194.12 95.1166 194.618 94.8379C195.117 94.5446 195.513 94.1339 195.806 93.6059C196.1 93.0632 196.246 92.4179 196.246 91.6699ZM214.016 85.5759L206.47 103.528H203.192L205.832 97.4559L200.948 85.5759H204.402L207.548 94.0899L210.738 85.5759H214.016Z" fill="#20023A"/>
<path d="M14.49 1.0107C15.29 1.6807 15.4 2.8607 14.74 3.6607L7.48001 12.4007C18.55 12.2007 27.78 15.1607 34.97 21.2407C48.23 32.4707 49.69 50.1607 49.72 50.8907C49.8 51.9307 49.02 52.8307 47.98 52.9107C46.95 52.9907 46.03 52.2207 45.96 51.1707C45.92 51.0607 44.61 34.3607 32.53 24.1207C25.95 18.5507 17.35 15.9007 6.97001 16.2007L15.45 23.5607C16.23 24.2507 16.32 25.4307 15.64 26.2207C14.96 27.0007 13.77 27.0907 12.98 26.4107L1.57001 16.5107C1.19001 16.1807 0.970006 15.7307 0.930006 15.2607C0.890006 14.8707 1.01001 14.4807 1.22001 14.1307C1.34001 13.5707 1.70001 13.1107 2.21001 12.8607L11.85 1.2607C12.5 0.450701 13.7 0.340701 14.49 1.0107Z" fill="#FF9A25"/>
</svg>
