<svg width="205" height="113" viewBox="0 0 205 113" fill="none" xmlns="http://www.w3.org/2000/svg">
<path d="M2.28769 20.5577C2.45569 18.3497 3.30769 16.6217 4.84369 15.3737C6.37969 14.1257 8.37169 13.5017 10.8197 13.5017C12.4517 13.5017 13.8557 13.8017 15.0317 14.4017C16.2317 14.9777 17.1317 15.7697 17.7317 16.7777C18.3557 17.7857 18.6677 18.9257 18.6677 20.1977C18.6677 21.6857 18.2357 22.9697 17.3717 24.0497C16.5317 25.1297 15.4277 25.8257 14.0597 26.1377V26.3177C15.6197 26.7017 16.8557 27.4577 17.7677 28.5857C18.6797 29.7137 19.1357 31.1897 19.1357 33.0137C19.1357 34.3817 18.8237 35.6177 18.1997 36.7217C17.5757 37.8017 16.6397 38.6537 15.3917 39.2777C14.1437 39.9017 12.6437 40.2137 10.8917 40.2137C8.34769 40.2137 6.25969 39.5537 4.62769 38.2337C2.99569 36.8897 2.08369 34.9937 1.89169 32.5457H5.05969C5.22769 33.9857 5.81569 35.1617 6.82369 36.0737C7.83169 36.9857 9.17569 37.4417 10.8557 37.4417C12.5357 37.4417 13.8077 37.0097 14.6717 36.1457C15.5597 35.2577 16.0037 34.1177 16.0037 32.7257C16.0037 30.9257 15.4037 29.6297 14.2037 28.8377C13.0037 28.0457 11.1917 27.6497 8.76769 27.6497H7.93969V24.9137H8.80369C11.0117 24.8897 12.6797 24.5297 13.8077 23.8337C14.9357 23.1137 15.4997 22.0097 15.4997 20.5217C15.4997 19.2497 15.0797 18.2297 14.2397 17.4617C13.4237 16.6937 12.2477 16.3097 10.7117 16.3097C9.22369 16.3097 8.02369 16.6937 7.11169 17.4617C6.19969 18.2297 5.65969 19.2617 5.49169 20.5577H2.28769ZM25.1429 40.2497C24.5189 40.2497 23.9909 40.0337 23.5589 39.6017C23.1269 39.1697 22.9109 38.6417 22.9109 38.0177C22.9109 37.3937 23.1269 36.8657 23.5589 36.4337C23.9909 36.0017 24.5189 35.7857 25.1429 35.7857C25.7429 35.7857 26.2469 36.0017 26.6549 36.4337C27.0869 36.8657 27.3029 37.3937 27.3029 38.0177C27.3029 38.6417 27.0869 39.1697 26.6549 39.6017C26.2469 40.0337 25.7429 40.2497 25.1429 40.2497ZM35.8695 26.4977C34.5255 25.9697 33.4935 25.2017 32.7735 24.1937C32.0535 23.1857 31.6935 21.9617 31.6935 20.5217C31.6935 19.2257 32.0175 18.0617 32.6655 17.0297C33.3135 15.9737 34.2735 15.1457 35.5455 14.5457C36.8415 13.9217 38.4015 13.6097 40.2255 13.6097C42.0495 13.6097 43.5975 13.9217 44.8695 14.5457C46.1655 15.1457 47.1375 15.9737 47.7855 17.0297C48.4575 18.0617 48.7935 19.2257 48.7935 20.5217C48.7935 21.9137 48.4215 23.1377 47.6775 24.1937C46.9335 25.2257 45.9135 25.9937 44.6175 26.4977C46.1055 26.9537 47.2815 27.7577 48.1455 28.9097C49.0335 30.0377 49.4775 31.4057 49.4775 33.0137C49.4775 34.5737 49.0935 35.9417 48.3255 37.1177C47.5575 38.2697 46.4655 39.1697 45.0495 39.8177C43.6575 40.4417 42.0495 40.7537 40.2255 40.7537C38.4015 40.7537 36.7935 40.4417 35.4015 39.8177C34.0335 39.1697 32.9655 38.2697 32.1975 37.1177C31.4295 35.9417 31.0455 34.5737 31.0455 33.0137C31.0455 31.4057 31.4775 30.0257 32.3415 28.8737C33.2055 27.7217 34.3815 26.9297 35.8695 26.4977ZM45.6255 20.9177C45.6255 19.4537 45.1455 18.3257 44.1855 17.5337C43.2255 16.7417 41.9055 16.3457 40.2255 16.3457C38.5695 16.3457 37.2615 16.7417 36.3015 17.5337C35.3415 18.3257 34.8615 19.4657 34.8615 20.9537C34.8615 22.2977 35.3535 23.3777 36.3375 24.1937C37.3455 25.0097 38.6415 25.4177 40.2255 25.4177C41.8335 25.4177 43.1295 25.0097 44.1135 24.1937C45.1215 23.3537 45.6255 22.2617 45.6255 20.9177ZM40.2255 27.9377C38.4495 27.9377 36.9975 28.3577 35.8695 29.1977C34.7415 30.0137 34.1775 31.2497 34.1775 32.9057C34.1775 34.4417 34.7175 35.6777 35.7975 36.6137C36.9015 37.5497 38.3775 38.0177 40.2255 38.0177C42.0735 38.0177 43.5375 37.5497 44.6175 36.6137C45.6975 35.6777 46.2375 34.4417 46.2375 32.9057C46.2375 31.2977 45.6855 30.0737 44.5815 29.2337C43.4775 28.3697 42.0255 27.9377 40.2255 27.9377ZM78.0924 19.9457C79.6284 19.9457 80.9964 20.2697 82.1964 20.9177C83.3964 21.5417 84.3444 22.4897 85.0404 23.7617C85.7364 25.0337 86.0844 26.5817 86.0844 28.4057V40.0337H82.8444V28.8737C82.8444 26.9057 82.3524 25.4057 81.3684 24.3737C80.4084 23.3177 79.1004 22.7897 77.4444 22.7897C75.7404 22.7897 74.3844 23.3417 73.3764 24.4457C72.3684 25.5257 71.8644 27.0977 71.8644 29.1617V40.0337H68.6244V28.8737C68.6244 26.9057 68.1324 25.4057 67.1484 24.3737C66.1884 23.3177 64.8804 22.7897 63.2244 22.7897C61.5204 22.7897 60.1644 23.3417 59.1564 24.4457C58.1484 25.5257 57.6444 27.0977 57.6444 29.1617V40.0337H54.3684V20.3057H57.6444V23.1497C58.2924 22.1177 59.1564 21.3257 60.2364 20.7737C61.3404 20.2217 62.5524 19.9457 63.8724 19.9457C65.5284 19.9457 66.9924 20.3177 68.2644 21.0617C69.5364 21.8057 70.4844 22.8977 71.1084 24.3377C71.6604 22.9457 72.5724 21.8657 73.8444 21.0977C75.1164 20.3297 76.5324 19.9457 78.0924 19.9457ZM115.182 19.9457C116.718 19.9457 118.086 20.2697 119.286 20.9177C120.486 21.5417 121.434 22.4897 122.13 23.7617C122.826 25.0337 123.174 26.5817 123.174 28.4057V40.0337H119.934V28.8737C119.934 26.9057 119.442 25.4057 118.458 24.3737C117.498 23.3177 116.19 22.7897 114.534 22.7897C112.83 22.7897 111.474 23.3417 110.466 24.4457C109.458 25.5257 108.954 27.0977 108.954 29.1617V40.0337H105.714V28.8737C105.714 26.9057 105.222 25.4057 104.238 24.3737C103.278 23.3177 101.97 22.7897 100.314 22.7897C98.6103 22.7897 97.2543 23.3417 96.2463 24.4457C95.2383 25.5257 94.7343 27.0977 94.7343 29.1617V40.0337H91.4583V20.3057H94.7343V23.1497C95.3823 22.1177 96.2463 21.3257 97.3263 20.7737C98.4303 20.2217 99.6423 19.9457 100.962 19.9457C102.618 19.9457 104.082 20.3177 105.354 21.0617C106.626 21.8057 107.574 22.8977 108.198 24.3377C108.75 22.9457 109.662 21.8657 110.934 21.0977C112.206 20.3297 113.622 19.9457 115.182 19.9457ZM142.142 23.0057V34.6337C142.142 35.5937 142.346 36.2777 142.754 36.6857C143.162 37.0697 143.87 37.2617 144.878 37.2617H147.29V40.0337H144.338C142.514 40.0337 141.146 39.6137 140.234 38.7737C139.322 37.9337 138.866 36.5537 138.866 34.6337V23.0057H136.31V20.3057H138.866V15.3377H142.142V20.3057H147.29V23.0057H142.142ZM161.051 19.9457C162.539 19.9457 163.883 20.2697 165.083 20.9177C166.283 21.5417 167.219 22.4897 167.891 23.7617C168.587 25.0337 168.935 26.5817 168.935 28.4057V40.0337H165.695V28.8737C165.695 26.9057 165.203 25.4057 164.219 24.3737C163.235 23.3177 161.891 22.7897 160.187 22.7897C158.459 22.7897 157.079 23.3297 156.047 24.4097C155.039 25.4897 154.535 27.0617 154.535 29.1257V40.0337H151.259V13.3937H154.535V23.1137C155.183 22.1057 156.071 21.3257 157.199 20.7737C158.351 20.2217 159.635 19.9457 161.051 19.9457ZM175.978 17.1017C175.354 17.1017 174.826 16.8857 174.394 16.4537C173.962 16.0217 173.746 15.4937 173.746 14.8697C173.746 14.2457 173.962 13.7177 174.394 13.2857C174.826 12.8537 175.354 12.6377 175.978 12.6377C176.578 12.6377 177.082 12.8537 177.49 13.2857C177.922 13.7177 178.138 14.2457 178.138 14.8697C178.138 15.4937 177.922 16.0217 177.49 16.4537C177.082 16.8857 176.578 17.1017 175.978 17.1017ZM177.562 20.3057V40.0337H174.286V20.3057H177.562ZM192.758 19.9457C195.158 19.9457 197.102 20.6777 198.59 22.1417C200.078 23.5817 200.822 25.6697 200.822 28.4057V40.0337H197.582V28.8737C197.582 26.9057 197.09 25.4057 196.106 24.3737C195.122 23.3177 193.778 22.7897 192.074 22.7897C190.346 22.7897 188.966 23.3297 187.934 24.4097C186.926 25.4897 186.422 27.0617 186.422 29.1257V40.0337H183.146V20.3057H186.422V23.1137C187.07 22.1057 187.946 21.3257 189.05 20.7737C190.178 20.2217 191.414 19.9457 192.758 19.9457Z" fill="#20023A"/>
<path d="M1.96369 96.2968C5.01169 93.8488 7.39969 91.8448 9.12769 90.2848C10.8557 88.7008 12.3077 87.0568 13.4837 85.3528C14.6837 83.6248 15.2837 81.9328 15.2837 80.2768C15.2837 78.7168 14.8997 77.4928 14.1317 76.6048C13.3877 75.6928 12.1757 75.2368 10.4957 75.2368C8.86369 75.2368 7.59169 75.7528 6.67969 76.7848C5.79169 77.7928 5.31169 79.1488 5.23969 80.8528H2.07169C2.16769 78.1648 2.98369 76.0888 4.51969 74.6248C6.05569 73.1608 8.03569 72.4288 10.4597 72.4288C12.9317 72.4288 14.8877 73.1128 16.3277 74.4808C17.7917 75.8488 18.5237 77.7328 18.5237 80.1328C18.5237 82.1248 17.9237 84.0688 16.7237 85.9648C15.5477 87.8368 14.2037 89.4928 12.6917 90.9328C11.1797 92.3488 9.24769 94.0048 6.89569 95.9008H19.2797V98.6368H1.96369V96.2968ZM39.0867 75.4528L29.0787 98.9248H25.7667L35.9187 75.7768H22.0227V72.9688H39.0867V75.4528ZM51.3951 78.8728C53.0991 78.8728 54.5871 79.2448 55.8591 79.9888C57.1551 80.7328 58.1151 81.6688 58.7391 82.7968V79.1968H62.0511V99.3568C62.0511 101.157 61.6671 102.753 60.8991 104.145C60.1311 105.561 59.0271 106.665 57.5871 107.457C56.1711 108.249 54.5151 108.645 52.6191 108.645C50.0271 108.645 47.8671 108.033 46.1391 106.809C44.4111 105.585 43.3911 103.917 43.0791 101.805H46.3191C46.6791 103.005 47.4231 103.965 48.5511 104.685C49.6791 105.429 51.0351 105.801 52.6191 105.801C54.4191 105.801 55.8831 105.237 57.0111 104.109C58.1631 102.981 58.7391 101.397 58.7391 99.3568V95.2168C58.0911 96.3688 57.1311 97.3288 55.8591 98.0968C54.5871 98.8648 53.0991 99.2488 51.3951 99.2488C49.6431 99.2488 48.0471 98.8168 46.6071 97.9528C45.1911 97.0888 44.0751 95.8768 43.2591 94.3168C42.4431 92.7568 42.0351 90.9808 42.0351 88.9888C42.0351 86.9728 42.4431 85.2088 43.2591 83.6968C44.0751 82.1608 45.1911 80.9728 46.6071 80.1328C48.0471 79.2928 49.6431 78.8728 51.3951 78.8728ZM58.7391 89.0248C58.7391 87.5368 58.4391 86.2408 57.8391 85.1368C57.2391 84.0328 56.4231 83.1928 55.3911 82.6168C54.3831 82.0168 53.2671 81.7168 52.0431 81.7168C50.8191 81.7168 49.7031 82.0048 48.6951 82.5808C47.6871 83.1568 46.8831 83.9968 46.2831 85.1008C45.6831 86.2048 45.3831 87.5008 45.3831 88.9888C45.3831 90.5008 45.6831 91.8208 46.2831 92.9488C46.8831 94.0528 47.6871 94.9048 48.6951 95.5048C49.7031 96.0808 50.8191 96.3688 52.0431 96.3688C53.2671 96.3688 54.3831 96.0808 55.3911 95.5048C56.4231 94.9048 57.2391 94.0528 57.8391 92.9488C58.4391 91.8208 58.7391 90.5128 58.7391 89.0248Z" fill="#20023A"/>
</svg>
