<svg width="277" height="280" viewBox="0 0 277 280" fill="none" xmlns="http://www.w3.org/2000/svg">
<path d="M15.7517 2.51314V46.2231H3.59969V2.51314H15.7517ZM43.194 35.8691V46.2231H37.924C29.0373 46.2231 24.594 41.8211 24.594 33.0171V21.5471H20.316V11.4411H24.594V3.00914H36.808V11.4411H43.132V21.5471H36.808V33.2031C36.808 34.1538 37.0146 34.8358 37.428 35.2491C37.8826 35.6625 38.6266 35.8691 39.66 35.8691H43.194ZM51.7437 2.51314H64.0197L56.8897 19.9971H48.7677L51.7437 2.51314ZM85.0192 46.6571C81.8779 46.6571 79.0672 46.1405 76.5872 45.1071C74.1486 44.0325 72.2059 42.5858 70.7592 40.7671C69.3539 38.9071 68.5686 36.8198 68.4032 34.5051H80.1832C80.3486 35.6211 80.8652 36.4891 81.7332 37.1091C82.6012 37.7291 83.6759 38.0391 84.9572 38.0391C85.9492 38.0391 86.7346 37.8325 87.3132 37.4191C87.8919 37.0058 88.1812 36.4685 88.1812 35.8071C88.1812 34.9391 87.7059 34.2985 86.7552 33.8851C85.8046 33.4718 84.2339 33.0171 82.0432 32.5211C79.5632 32.0251 77.4966 31.4671 75.8432 30.8471C74.1899 30.2271 72.7432 29.2145 71.5032 27.8091C70.3046 26.4038 69.7052 24.5025 69.7052 22.1051C69.7052 20.0385 70.2632 18.1785 71.3792 16.5251C72.4952 14.8305 74.1279 13.4871 76.2772 12.4951C78.4679 11.5031 81.0926 11.0071 84.1512 11.0071C88.6979 11.0071 92.2732 12.1231 94.8772 14.3551C97.4812 16.5871 98.9899 19.5218 99.4032 23.1591H88.4292C88.2226 22.0431 87.7266 21.1958 86.9412 20.6171C86.1972 19.9971 85.1846 19.6871 83.9032 19.6871C82.9112 19.6871 82.1466 19.8731 81.6092 20.2451C81.1132 20.6171 80.8652 21.1338 80.8652 21.7951C80.8652 22.6218 81.3406 23.2625 82.2912 23.7171C83.2419 24.1305 84.7712 24.5645 86.8792 25.0191C89.4006 25.5565 91.4879 26.1558 93.1412 26.8171C94.8359 27.4785 96.3032 28.5531 97.5432 30.0411C98.8246 31.4878 99.4652 33.4718 99.4652 35.9931C99.4652 38.0185 98.8659 39.8371 97.6672 41.4491C96.5099 43.0611 94.8359 44.3425 92.6452 45.2931C90.4959 46.2025 87.9539 46.6571 85.0192 46.6571ZM137.829 35.8691V46.2231H132.559C123.672 46.2231 119.229 41.8211 119.229 33.0171V21.5471H114.951V11.4411H119.229V3.00914H131.443V11.4411H137.767V21.5471H131.443V33.2031C131.443 34.1538 131.649 34.8358 132.063 35.2491C132.517 35.6625 133.261 35.8691 134.295 35.8691H137.829ZM166.28 11.1311C170.248 11.1311 173.39 12.4745 175.704 15.1611C178.06 17.8065 179.238 21.4025 179.238 25.9491V46.2231H167.086V27.5611C167.086 25.5771 166.57 24.0271 165.536 22.9111C164.503 21.7538 163.118 21.1751 161.382 21.1751C159.564 21.1751 158.138 21.7538 157.104 22.9111C156.071 24.0271 155.554 25.5771 155.554 27.5611V46.2231H143.402V0.343144H155.554V16.4011C156.629 14.8305 158.076 13.5698 159.894 12.6191C161.754 11.6271 163.883 11.1311 166.28 11.1311ZM219.138 28.4291C219.138 29.3798 219.076 30.3305 218.952 31.2811H195.95C196.074 33.1825 196.591 34.6085 197.5 35.5591C198.451 36.4685 199.65 36.9231 201.096 36.9231C203.122 36.9231 204.568 36.0138 205.436 34.1951H218.394C217.857 36.5925 216.803 38.7418 215.232 40.6431C213.703 42.5031 211.76 43.9705 209.404 45.0451C207.048 46.1198 204.444 46.6571 201.592 46.6571C198.162 46.6571 195.103 45.9338 192.416 44.4871C189.771 43.0405 187.684 40.9738 186.154 38.2871C184.666 35.6005 183.922 32.4385 183.922 28.8011C183.922 25.1638 184.666 22.0225 186.154 19.3771C187.642 16.6905 189.709 14.6238 192.354 13.1771C195.041 11.7305 198.12 11.0071 201.592 11.0071C205.023 11.0071 208.061 11.7098 210.706 13.1151C213.352 14.5205 215.418 16.5458 216.906 19.1911C218.394 21.7951 219.138 24.8745 219.138 28.4291ZM206.738 25.3911C206.738 23.9031 206.242 22.7458 205.25 21.9191C204.258 21.0511 203.018 20.6171 201.53 20.6171C200.042 20.6171 198.823 21.0305 197.872 21.8571C196.922 22.6425 196.302 23.8205 196.012 25.3911H206.738ZM54.9977 83.4411L46.1317 118.223H32.4917L27.6557 97.1431L22.6337 118.223H9.05569L0.251686 83.4411H12.3417L16.2477 106.505L21.3937 83.4411H34.4137L39.7457 106.567L43.5897 83.4411H54.9977ZM74.6372 118.657C71.1652 118.657 68.0445 117.934 65.2752 116.487C62.5472 115.04 60.3978 112.974 58.8272 110.287C57.2565 107.6 56.4712 104.438 56.4712 100.801C56.4712 97.2051 57.2565 94.0638 58.8272 91.3771C60.4392 88.6905 62.6092 86.6238 65.3372 85.1771C68.1065 83.7305 71.2272 83.0071 74.6992 83.0071C78.1712 83.0071 81.2712 83.7305 83.9992 85.1771C86.7685 86.6238 88.9385 88.6905 90.5092 91.3771C92.1212 94.0638 92.9272 97.2051 92.9272 100.801C92.9272 104.397 92.1212 107.559 90.5092 110.287C88.9385 112.974 86.7685 115.04 83.9992 116.487C81.2298 117.934 78.1092 118.657 74.6372 118.657ZM74.6372 108.117C76.3318 108.117 77.7372 107.497 78.8532 106.257C80.0105 104.976 80.5892 103.157 80.5892 100.801C80.5892 98.4451 80.0105 96.6471 78.8532 95.4071C77.7372 94.1671 76.3525 93.5471 74.6992 93.5471C73.0458 93.5471 71.6612 94.1671 70.5452 95.4071C69.4292 96.6471 68.8712 98.4451 68.8712 100.801C68.8712 103.198 69.4085 105.017 70.4832 106.257C71.5578 107.497 72.9425 108.117 74.6372 108.117ZM110.023 89.5791C111.387 87.5951 113.041 86.0245 114.983 84.8671C116.926 83.7098 119.013 83.1311 121.245 83.1311V96.0891H117.835C115.19 96.0891 113.227 96.6058 111.945 97.6391C110.664 98.6725 110.023 100.47 110.023 103.033V118.223H97.8712V83.4411H110.023V89.5791ZM137.754 72.3431V118.223H125.602V72.3431H137.754ZM142.69 100.801C142.69 97.2051 143.331 94.0638 144.612 91.3771C145.935 88.6905 147.733 86.6238 150.006 85.1771C152.279 83.7305 154.801 83.0071 157.57 83.0071C159.802 83.0071 161.786 83.4825 163.522 84.4331C165.299 85.3425 166.684 86.6031 167.676 88.2151V72.3431H179.89V118.223H167.676V113.387C166.725 114.999 165.382 116.28 163.646 117.231C161.91 118.182 159.864 118.657 157.508 118.657C154.739 118.657 152.217 117.934 149.944 116.487C147.712 115.04 145.935 112.974 144.612 110.287C143.331 107.559 142.69 104.397 142.69 100.801ZM167.738 100.801C167.738 98.5691 167.118 96.8125 165.878 95.5311C164.679 94.2498 163.191 93.6091 161.414 93.6091C159.595 93.6091 158.087 94.2498 156.888 95.5311C155.689 96.7711 155.09 98.5278 155.09 100.801C155.09 103.033 155.689 104.81 156.888 106.133C158.087 107.414 159.595 108.055 161.414 108.055C163.191 108.055 164.679 107.414 165.878 106.133C167.118 104.852 167.738 103.074 167.738 100.801ZM189.791 74.5131H202.067L194.937 91.9971H186.815L189.791 74.5131ZM223.066 118.657C219.925 118.657 217.114 118.14 214.634 117.107C212.195 116.032 210.253 114.586 208.806 112.767C207.401 110.907 206.615 108.82 206.45 106.505H218.23C218.395 107.621 218.912 108.489 219.78 109.109C220.648 109.729 221.723 110.039 223.004 110.039C223.996 110.039 224.781 109.832 225.36 109.419C225.939 109.006 226.228 108.468 226.228 107.807C226.228 106.939 225.753 106.298 224.802 105.885C223.851 105.472 222.281 105.017 220.09 104.521C217.61 104.025 215.543 103.467 213.89 102.847C212.237 102.227 210.79 101.214 209.55 99.8091C208.351 98.4038 207.752 96.5025 207.752 94.1051C207.752 92.0385 208.31 90.1785 209.426 88.5251C210.542 86.8305 212.175 85.4871 214.324 84.4951C216.515 83.5031 219.139 83.0071 222.198 83.0071C226.745 83.0071 230.32 84.1231 232.924 86.3551C235.528 88.5871 237.037 91.5218 237.45 95.1591H226.476C226.269 94.0431 225.773 93.1958 224.988 92.6171C224.244 91.9971 223.231 91.6871 221.95 91.6871C220.958 91.6871 220.193 91.8731 219.656 92.2451C219.16 92.6171 218.912 93.1338 218.912 93.7951C218.912 94.6218 219.387 95.2625 220.338 95.7171C221.289 96.1305 222.818 96.5645 224.926 97.0191C227.447 97.5565 229.535 98.1558 231.188 98.8171C232.883 99.4785 234.35 100.553 235.59 102.041C236.871 103.488 237.512 105.472 237.512 107.993C237.512 110.018 236.913 111.837 235.714 113.449C234.557 115.061 232.883 116.342 230.692 117.293C228.543 118.202 226.001 118.657 223.066 118.657ZM16.7437 190.719C12.8584 190.719 9.67569 189.83 7.19569 188.053C4.75702 186.234 3.39302 183.775 3.10369 180.675H7.56769C7.77435 182.576 8.66302 184.126 10.2337 185.325C11.8457 186.482 13.995 187.061 16.6817 187.061C19.0377 187.061 20.877 186.503 22.1997 185.387C23.5637 184.271 24.2457 182.886 24.2457 181.233C24.2457 180.076 23.8737 179.125 23.1297 178.381C22.3857 177.637 21.435 177.058 20.2777 176.645C19.1617 176.19 17.6324 175.715 15.6897 175.219C13.1684 174.558 11.1224 173.896 9.55169 173.235C7.98102 172.574 6.63769 171.602 5.52169 170.321C4.44702 168.998 3.90969 167.242 3.90969 165.051C3.90969 163.398 4.40569 161.868 5.39769 160.463C6.38969 159.058 7.79502 157.942 9.61369 157.115C11.4324 156.288 13.499 155.875 15.8137 155.875C19.451 155.875 22.3857 156.805 24.6177 158.665C26.8497 160.484 28.0484 163.005 28.2137 166.229H23.8737C23.7497 164.245 22.9644 162.654 21.5177 161.455C20.1124 160.215 18.1697 159.595 15.6897 159.595C13.499 159.595 11.7217 160.112 10.3577 161.145C8.99369 162.178 8.31169 163.46 8.31169 164.989C8.31169 166.312 8.70435 167.407 9.48969 168.275C10.3164 169.102 11.329 169.763 12.5277 170.259C13.7264 170.714 15.3384 171.23 17.3637 171.809C19.8024 172.47 21.745 173.111 23.1917 173.731C24.6384 174.351 25.8784 175.26 26.9117 176.459C27.945 177.658 28.4824 179.249 28.5237 181.233C28.5237 183.052 28.0277 184.684 27.0357 186.131C26.0437 187.536 24.659 188.652 22.8817 189.479C21.1044 190.306 19.0584 190.719 16.7437 190.719ZM41.0332 144.343V190.223H36.6932V144.343H41.0332ZM53.0311 149.985C52.1631 149.985 51.4191 149.675 50.7991 149.055C50.1791 148.435 49.8691 147.67 49.8691 146.761C49.8691 145.852 50.1791 145.108 50.7991 144.529C51.4191 143.909 52.1631 143.599 53.0311 143.599C53.8991 143.599 54.6431 143.909 55.2631 144.529C55.8831 145.108 56.1931 145.852 56.1931 146.761C56.1931 147.67 55.8831 148.435 55.2631 149.055C54.6431 149.675 53.8991 149.985 53.0311 149.985ZM55.2011 156.371V190.223H50.8611V156.371H55.2011ZM105.329 155.751C109.297 155.751 112.521 157.012 115.001 159.533C117.522 162.013 118.783 165.63 118.783 170.383V190.223H114.505V170.879C114.505 167.2 113.616 164.39 111.839 162.447C110.062 160.504 107.644 159.533 104.585 159.533C101.402 159.533 98.8604 160.587 96.9591 162.695C95.0578 164.803 94.1071 167.862 94.1071 171.871V190.223H89.8291V170.879C89.8291 167.2 88.9404 164.39 87.1631 162.447C85.3858 160.504 82.9471 159.533 79.8471 159.533C76.6644 159.533 74.1224 160.587 72.2211 162.695C70.3198 164.803 69.3691 167.862 69.3691 171.871V190.223H65.0291V156.371H69.3691V162.199C70.4438 160.091 71.9731 158.5 73.9571 157.425C75.9411 156.309 78.1524 155.751 80.5911 155.751C83.5258 155.751 86.0884 156.454 88.2791 157.859C90.5111 159.264 92.1231 161.331 93.1151 164.059C94.0244 161.372 95.5744 159.326 97.7651 157.921C99.9971 156.474 102.518 155.751 105.329 155.751ZM168.722 155.751C172.69 155.751 175.914 157.012 178.394 159.533C180.915 162.013 182.176 165.63 182.176 170.383V190.223H177.898V170.879C177.898 167.2 177.009 164.39 175.232 162.447C173.454 160.504 171.036 159.533 167.978 159.533C164.795 159.533 162.253 160.587 160.352 162.695C158.45 164.803 157.5 167.862 157.5 171.871V190.223H153.222V170.879C153.222 167.2 152.333 164.39 150.556 162.447C148.778 160.504 146.34 159.533 143.24 159.533C140.057 159.533 137.515 160.587 135.614 162.695C133.712 164.803 132.762 167.862 132.762 171.871V190.223H128.422V156.371H132.762V162.199C133.836 160.091 135.366 158.5 137.35 157.425C139.334 156.309 141.545 155.751 143.984 155.751C146.918 155.751 149.481 156.454 151.672 157.859C153.904 159.264 155.516 161.331 156.508 164.059C157.417 161.372 158.967 159.326 161.158 157.921C163.39 156.474 165.911 155.751 168.722 155.751ZM222.442 171.561C222.442 173.049 222.401 174.186 222.318 174.971H194.232C194.356 177.534 194.976 179.724 196.092 181.543C197.208 183.362 198.676 184.746 200.494 185.697C202.313 186.606 204.297 187.061 206.446 187.061C209.257 187.061 211.613 186.379 213.514 185.015C215.457 183.651 216.738 181.812 217.358 179.497H221.946C221.12 182.804 219.342 185.511 216.614 187.619C213.928 189.686 210.538 190.719 206.446 190.719C203.264 190.719 200.412 190.016 197.89 188.611C195.369 187.164 193.385 185.139 191.938 182.535C190.533 179.89 189.83 176.81 189.83 173.297C189.83 169.784 190.533 166.704 191.938 164.059C193.344 161.414 195.307 159.388 197.828 157.983C200.35 156.578 203.222 155.875 206.446 155.875C209.67 155.875 212.481 156.578 214.878 157.983C217.317 159.388 219.177 161.29 220.458 163.687C221.781 166.043 222.442 168.668 222.442 171.561ZM218.04 171.437C218.082 168.916 217.565 166.766 216.49 164.989C215.457 163.212 214.031 161.868 212.212 160.959C210.394 160.05 208.41 159.595 206.26 159.595C203.036 159.595 200.288 160.628 198.014 162.695C195.741 164.762 194.48 167.676 194.232 171.437H218.04ZM242.039 190.719C238.153 190.719 234.971 189.83 232.491 188.053C230.052 186.234 228.688 183.775 228.399 180.675H232.863C233.069 182.576 233.958 184.126 235.529 185.325C237.141 186.482 239.29 187.061 241.977 187.061C244.333 187.061 246.172 186.503 247.495 185.387C248.859 184.271 249.541 182.886 249.541 181.233C249.541 180.076 249.169 179.125 248.425 178.381C247.681 177.637 246.73 177.058 245.573 176.645C244.457 176.19 242.927 175.715 240.985 175.219C238.463 174.558 236.417 173.896 234.847 173.235C233.276 172.574 231.933 171.602 230.817 170.321C229.742 168.998 229.205 167.242 229.205 165.051C229.205 163.398 229.701 161.868 230.693 160.463C231.685 159.058 233.09 157.942 234.909 157.115C236.727 156.288 238.794 155.875 241.109 155.875C244.746 155.875 247.681 156.805 249.913 158.665C252.145 160.484 253.343 163.005 253.509 166.229H249.169C249.045 164.245 248.259 162.654 246.813 161.455C245.407 160.215 243.465 159.595 240.985 159.595C238.794 159.595 237.017 160.112 235.653 161.145C234.289 162.178 233.607 163.46 233.607 164.989C233.607 166.312 233.999 167.407 234.785 168.275C235.611 169.102 236.624 169.763 237.823 170.259C239.021 170.714 240.633 171.23 242.659 171.809C245.097 172.47 247.04 173.111 248.487 173.731C249.933 174.351 251.173 175.26 252.207 176.459C253.24 177.658 253.777 179.249 253.819 181.233C253.819 183.052 253.323 184.684 252.331 186.131C251.339 187.536 249.954 188.652 248.177 189.479C246.399 190.306 244.353 190.719 242.039 190.719ZM267.63 160.029V181.047C267.63 183.114 268.023 184.54 268.808 185.325C269.593 186.11 270.978 186.503 272.962 186.503H276.93V190.223H272.28C269.221 190.223 266.948 189.52 265.46 188.115C263.972 186.668 263.228 184.312 263.228 181.047V160.029H258.516V156.371H263.228V147.877H267.63V156.371H276.93V160.029H267.63ZM1.61569 244.801C1.61569 241.205 2.35969 238.064 3.84769 235.377C5.33569 232.69 7.40235 230.624 10.0477 229.177C12.7344 227.73 15.793 227.007 19.2237 227.007C23.6464 227.007 27.3664 228.226 30.3837 230.665C33.401 233.062 35.3437 236.431 36.2117 240.771H23.3157C22.5717 238.498 21.125 237.361 18.9757 237.361C17.4464 237.361 16.227 238.002 15.3177 239.283C14.4497 240.523 14.0157 242.362 14.0157 244.801C14.0157 247.24 14.4497 249.1 15.3177 250.381C16.227 251.662 17.4464 252.303 18.9757 252.303C21.1664 252.303 22.613 251.166 23.3157 248.893H36.2117C35.3437 253.192 33.401 256.56 30.3837 258.999C27.3664 261.438 23.6464 262.657 19.2237 262.657C15.793 262.657 12.7344 261.934 10.0477 260.487C7.40235 259.04 5.33569 256.974 3.84769 254.287C2.35969 251.6 1.61569 248.438 1.61569 244.801ZM64.1378 227.131C68.1058 227.131 71.2472 228.474 73.5618 231.161C75.9178 233.806 77.0958 237.402 77.0958 241.949V262.223H64.9438V243.561C64.9438 241.577 64.4272 240.027 63.3938 238.911C62.3605 237.754 60.9758 237.175 59.2398 237.175C57.4212 237.175 55.9952 237.754 54.9618 238.911C53.9285 240.027 53.4118 241.577 53.4118 243.561V262.223H41.2598V216.343H53.4118V232.401C54.4865 230.83 55.9332 229.57 57.7518 228.619C59.6118 227.627 61.7405 227.131 64.1378 227.131ZM81.7797 244.801C81.7797 241.205 82.4204 238.064 83.7017 235.377C85.0244 232.69 86.8017 230.624 89.0337 229.177C91.3071 227.73 93.8284 227.007 96.5977 227.007C98.9951 227.007 101.062 227.482 102.798 228.433C104.534 229.384 105.877 230.665 106.828 232.277V227.441H118.98V262.223H106.828V257.387C105.877 258.999 104.513 260.28 102.736 261.231C101 262.182 98.9537 262.657 96.5977 262.657C93.8284 262.657 91.3071 261.934 89.0337 260.487C86.8017 259.04 85.0244 256.974 83.7017 254.287C82.4204 251.559 81.7797 248.397 81.7797 244.801ZM106.828 244.801C106.828 242.569 106.208 240.812 104.968 239.531C103.769 238.25 102.281 237.609 100.504 237.609C98.6851 237.609 97.1764 238.25 95.9777 239.531C94.7791 240.771 94.1797 242.528 94.1797 244.801C94.1797 247.033 94.7791 248.81 95.9777 250.133C97.1764 251.414 98.6851 252.055 100.504 252.055C102.281 252.055 103.769 251.414 104.968 250.133C106.208 248.852 106.828 247.074 106.828 244.801ZM138.056 233.579C139.42 231.595 141.074 230.024 143.016 228.867C144.959 227.71 147.046 227.131 149.278 227.131V240.089H145.868C143.223 240.089 141.26 240.606 139.978 241.639C138.697 242.672 138.056 244.47 138.056 247.033V262.223H125.904V227.441H138.056V233.579ZM166.469 227.007C168.825 227.007 170.871 227.482 172.607 228.433C174.384 229.384 175.748 230.665 176.699 232.277V227.441H188.851V261.851C188.851 265.116 188.231 268.051 186.991 270.655C185.751 273.3 183.808 275.408 181.163 276.979C178.559 278.55 175.252 279.335 171.243 279.335C165.87 279.335 161.571 278.074 158.347 275.553C155.123 273.032 153.284 269.601 152.829 265.261H164.795C165.043 266.377 165.663 267.245 166.655 267.865C167.647 268.485 168.928 268.795 170.499 268.795C174.632 268.795 176.699 266.48 176.699 261.851V257.387C175.748 258.999 174.384 260.28 172.607 261.231C170.871 262.182 168.825 262.657 166.469 262.657C163.7 262.657 161.178 261.934 158.905 260.487C156.673 259.04 154.896 256.974 153.573 254.287C152.292 251.559 151.651 248.397 151.651 244.801C151.651 241.205 152.292 238.064 153.573 235.377C154.896 232.69 156.673 230.624 158.905 229.177C161.178 227.73 163.7 227.007 166.469 227.007ZM176.699 244.801C176.699 242.569 176.079 240.812 174.839 239.531C173.64 238.25 172.152 237.609 170.375 237.609C168.556 237.609 167.048 238.25 165.849 239.531C164.65 240.771 164.051 242.528 164.051 244.801C164.051 247.033 164.65 248.81 165.849 250.133C167.048 251.414 168.556 252.055 170.375 252.055C172.152 252.055 173.64 251.414 174.839 250.133C176.079 248.852 176.699 247.074 176.699 244.801ZM229.007 244.429C229.007 245.38 228.945 246.33 228.821 247.281H205.819C205.943 249.182 206.46 250.608 207.369 251.559C208.32 252.468 209.519 252.923 210.965 252.923C212.991 252.923 214.437 252.014 215.305 250.195H228.263C227.726 252.592 226.672 254.742 225.101 256.643C223.572 258.503 221.629 259.97 219.273 261.045C216.917 262.12 214.313 262.657 211.461 262.657C208.031 262.657 204.972 261.934 202.285 260.487C199.64 259.04 197.553 256.974 196.023 254.287C194.535 251.6 193.791 248.438 193.791 244.801C193.791 241.164 194.535 238.022 196.023 235.377C197.511 232.69 199.578 230.624 202.223 229.177C204.91 227.73 207.989 227.007 211.461 227.007C214.892 227.007 217.93 227.71 220.575 229.115C223.221 230.52 225.287 232.546 226.775 235.191C228.263 237.795 229.007 240.874 229.007 244.429ZM216.607 241.391C216.607 239.903 216.111 238.746 215.119 237.919C214.127 237.051 212.887 236.617 211.399 236.617C209.911 236.617 208.692 237.03 207.741 237.857C206.791 238.642 206.171 239.82 205.881 241.391H216.607ZM246.133 233.579C247.497 231.595 249.15 230.024 251.093 228.867C253.035 227.71 255.123 227.131 257.355 227.131V240.089H253.945C251.299 240.089 249.336 240.606 248.055 241.639C246.773 242.672 246.133 244.47 246.133 247.033V262.223H233.981V227.441H246.133V233.579Z" fill="#20023A"/>
</svg>
