<svg width="192" height="87" viewBox="0 0 192 87" fill="none" xmlns="http://www.w3.org/2000/svg">
<g clip-path="url(#clip0)">
<path d="M23.1387 36.2936C22.0687 34.5036 21.5287 32.3736 21.5287 29.8936C21.5287 27.3236 22.2187 24.9836 23.5987 22.8836C24.9787 20.7836 27.0887 19.1036 29.9287 17.8436C32.7687 16.5836 36.2587 15.9436 40.4087 15.9436C44.5587 15.9436 48.0487 16.5736 50.8887 17.8436C53.7287 19.1036 55.8387 20.7836 57.2187 22.8836C58.5987 24.9836 59.2887 27.3236 59.2887 29.8936C59.2887 32.3736 58.7487 34.5036 57.6787 36.2936C56.6087 38.0836 55.1187 39.5236 53.2087 40.6236C58.0287 43.4336 60.4287 47.6536 60.4287 53.2836C60.4287 56.9136 59.5187 59.9836 57.7087 62.5136C55.8987 65.0436 53.4687 66.9536 50.4087 68.2336C47.3587 69.5236 44.0187 70.1636 40.3987 70.1636C36.7787 70.1636 33.4387 69.5236 30.3887 68.2336C27.3387 66.9436 24.9087 65.0436 23.0887 62.5136C21.2787 59.9836 20.3687 56.9136 20.3687 53.2836C20.3687 47.6636 22.7787 43.4336 27.5887 40.6236C25.7087 39.5236 24.2187 38.0736 23.1387 36.2936ZM37.0187 48.8036C36.1887 49.7336 35.7687 50.9136 35.7687 52.3436C35.7687 53.7736 36.1687 54.9436 36.9787 55.8436C37.7887 56.7536 38.9287 57.2036 40.4087 57.2036C41.8887 57.2036 43.0287 56.7536 43.8387 55.8436C44.6487 54.9436 45.0587 53.7736 45.0587 52.3436C45.0587 50.9136 44.6387 49.7336 43.8087 48.8036C42.9787 47.8736 41.8387 47.4036 40.4087 47.4036C38.9887 47.4136 37.8487 47.8736 37.0187 48.8036ZM42.7787 29.3536C42.1587 28.5636 41.3687 28.1736 40.4187 28.1736C39.4687 28.1736 38.6787 28.5636 38.0587 29.3536C37.4387 30.1436 37.1287 31.2036 37.1287 32.5336C37.1287 33.9136 37.4387 34.9636 38.0587 35.6836C38.6787 36.4036 39.4687 36.7536 40.4187 36.7536C41.3787 36.7536 42.1587 36.3936 42.7787 35.6836C43.3987 34.9636 43.7087 33.9236 43.7087 32.5336C43.6987 31.2036 43.3887 30.1436 42.7787 29.3536Z" fill="white"/>
<path d="M88.8586 19.7537L76.1286 49.1737H67.5586L72.5686 38.6637L64.2786 19.7537H72.9886L76.7286 29.8437L80.2186 19.7537H88.8586Z" fill="white"/>
<path d="M109.428 31.0737H96.8285C96.9485 32.7937 97.6585 33.6537 98.9785 33.6537C99.8285 33.6537 100.438 33.2637 100.808 32.4837H109.098C108.818 33.8937 108.218 35.1537 107.318 36.2737C106.408 37.3937 105.278 38.2737 103.898 38.9237C102.518 39.5737 101.009 39.8937 99.3685 39.8937C97.3985 39.8937 95.6285 39.4837 94.0985 38.6637C92.5585 37.8437 91.3585 36.6637 90.4985 35.1237C89.6385 33.5837 89.2085 31.7837 89.2085 29.7137C89.2085 27.6437 89.6385 25.8437 90.4985 24.3037C91.3585 22.7637 92.5585 21.5837 94.0985 20.7637C95.6385 19.9437 97.3985 19.5337 99.3685 19.5337C101.339 19.5337 103.098 19.9437 104.638 20.7537C106.178 21.5637 107.378 22.7237 108.238 24.2337C109.098 25.7437 109.528 27.5137 109.528 29.5637C109.528 30.0637 109.498 30.5837 109.428 31.0737ZM101.588 27.6537C101.588 26.9937 101.378 26.4937 100.958 26.1537C100.538 25.8137 100.009 25.6437 99.3685 25.6437C97.9785 25.6437 97.1685 26.3137 96.9385 27.6537H101.588Z" fill="white"/>
<path d="M112.018 24.2537C112.738 22.7137 113.718 21.5337 114.968 20.7237C116.218 19.9137 117.618 19.5037 119.168 19.5037C120.458 19.5037 121.578 19.7637 122.518 20.2937C123.458 20.8237 124.178 21.5437 124.668 22.4637V19.7437H132.458V39.6337H124.668V36.9137C124.178 37.8337 123.458 38.5537 122.518 39.0837C121.578 39.6137 120.458 39.8737 119.168 39.8737C117.618 39.8737 116.218 39.4737 114.968 38.6537C113.718 37.8437 112.738 36.6637 112.018 35.1237C111.298 33.5837 110.938 31.7637 110.938 29.6737C110.938 27.6137 111.298 25.7937 112.018 24.2537ZM123.848 27.2337C123.308 26.6437 122.618 26.3537 121.768 26.3537C120.918 26.3537 120.228 26.6537 119.688 27.2337C119.148 27.8237 118.878 28.6437 118.878 29.7037C118.878 30.7637 119.148 31.5837 119.688 32.1737C120.228 32.7637 120.918 33.0537 121.768 33.0537C122.618 33.0537 123.308 32.7537 123.848 32.1737C124.388 31.5837 124.658 30.7637 124.658 29.7037C124.658 28.6437 124.398 27.8237 123.848 27.2337Z" fill="white"/>
<path d="M146.749 20.6538C147.899 19.9638 149.099 19.6138 150.349 19.6138V27.9738H148.129C146.649 27.9738 145.559 28.2338 144.869 28.7538C144.179 29.2738 143.829 30.1938 143.829 31.5038V39.6538H135.999V19.7538H143.829V23.4238C144.619 22.2738 145.599 21.3438 146.749 20.6538Z" fill="white"/>
<path d="M156.318 38.9737C154.868 38.3637 153.728 37.5137 152.878 36.4337C152.028 35.3537 151.548 34.1237 151.428 32.7637H158.938C159.028 33.3537 159.288 33.7837 159.698 34.0737C160.108 34.3537 160.628 34.4937 161.268 34.4937C161.668 34.4937 161.988 34.4037 162.218 34.2337C162.448 34.0537 162.568 33.8437 162.568 33.5837C162.568 33.1337 162.318 32.8237 161.828 32.6337C161.338 32.4437 160.498 32.2337 159.328 31.9937C157.898 31.7137 156.708 31.4037 155.788 31.0737C154.858 30.7437 154.048 30.1837 153.358 29.3837C152.668 28.5837 152.318 27.4837 152.318 26.0737C152.318 24.8537 152.638 23.7437 153.288 22.7437C153.938 21.7437 154.898 20.9537 156.168 20.3837C157.438 19.8037 158.978 19.5137 160.788 19.5137C163.468 19.5137 165.568 20.1737 167.088 21.4837C168.608 22.8037 169.518 24.5237 169.818 26.6337H162.868C162.748 26.0937 162.508 25.6737 162.128 25.3837C161.748 25.0937 161.248 24.9437 160.608 24.9437C160.208 24.9437 159.908 25.0237 159.688 25.1737C159.478 25.3237 159.368 25.5537 159.368 25.8637C159.368 26.2637 159.618 26.5637 160.108 26.7637C160.598 26.9637 161.388 27.1737 162.468 27.3837C163.898 27.6637 165.118 27.9837 166.098 28.3337C167.088 28.6837 167.948 29.2937 168.678 30.1537C169.408 31.0137 169.768 32.1937 169.768 33.7037C169.768 34.8737 169.428 35.9337 168.748 36.8737C168.068 37.8137 167.088 38.5537 165.798 39.0937C164.518 39.6337 163.018 39.9037 161.298 39.9037C159.428 39.8937 157.768 39.5937 156.318 38.9737Z" fill="white"/>
<path d="M68.3287 68.9636C67.4387 68.5736 66.7486 68.0436 66.2286 67.3736C65.7186 66.6936 65.4287 65.9436 65.3687 65.1036H69.2987C69.3487 65.5536 69.5486 65.9236 69.9286 66.2036C70.2986 66.4836 70.7587 66.6236 71.2987 66.6236C71.7987 66.6236 72.1786 66.5236 72.4486 66.3336C72.7186 66.1436 72.8587 65.8836 72.8587 65.5736C72.8587 65.2036 72.6686 64.9236 72.2786 64.7436C71.8886 64.5636 71.2586 64.3636 70.3886 64.1536C69.4586 63.9336 68.6786 63.7036 68.0586 63.4636C67.4386 63.2236 66.8986 62.8436 66.4486 62.3236C65.9986 61.8036 65.7686 61.1036 65.7686 60.2136C65.7686 59.4736 65.9786 58.7936 66.3886 58.1736C66.7986 57.5636 67.4086 57.0736 68.2086 56.7236C69.0086 56.3636 69.9586 56.1836 71.0586 56.1836C72.6886 56.1836 73.9686 56.5836 74.9086 57.3936C75.8486 58.2036 76.3886 59.2736 76.5286 60.6036H72.8486C72.7886 60.1536 72.5887 59.7936 72.2587 59.5336C71.9287 59.2736 71.4887 59.1336 70.9387 59.1336C70.4687 59.1336 70.1187 59.2236 69.8687 59.4036C69.6187 59.5836 69.4986 59.8236 69.4986 60.1336C69.4986 60.5036 69.6986 60.7836 70.0886 60.9736C70.4886 61.1636 71.0987 61.3436 71.9387 61.5336C72.8987 61.7836 73.6887 62.0236 74.2887 62.2636C74.8987 62.5036 75.4286 62.8936 75.8786 63.4236C76.3386 63.9636 76.5786 64.6736 76.5886 65.5736C76.5886 66.3336 76.3786 67.0136 75.9486 67.6136C75.5186 68.2136 74.9087 68.6836 74.1087 69.0236C73.3087 69.3636 72.3787 69.5336 71.3287 69.5336C70.2187 69.5536 69.2087 69.3536 68.3287 68.9636Z" fill="white"/>
<path d="M90.6286 57.7136C91.5286 58.7036 91.9786 60.0536 91.9786 61.7736V69.3636H88.0186V62.3136C88.0186 61.4436 87.7886 60.7636 87.3386 60.2836C86.8886 59.8036 86.2786 59.5636 85.5286 59.5636C84.7686 59.5636 84.1586 59.8036 83.7086 60.2836C83.2586 60.7636 83.0286 61.4436 83.0286 62.3136V69.3636H79.0486V52.1436H83.0286V58.1236C83.4286 57.5536 83.9886 57.0936 84.6786 56.7536C85.3786 56.4136 86.1586 56.2436 87.0286 56.2436C88.5286 56.2336 89.7286 56.7336 90.6286 57.7136Z" fill="white"/>
<path d="M106.919 63.8236H97.9087C97.9687 64.6336 98.2287 65.2436 98.6887 65.6736C99.1487 66.1036 99.7087 66.3136 100.379 66.3136C101.369 66.3136 102.059 65.8936 102.449 65.0536H106.689C106.469 65.9036 106.079 66.6736 105.519 67.3536C104.949 68.0336 104.239 68.5736 103.389 68.9636C102.539 69.3536 101.579 69.5436 100.529 69.5436C99.2587 69.5436 98.1287 69.2736 97.1287 68.7336C96.1387 68.1936 95.3587 67.4136 94.7987 66.4036C94.2387 65.3936 93.9587 64.2136 93.9587 62.8636C93.9587 61.5136 94.2387 60.3336 94.7887 59.3236C95.3387 58.3136 96.1087 57.5436 97.0987 56.9936C98.0887 56.4536 99.2287 56.1736 100.519 56.1736C101.779 56.1736 102.899 56.4336 103.869 56.9636C104.849 57.4936 105.609 58.2436 106.159 59.2236C106.709 60.2036 106.989 61.3436 106.989 62.6436C106.989 63.0336 106.969 63.4236 106.919 63.8236ZM102.919 61.6136C102.919 60.9336 102.689 60.3836 102.219 59.9836C101.749 59.5836 101.169 59.3736 100.469 59.3736C99.7987 59.3736 99.2387 59.5636 98.7787 59.9536C98.3187 60.3436 98.0387 60.8936 97.9287 61.6036H102.919V61.6136Z" fill="white"/>
<path d="M113.069 52.1436V69.3636H109.089V52.1436H113.069Z" fill="white"/>
<path d="M122.469 59.6835H120.329V69.3635H116.349V59.6835H114.909V56.3735H116.349V56.0035C116.349 54.4035 116.809 53.1935 117.719 52.3635C118.639 51.5335 119.979 51.1235 121.749 51.1235C122.039 51.1235 122.259 51.1335 122.399 51.1435V54.5135C121.639 54.4635 121.109 54.5735 120.789 54.8435C120.479 55.1035 120.319 55.5835 120.319 56.2635V56.3835H122.459V59.6835H122.469Z" fill="white"/>
<path d="M134.339 59.5437V62.8537H124.099V59.5437H134.339Z" fill="white"/>
<path d="M141.809 52.1436V69.3636H137.829V52.1436H141.809Z" fill="white"/>
<path d="M144.989 54.4036C144.549 53.9936 144.329 53.4836 144.329 52.8836C144.329 52.2636 144.549 51.7436 144.989 51.3336C145.429 50.9236 145.999 50.7136 146.699 50.7136C147.379 50.7136 147.949 50.9236 148.389 51.3336C148.829 51.7436 149.049 52.2636 149.049 52.8836C149.049 53.4836 148.829 53.9936 148.389 54.4036C147.949 54.8136 147.389 55.0236 146.699 55.0236C145.999 55.0236 145.429 54.8236 144.989 54.4036ZM148.679 56.3736V69.3636H144.699V56.3736H148.679Z" fill="white"/>
<path d="M158.079 59.6835H155.939V69.3635H151.959V59.6835H150.519V56.3735H151.959V56.0035C151.959 54.4035 152.419 53.1935 153.329 52.3635C154.249 51.5335 155.589 51.1235 157.359 51.1235C157.649 51.1235 157.869 51.1335 158.009 51.1435V54.5135C157.249 54.4635 156.719 54.5735 156.399 54.8435C156.089 55.1035 155.929 55.5835 155.929 56.2635V56.3835H158.069V59.6835H158.079Z" fill="white"/>
<path d="M172.119 63.8236H163.109C163.169 64.6336 163.429 65.2436 163.889 65.6736C164.349 66.1036 164.909 66.3136 165.579 66.3136C166.569 66.3136 167.259 65.8936 167.649 65.0536H171.889C171.669 65.9036 171.279 66.6736 170.719 67.3536C170.149 68.0336 169.439 68.5736 168.589 68.9636C167.739 69.3536 166.779 69.5436 165.729 69.5436C164.459 69.5436 163.329 69.2736 162.329 68.7336C161.339 68.1936 160.559 67.4136 159.999 66.4036C159.439 65.3936 159.159 64.2136 159.159 62.8636C159.159 61.5136 159.439 60.3336 159.989 59.3236C160.539 58.3136 161.309 57.5436 162.299 56.9936C163.289 56.4536 164.429 56.1736 165.719 56.1736C166.979 56.1736 168.099 56.4336 169.069 56.9636C170.039 57.4936 170.809 58.2436 171.359 59.2236C171.909 60.2036 172.189 61.3436 172.189 62.6436C172.189 63.0336 172.159 63.4236 172.119 63.8236ZM168.109 61.6136C168.109 60.9336 167.879 60.3836 167.409 59.9836C166.939 59.5836 166.359 59.3736 165.659 59.3736C164.989 59.3736 164.429 59.5636 163.969 59.9536C163.509 60.3436 163.229 60.8936 163.119 61.6036H168.109V61.6136Z" fill="white"/>
<path d="M182.759 86.5937H9.38867C4.56867 86.5937 0.638672 82.6737 0.638672 77.8437V9.24365C0.638672 4.42365 4.56867 0.493652 9.38867 0.493652H182.759C187.589 0.493652 191.509 4.42365 191.509 9.24365V77.8437C191.509 82.6737 187.589 86.5937 182.759 86.5937ZM9.38867 2.78365C5.82867 2.78365 2.92867 5.68365 2.92867 9.24365V77.8437C2.92867 81.4036 5.82867 84.3036 9.38867 84.3036H182.759C186.319 84.3036 189.219 81.4036 189.219 77.8437V9.24365C189.219 5.68365 186.319 2.78365 182.759 2.78365H9.38867Z" fill="white"/>
</g>
<defs>
<clipPath id="clip0">
<rect width="190.87" height="86.1" fill="white" transform="translate(0.638672 0.493652)"/>
</clipPath>
</defs>
</svg>
