<svg width="242" height="112" viewBox="0 0 242 112" fill="none" xmlns="http://www.w3.org/2000/svg">
<path d="M38.4807 16.6576V46.3936H29.1987V31.5676L24.6207 46.3936H16.6407L12.0627 31.5676V46.3936H2.73867V16.6576H14.1627L20.7147 34.5076L27.0987 16.6576H38.4807ZM53.9439 46.6876C51.5639 46.6876 49.4219 46.1976 47.5179 45.2176C45.6139 44.2376 44.1159 42.8376 43.0239 41.0176C41.9599 39.1696 41.4279 37.0136 41.4279 34.5496C41.4279 32.0856 41.9599 29.9436 43.0239 28.1236C44.1159 26.2756 45.6139 24.8616 47.5179 23.8816C49.4219 22.9016 51.5639 22.4116 53.9439 22.4116C56.3239 22.4116 58.4659 22.9016 60.3699 23.8816C62.2739 24.8616 63.7579 26.2756 64.8219 28.1236C65.9139 29.9436 66.4599 32.0856 66.4599 34.5496C66.4599 37.0136 65.9139 39.1696 64.8219 41.0176C63.7579 42.8376 62.2739 44.2376 60.3699 45.2176C58.4659 46.1976 56.3239 46.6876 53.9439 46.6876ZM53.9439 38.6236C54.8119 38.6236 55.5399 38.2876 56.1279 37.6156C56.7159 36.9156 57.0099 35.8936 57.0099 34.5496C57.0099 33.2056 56.7159 32.1976 56.1279 31.5256C55.5399 30.8256 54.8119 30.4756 53.9439 30.4756C53.0759 30.4756 52.3479 30.8256 51.7599 31.5256C51.1719 32.1976 50.8779 33.2056 50.8779 34.5496C50.8779 35.8936 51.1579 36.9156 51.7179 37.6156C52.3059 38.2876 53.0479 38.6236 53.9439 38.6236ZM68.1291 34.5496C68.1291 32.0576 68.5491 29.9016 69.3891 28.0816C70.2571 26.2336 71.4331 24.8336 72.9171 23.8816C74.4011 22.9016 76.0671 22.4116 77.9151 22.4116C79.4551 22.4116 80.7711 22.7336 81.8631 23.3776C82.9831 23.9936 83.8371 24.8476 84.4251 25.9396V15.3136H93.7491V46.3936H84.4251V43.1596C83.8371 44.2516 82.9831 45.1196 81.8631 45.7636C80.7711 46.3796 79.4551 46.6876 77.9151 46.6876C76.0671 46.6876 74.4011 46.2116 72.9171 45.2596C71.4331 44.2796 70.2571 42.8796 69.3891 41.0596C68.5491 39.2116 68.1291 37.0416 68.1291 34.5496ZM84.4671 34.5496C84.4671 33.2896 84.1451 32.3096 83.5011 31.6096C82.8571 30.9096 82.0311 30.5596 81.0231 30.5596C80.0151 30.5596 79.1891 30.9096 78.5451 31.6096C77.9011 32.3096 77.5791 33.2896 77.5791 34.5496C77.5791 35.8096 77.9011 36.7896 78.5451 37.4896C79.1891 38.1896 80.0151 38.5396 81.0231 38.5396C82.0311 38.5396 82.8571 38.1896 83.5011 37.4896C84.1451 36.7896 84.4671 35.8096 84.4671 34.5496ZM120.868 34.3396C120.868 34.9836 120.826 35.5996 120.742 36.1876H105.748C105.888 38.2316 106.742 39.2536 108.31 39.2536C109.318 39.2536 110.046 38.7916 110.494 37.8676H120.364C120.028 39.5476 119.314 41.0596 118.222 42.4036C117.158 43.7196 115.8 44.7696 114.148 45.5536C112.524 46.3096 110.732 46.6876 108.772 46.6876C106.42 46.6876 104.32 46.1976 102.472 45.2176C100.652 44.2376 99.2239 42.8376 98.1879 41.0176C97.1799 39.1696 96.6759 37.0136 96.6759 34.5496C96.6759 32.0856 97.1799 29.9436 98.1879 28.1236C99.2239 26.2756 100.652 24.8616 102.472 23.8816C104.32 22.9016 106.42 22.4116 108.772 22.4116C111.124 22.4116 113.21 22.9016 115.03 23.8816C116.878 24.8336 118.306 26.2056 119.314 27.9976C120.35 29.7896 120.868 31.9036 120.868 34.3396ZM111.418 32.1136C111.418 31.3296 111.166 30.7416 110.662 30.3496C110.158 29.9296 109.528 29.7196 108.772 29.7196C107.12 29.7196 106.154 30.5176 105.874 32.1136H111.418ZM133.141 15.3136V46.3936H123.817V15.3136H133.141ZM143.649 31.4836C143.649 28.5436 144.237 25.9256 145.413 23.6296C146.617 21.3336 148.325 19.5556 150.537 18.2956C152.749 17.0076 155.353 16.3636 158.349 16.3636C160.925 16.3636 163.221 16.8536 165.237 17.8336C167.281 18.7856 168.933 20.1436 170.193 21.9076C171.481 23.6716 172.335 25.7296 172.755 28.0816H162.927C162.479 27.1016 161.835 26.3456 160.995 25.8136C160.183 25.2536 159.245 24.9736 158.181 24.9736C156.613 24.9736 155.367 25.5616 154.443 26.7376C153.547 27.9136 153.099 29.4956 153.099 31.4836C153.099 33.4716 153.547 35.0536 154.443 36.2296C155.367 37.4056 156.613 37.9936 158.181 37.9936C159.245 37.9936 160.183 37.7276 160.995 37.1956C161.835 36.6356 162.479 35.8656 162.927 34.8856H172.755C172.335 37.2376 171.481 39.2956 170.193 41.0596C168.933 42.8236 167.281 44.1956 165.237 45.1756C163.221 46.1276 160.925 46.6036 158.349 46.6036C155.353 46.6036 152.749 45.9736 150.537 44.7136C148.325 43.4256 146.617 41.6336 145.413 39.3376C144.237 37.0416 143.649 34.4236 143.649 31.4836ZM175.902 25.3096C175.986 21.9776 176.952 19.4296 178.8 17.6656C180.676 15.9016 183.322 15.0196 186.738 15.0196C188.95 15.0196 190.84 15.3976 192.408 16.1536C193.976 16.9096 195.152 17.9316 195.936 19.2196C196.748 20.5076 197.154 21.9636 197.154 23.5876C197.154 25.5476 196.692 27.0876 195.768 28.2076C194.844 29.2996 193.808 30.0416 192.66 30.4336V30.6016C196.02 31.8616 197.7 34.1996 197.7 37.6156C197.7 39.4076 197.28 40.9896 196.44 42.3616C195.6 43.7336 194.396 44.7976 192.828 45.5536C191.288 46.3096 189.454 46.6876 187.326 46.6876C183.686 46.6876 180.83 45.8196 178.758 44.0836C176.686 42.3476 175.622 39.6316 175.566 35.9356H184.638C184.582 36.9436 184.722 37.7136 185.058 38.2456C185.422 38.7496 186.038 39.0016 186.906 39.0016C187.41 39.0016 187.83 38.8196 188.166 38.4556C188.502 38.0636 188.67 37.5596 188.67 36.9436C188.67 36.1596 188.404 35.5716 187.872 35.1796C187.368 34.7596 186.5 34.5496 185.268 34.5496H183.714V27.0316H185.226C187.13 27.1436 188.082 26.3876 188.082 24.7636C188.082 24.0636 187.928 23.5456 187.62 23.2096C187.34 22.8736 186.976 22.7056 186.528 22.7056C185.492 22.7056 184.974 23.5736 184.974 25.3096H175.902ZM201.196 30.6016C201.196 25.7576 202.218 21.9496 204.262 19.1776C206.334 16.4056 209.512 15.0196 213.796 15.0196C218.052 15.0196 221.216 16.4196 223.288 19.2196C225.36 21.9916 226.396 25.7856 226.396 30.6016C226.396 35.4456 225.36 39.2676 223.288 42.0676C221.216 44.8396 218.052 46.2256 213.796 46.2256C209.512 46.2256 206.334 44.8396 204.262 42.0676C202.218 39.2676 201.196 35.4456 201.196 30.6016ZM217.198 30.6016C217.198 28.3616 216.974 26.6816 216.526 25.5616C216.078 24.4136 215.168 23.8396 213.796 23.8396C212.396 23.8396 211.472 24.4136 211.024 25.5616C210.576 26.6816 210.352 28.3616 210.352 30.6016C210.352 32.8696 210.576 34.5776 211.024 35.7256C211.472 36.8456 212.396 37.4056 213.796 37.4056C215.168 37.4056 216.078 36.8456 216.526 35.7256C216.974 34.5776 217.198 32.8696 217.198 30.6016Z" fill="white"/>
<path d="M1.79067 79.1936V75.0656H9.50267V98.3936H4.89467V79.1936H1.79067ZM26.0244 80.8896C25.8111 79.9936 25.4378 79.3216 24.9044 78.8736C24.3924 78.4256 23.6458 78.2016 22.6644 78.2016C21.1924 78.2016 20.1044 78.7989 19.4004 79.9936C18.7178 81.1669 18.3658 83.0869 18.3444 85.7536C18.8564 84.9002 19.6031 84.2389 20.5844 83.7696C21.5658 83.2789 22.6324 83.0336 23.7844 83.0336C25.1711 83.0336 26.3978 83.3322 27.4644 83.9296C28.5311 84.5269 29.3631 85.4016 29.9604 86.5536C30.5578 87.6842 30.8564 89.0496 30.8564 90.6496C30.8564 92.1642 30.5471 93.5189 29.9284 94.7136C29.3311 95.8869 28.4458 96.8042 27.2724 97.4656C26.0991 98.1269 24.7018 98.4576 23.0804 98.4576C20.8618 98.4576 19.1124 97.9669 17.8324 96.9856C16.5738 96.0042 15.6884 94.6389 15.1764 92.8896C14.6858 91.1189 14.4404 88.9429 14.4404 86.3616C14.4404 82.4576 15.1124 79.5136 16.4564 77.5296C17.8004 75.5242 19.9231 74.5216 22.8244 74.5216C25.0644 74.5216 26.8031 75.1296 28.0404 76.3456C29.2778 77.5616 29.9924 79.0762 30.1844 80.8896H26.0244ZM22.7604 86.7136C21.6298 86.7136 20.6804 87.0442 19.9124 87.7056C19.1444 88.3669 18.7604 89.3269 18.7604 90.5856C18.7604 91.8442 19.1124 92.8362 19.8164 93.5616C20.5418 94.2869 21.5551 94.6496 22.8564 94.6496C24.0084 94.6496 24.9151 94.2976 25.5764 93.5936C26.2591 92.8896 26.6004 91.9402 26.6004 90.7456C26.6004 89.5082 26.2698 88.5269 25.6084 87.8016C24.9684 87.0762 24.0191 86.7136 22.7604 86.7136ZM34.3972 86.4256C34.3972 82.7349 35.0585 79.8442 36.3812 77.7536C37.7252 75.6629 39.9438 74.6176 43.0372 74.6176C46.1305 74.6176 48.3385 75.6629 49.6612 77.7536C51.0052 79.8442 51.6772 82.7349 51.6772 86.4256C51.6772 90.1376 51.0052 93.0496 49.6612 95.1616C48.3385 97.2736 46.1305 98.3296 43.0372 98.3296C39.9438 98.3296 37.7252 97.2736 36.3812 95.1616C35.0585 93.0496 34.3972 90.1376 34.3972 86.4256ZM47.2612 86.4256C47.2612 84.8469 47.1545 83.5242 46.9412 82.4576C46.7492 81.3696 46.3438 80.4842 45.7252 79.8016C45.1278 79.1189 44.2318 78.7776 43.0372 78.7776C41.8425 78.7776 40.9358 79.1189 40.3172 79.8016C39.7198 80.4842 39.3145 81.3696 39.1012 82.4576C38.9092 83.5242 38.8132 84.8469 38.8132 86.4256C38.8132 88.0469 38.9092 89.4122 39.1012 90.5216C39.2932 91.6096 39.6985 92.4949 40.3172 93.1776C40.9358 93.8389 41.8425 94.1696 43.0372 94.1696C44.2318 94.1696 45.1385 93.8389 45.7572 93.1776C46.3758 92.4949 46.7812 91.6096 46.9732 90.5216C47.1652 89.4122 47.2612 88.0469 47.2612 86.4256ZM55.0847 86.4256C55.0847 82.7349 55.746 79.8442 57.0687 77.7536C58.4127 75.6629 60.6313 74.6176 63.7247 74.6176C66.818 74.6176 69.026 75.6629 70.3487 77.7536C71.6927 79.8442 72.3647 82.7349 72.3647 86.4256C72.3647 90.1376 71.6927 93.0496 70.3487 95.1616C69.026 97.2736 66.818 98.3296 63.7247 98.3296C60.6313 98.3296 58.4127 97.2736 57.0687 95.1616C55.746 93.0496 55.0847 90.1376 55.0847 86.4256ZM67.9487 86.4256C67.9487 84.8469 67.842 83.5242 67.6287 82.4576C67.4367 81.3696 67.0313 80.4842 66.4127 79.8016C65.8153 79.1189 64.9193 78.7776 63.7247 78.7776C62.53 78.7776 61.6233 79.1189 61.0047 79.8016C60.4073 80.4842 60.002 81.3696 59.7887 82.4576C59.5967 83.5242 59.5007 84.8469 59.5007 86.4256C59.5007 88.0469 59.5967 89.4122 59.7887 90.5216C59.9807 91.6096 60.386 92.4949 61.0047 93.1776C61.6233 93.8389 62.53 94.1696 63.7247 94.1696C64.9193 94.1696 65.826 93.8389 66.4447 93.1776C67.0633 92.4949 67.4687 91.6096 67.6607 90.5216C67.8527 89.4122 67.9487 88.0469 67.9487 86.4256ZM105.925 80.4096C108.101 80.4096 109.851 81.0816 111.173 82.4256C112.517 83.7482 113.189 85.6042 113.189 87.9936V98.3936H108.709V88.6016C108.709 87.2149 108.357 86.1589 107.653 85.4336C106.949 84.6869 105.989 84.3136 104.773 84.3136C103.557 84.3136 102.587 84.6869 101.861 85.4336C101.157 86.1589 100.805 87.2149 100.805 88.6016V98.3936H96.3252V88.6016C96.3252 87.2149 95.9732 86.1589 95.2692 85.4336C94.5652 84.6869 93.6052 84.3136 92.3892 84.3136C91.1518 84.3136 90.1705 84.6869 89.4452 85.4336C88.7412 86.1589 88.3892 87.2149 88.3892 88.6016V98.3936H83.9092V80.6656H88.3892V82.8096C88.9652 82.0629 89.7012 81.4762 90.5972 81.0496C91.5145 80.6229 92.5172 80.4096 93.6052 80.4096C94.9918 80.4096 96.2292 80.7082 97.3172 81.3056C98.4052 81.8816 99.2478 82.7136 99.8452 83.8016C100.421 82.7776 101.253 81.9562 102.341 81.3376C103.451 80.7189 104.645 80.4096 105.925 80.4096ZM131.136 94.1376H122.24L120.768 98.3936H116.064L124.096 76.0256H129.312L137.344 98.3936H132.608L131.136 94.1376ZM129.92 90.5536L126.688 81.2096L123.456 90.5536H129.92ZM150.331 80.4096C151.675 80.4096 152.869 80.7082 153.915 81.3056C154.96 81.8816 155.771 82.7456 156.347 83.8976C156.944 85.0282 157.243 86.3936 157.243 87.9936V98.3936H152.763V88.6016C152.763 87.1936 152.411 86.1162 151.707 85.3696C151.003 84.6016 150.043 84.2176 148.827 84.2176C147.589 84.2176 146.608 84.6016 145.883 85.3696C145.179 86.1162 144.827 87.1936 144.827 88.6016V98.3936H140.347V74.7136H144.827V82.8736C145.403 82.1056 146.171 81.5082 147.131 81.0816C148.091 80.6336 149.157 80.4096 150.331 80.4096Z" fill="white"/>
</svg>
