<svg width="192" height="95" viewBox="0 0 192 95" fill="none" xmlns="http://www.w3.org/2000/svg">
<g clip-path="url(#clip0)">
<path d="M25.1667 28.0835C28.3367 25.0835 32.8267 23.5735 38.6467 23.5735C42.4167 23.5735 45.6267 24.2135 48.3067 25.5035C50.9767 26.7935 52.9867 28.5335 54.3467 30.7235C55.7067 32.9135 56.3867 35.3935 56.3867 38.1635C56.3867 41.5035 55.5967 44.1135 54.0267 45.9935C52.4567 47.8835 50.6867 49.1535 48.7367 49.8235V50.1135C54.4567 52.2535 57.3167 56.2435 57.3167 62.0535C57.3167 65.1035 56.5967 67.8035 55.1767 70.1335C53.7467 72.4735 51.7067 74.2835 49.0667 75.5635C46.4167 76.8535 43.2867 77.4935 39.6667 77.4935C33.4667 77.4935 28.6067 76.0135 25.0767 73.0535C21.5467 70.1035 19.7367 65.4735 19.6467 59.1835H35.0967C34.9967 60.9035 35.2467 62.1935 35.8467 63.0835C36.4367 63.9635 37.4767 64.4035 38.9567 64.4035C39.8167 64.4035 40.5267 64.0835 41.0967 63.4335C41.6667 62.7935 41.9567 61.9435 41.9567 60.8935C41.9567 59.5635 41.5167 58.5435 40.6367 57.8535C39.7567 57.1635 38.2667 56.8135 36.1667 56.8135H33.5167V44.0135H36.0867C39.3267 44.2035 40.9467 42.9135 40.9467 40.1535C40.9467 38.9635 40.6967 38.0835 40.1967 37.5035C39.6967 36.9335 39.0667 36.6435 38.3067 36.6435C36.5467 36.6435 35.6567 38.1235 35.6567 41.0835H20.2067C20.3467 35.4235 21.9967 31.0835 25.1667 28.0835Z" fill="white"/>
<path d="M85.6967 35.5636C86.9767 37.0936 87.6167 39.1636 87.6167 41.7736V53.3036H79.8167V42.7636C79.8167 41.8236 79.5667 41.0736 79.0567 40.5236C78.5467 39.9736 77.8767 39.6936 77.0267 39.6936C76.1567 39.6936 75.4767 39.9736 74.9767 40.5236C74.4767 41.0736 74.2367 41.8236 74.2367 42.7636V53.3136H66.4067V27.2136H74.2367V36.4536C74.8467 35.5136 75.6667 34.7536 76.6867 34.1636C77.7067 33.5736 78.9267 33.2836 80.3367 33.2836C82.6267 33.2736 84.4167 34.0336 85.6967 35.5636Z" fill="white"/>
<path d="M95.0568 52.3236C93.4568 51.5036 92.2068 50.3236 91.2968 48.7836C90.3868 47.2436 89.9368 45.4436 89.9368 43.3736C89.9368 41.3036 90.3868 39.5036 91.2968 37.9636C92.1968 36.4236 93.4568 35.2436 95.0568 34.4236C96.6568 33.6036 98.4568 33.1936 100.457 33.1936C102.457 33.1936 104.257 33.6036 105.857 34.4236C107.457 35.2436 108.707 36.4336 109.617 37.9636C110.527 39.5036 110.977 41.3136 110.977 43.3736C110.977 45.4436 110.527 47.2536 109.617 48.7836C108.707 50.3236 107.457 51.5036 105.857 52.3236C104.257 53.1536 102.457 53.5536 100.457 53.5536C98.4568 53.5536 96.6568 53.1436 95.0568 52.3236ZM102.297 45.9236C102.787 45.3436 103.037 44.4936 103.037 43.3636C103.037 42.2336 102.787 41.3836 102.297 40.8036C101.807 40.2236 101.187 39.9336 100.467 39.9336C99.7368 39.9336 99.1268 40.2236 98.6268 40.8036C98.1368 41.3836 97.8868 42.2336 97.8868 43.3636C97.8868 44.4936 98.1268 45.3436 98.6068 45.9236C99.0868 46.5036 99.7068 46.7836 100.457 46.7836C101.187 46.7836 101.797 46.4936 102.297 45.9236Z" fill="white"/>
<path d="M134.497 33.4136V53.3036H126.667V50.2736C126.057 51.2136 125.237 51.9736 124.217 52.5636C123.197 53.1536 121.977 53.4436 120.567 53.4436C118.287 53.4436 116.507 52.6836 115.217 51.1536C113.937 49.6236 113.297 47.5536 113.297 44.9436V33.4136H121.087V43.9636C121.087 44.9036 121.337 45.6536 121.847 46.2036C122.357 46.7536 123.027 47.0336 123.877 47.0336C124.747 47.0336 125.427 46.7536 125.927 46.2036C126.427 45.6536 126.667 44.9036 126.667 43.9636V33.4136H134.497Z" fill="white"/>
<path d="M148.787 34.3137C149.937 33.6237 151.137 33.2737 152.387 33.2737V41.6337H150.167C148.687 41.6337 147.597 41.8937 146.907 42.4137C146.217 42.9337 145.867 43.8537 145.867 45.1637V53.3137H138.037V33.4137H145.867V37.0837C146.657 35.9337 147.637 35.0137 148.787 34.3137Z" fill="white"/>
<path d="M158.357 52.6436C156.907 52.0336 155.767 51.1836 154.917 50.1036C154.067 49.0236 153.587 47.7936 153.467 46.4336H160.977C161.067 47.0236 161.327 47.4536 161.737 47.7436C162.147 48.0236 162.667 48.1636 163.307 48.1636C163.707 48.1636 164.027 48.0736 164.257 47.9036C164.487 47.7236 164.607 47.5136 164.607 47.2536C164.607 46.8036 164.357 46.4936 163.867 46.3036C163.377 46.1136 162.537 45.9036 161.367 45.6636C159.937 45.3836 158.747 45.0736 157.827 44.7436C156.897 44.4136 156.087 43.8536 155.397 43.0536C154.707 42.2536 154.357 41.1536 154.357 39.7436C154.357 38.5236 154.677 37.4136 155.327 36.4136C155.977 35.4136 156.937 34.6236 158.207 34.0536C159.477 33.4736 161.017 33.1836 162.827 33.1836C165.507 33.1836 167.607 33.8436 169.127 35.1536C170.647 36.4736 171.557 38.1936 171.857 40.3036H164.907C164.787 39.7636 164.547 39.3436 164.167 39.0536C163.787 38.7636 163.287 38.6136 162.647 38.6136C162.247 38.6136 161.947 38.6936 161.727 38.8436C161.517 38.9936 161.407 39.2236 161.407 39.5336C161.407 39.9336 161.657 40.2336 162.147 40.4336C162.637 40.6336 163.427 40.8436 164.507 41.0536C165.937 41.3336 167.157 41.6536 168.137 42.0036C169.127 42.3536 169.987 42.9636 170.717 43.8236C171.447 44.6836 171.807 45.8636 171.807 47.3736C171.807 48.5436 171.467 49.6036 170.787 50.5436C170.107 51.4836 169.127 52.2236 167.837 52.7636C166.557 53.3036 165.057 53.5736 163.337 53.5736C161.467 53.5536 159.807 53.2536 158.357 52.6436Z" fill="white"/>
<path d="M68.6367 75.3435C67.6067 74.7935 66.7966 74.0035 66.2066 72.9835C65.6166 71.9635 65.3167 70.7635 65.3167 69.3935C65.3167 68.0335 65.6166 66.8435 66.2166 65.8135C66.8166 64.7835 67.6366 63.9935 68.6766 63.4435C69.7166 62.8935 70.8866 62.6135 72.1766 62.6135C73.4666 62.6135 74.6366 62.8935 75.6766 63.4435C76.7166 63.9935 77.5366 64.7835 78.1367 65.8135C78.7367 66.8435 79.0366 68.0435 79.0366 69.3935C79.0366 70.7435 78.7366 71.9435 78.1266 72.9735C77.5166 74.0035 76.6966 74.7935 75.6466 75.3535C74.5966 75.9035 73.4267 76.1835 72.1367 76.1835C70.8267 76.1735 69.6666 75.8935 68.6367 75.3435ZM74.0966 71.8235C74.6366 71.2535 74.9166 70.4435 74.9166 69.3935C74.9166 68.3335 74.6566 67.5235 74.1266 66.9635C73.5966 66.3935 72.9466 66.1135 72.1766 66.1135C71.3866 66.1135 70.7366 66.3935 70.2166 66.9535C69.6966 67.5135 69.4366 68.3235 69.4366 69.3935C69.4366 70.4535 69.6966 71.2635 70.2066 71.8235C70.7167 72.3935 71.3567 72.6735 72.1367 72.6735C72.8967 72.6735 73.5466 72.3935 74.0966 71.8235Z" fill="white"/>
<path d="M87.7867 66.1536H85.6067V75.9836H81.5667V66.1536H80.1067V62.7936H81.5667V62.4136C81.5667 60.7936 82.0267 59.5636 82.9567 58.7136C83.8867 57.8736 85.2467 57.4436 87.0467 57.4436C87.3467 57.4436 87.5667 57.4536 87.7067 57.4636V60.8936C86.9367 60.8436 86.3867 60.9536 86.0767 61.2236C85.7667 61.4936 85.6067 61.9736 85.6067 62.6636V62.7836H87.7867V66.1536Z" fill="white"/>
<path d="M100.357 63.1735C101.047 62.7935 101.857 62.6035 102.787 62.6035C103.877 62.6035 104.857 62.8835 105.737 63.4335C106.617 63.9835 107.317 64.7735 107.827 65.7935C108.337 66.8135 108.597 68.0035 108.597 69.3635C108.597 70.7135 108.347 71.9135 107.827 72.9435C107.317 73.9735 106.617 74.7735 105.737 75.3335C104.857 75.8935 103.867 76.1735 102.787 76.1735C101.877 76.1735 101.067 75.9835 100.367 75.6035C99.6665 75.2235 99.1165 74.7335 98.7265 74.1435V82.2735H94.6865V62.7935H98.7265V64.6635C99.1265 64.0535 99.6665 63.5535 100.357 63.1735ZM103.657 66.9935C103.097 66.4235 102.407 66.1335 101.587 66.1335C100.787 66.1335 100.097 66.4235 99.5465 67.0035C98.9965 67.5835 98.7065 68.3835 98.7065 69.3935C98.7065 70.4035 98.9865 71.1935 99.5465 71.7835C100.107 72.3635 100.787 72.6535 101.587 72.6535C102.397 72.6535 103.077 72.3535 103.647 71.7635C104.217 71.1735 104.497 70.3735 104.497 69.3635C104.497 68.3635 104.217 67.5635 103.657 66.9935Z" fill="white"/>
<path d="M113.247 75.3435C112.217 74.7935 111.407 74.0035 110.817 72.9835C110.227 71.9635 109.927 70.7635 109.927 69.3935C109.927 68.0335 110.227 66.8435 110.827 65.8135C111.427 64.7835 112.247 63.9935 113.287 63.4435C114.327 62.8935 115.497 62.6135 116.787 62.6135C118.077 62.6135 119.247 62.8935 120.287 63.4435C121.327 63.9935 122.147 64.7835 122.747 65.8135C123.347 66.8435 123.647 68.0435 123.647 69.3935C123.647 70.7435 123.347 71.9435 122.737 72.9735C122.127 74.0035 121.307 74.7935 120.257 75.3535C119.207 75.9035 118.037 76.1835 116.747 76.1835C115.447 76.1735 114.287 75.8935 113.247 75.3435ZM118.707 71.8235C119.247 71.2535 119.527 70.4435 119.527 69.3935C119.527 68.3335 119.267 67.5235 118.737 66.9635C118.207 66.3935 117.557 66.1135 116.787 66.1135C115.997 66.1135 115.347 66.3935 114.827 66.9535C114.307 67.5135 114.047 68.3235 114.047 69.3935C114.047 70.4535 114.307 71.2635 114.817 71.8235C115.327 72.3935 115.967 72.6735 116.747 72.6735C117.507 72.6735 118.167 72.3935 118.707 71.8235Z" fill="white"/>
<path d="M144.717 62.7937L141.147 75.9837H136.677L134.597 67.4337L132.447 75.9837H128.007L124.417 62.7937H128.457L130.327 72.2237L132.547 62.7937H136.827L139.077 72.1737L140.917 62.7937H144.717Z" fill="white"/>
<path d="M158.607 70.3635H149.457C149.517 71.1835 149.787 71.8135 150.247 72.2435C150.717 72.6735 151.287 72.8935 151.957 72.8935C152.967 72.8935 153.667 72.4735 154.057 71.6135H158.357C158.137 72.4835 157.737 73.2635 157.167 73.9535C156.597 74.6435 155.867 75.1935 155.007 75.5835C154.137 75.9835 153.167 76.1735 152.097 76.1735C150.807 76.1735 149.657 75.8935 148.647 75.3435C147.637 74.7935 146.847 74.0035 146.287 72.9835C145.717 71.9635 145.437 70.7635 145.437 69.3935C145.437 68.0235 145.717 66.8235 146.277 65.8035C146.837 64.7835 147.617 63.9935 148.627 63.4435C149.637 62.8935 150.797 62.6135 152.097 62.6135C153.377 62.6135 154.507 62.8835 155.497 63.4135C156.487 63.9435 157.267 64.7135 157.827 65.7035C158.387 66.6935 158.667 67.8535 158.667 69.1735C158.677 69.5535 158.657 69.9535 158.607 70.3635ZM154.547 68.1135C154.547 67.4235 154.307 66.8635 153.837 66.4535C153.367 66.0435 152.777 65.8335 152.067 65.8335C151.387 65.8335 150.817 66.0335 150.357 66.4235C149.887 66.8235 149.607 67.3835 149.497 68.1035H154.547V68.1135Z" fill="white"/>
<path d="M166.617 63.2836C167.327 62.8636 168.117 62.6536 168.977 62.6536V66.9336H167.867C166.857 66.9336 166.107 67.1536 165.597 67.5836C165.087 68.0136 164.837 68.7736 164.837 69.8636V75.9836H160.797V62.7936H164.837V64.9936C165.317 64.2736 165.907 63.7036 166.617 63.2836Z" fill="white"/>
<path d="M182.777 6.35352H88.9867V8.64352H182.767C186.337 8.64352 189.247 11.5335 189.247 15.1035V85.4835C189.247 89.0335 186.337 91.9435 182.767 91.9435H9.42674C5.85674 91.9435 2.94674 89.0335 2.94674 85.4835V15.1035C2.94674 11.5335 5.85674 8.64352 9.42674 8.64352H12.9967V6.35352H9.42674C4.59674 6.35352 0.656738 10.2735 0.656738 15.1035V85.4835C0.656738 90.2935 4.59674 94.2335 9.42674 94.2335H182.777C187.607 94.2335 191.547 90.2935 191.547 85.4835V15.1035C191.547 10.2735 187.607 6.35352 182.777 6.35352Z" fill="white"/>
<path d="M24.4667 0.603516V9.43352C24.4667 10.3135 24.6867 10.9935 25.1167 11.4735C25.5467 11.9535 26.1867 12.1835 27.0267 12.1835C27.8667 12.1835 28.5167 11.9435 28.9567 11.4735C29.3967 11.0035 29.6267 10.3135 29.6267 9.43352V0.603516H33.2167V9.40352C33.2167 10.7235 32.9367 11.8335 32.3767 12.7435C31.8167 13.6535 31.0667 14.3435 30.1167 14.8035C29.1667 15.2635 28.1167 15.4935 26.9567 15.4935C25.7967 15.4935 24.7567 15.2635 23.8367 14.8135C22.9167 14.3635 22.1967 13.6735 21.6567 12.7535C21.1267 11.8335 20.8567 10.7135 20.8567 9.40352V0.603516H24.4667Z" fill="white"/>
<path d="M46.3966 7.69352C46.0066 8.40352 45.4066 8.97352 44.5966 9.40352C43.7866 9.84352 42.7766 10.0535 41.5666 10.0535H39.3366V15.3435H35.7466V0.603516H41.5666C42.7466 0.603516 43.7366 0.803516 44.5466 1.21352C45.3566 1.61352 45.9666 2.18352 46.3766 2.89352C46.7866 3.61352 46.9866 4.42352 46.9866 5.35352C46.9866 6.20352 46.7966 6.99352 46.3966 7.69352ZM42.8266 6.71352C43.1666 6.39352 43.3366 5.93352 43.3366 5.34352C43.3366 4.75352 43.1666 4.30352 42.8266 3.98352C42.4866 3.66352 41.9766 3.50352 41.2966 3.50352H39.3466V7.20352H41.2966C41.9766 7.20352 42.4866 7.04352 42.8266 6.71352Z" fill="white"/>
<path d="M63.9266 0.603516V3.48352H60.0166V15.3535H56.4266V3.48352H52.5166V0.603516H63.9266Z" fill="white"/>
<path d="M68.8867 14.5336C67.7367 13.8936 66.8167 12.9836 66.1367 11.8336C65.4567 10.6836 65.1167 9.38355 65.1167 7.93355C65.1167 6.48355 65.4567 5.19355 66.1367 4.04355C66.8167 2.89355 67.7367 1.99355 68.8867 1.35355C70.0467 0.713555 71.3167 0.393555 72.7067 0.393555C74.0967 0.393555 75.3667 0.713555 76.5167 1.36355C77.6767 2.00355 78.5867 2.90355 79.2467 4.05355C79.9067 5.20355 80.2467 6.49356 80.2467 7.94355C80.2467 9.39355 79.9067 10.6836 79.2367 11.8436C78.5667 13.0036 77.6567 13.9036 76.5067 14.5436C75.3567 15.1836 74.0867 15.5136 72.7067 15.5136C71.3267 15.5136 70.0467 15.1836 68.8867 14.5336ZM75.5267 11.0436C76.2367 10.2536 76.5867 9.22355 76.5867 7.93355C76.5867 6.63355 76.2367 5.59355 75.5267 4.81355C74.8167 4.03355 73.8767 3.64355 72.6967 3.64355C71.5067 3.64355 70.5567 4.03355 69.8467 4.80355C69.1367 5.57355 68.7867 6.61355 68.7867 7.93355C68.7867 9.23355 69.1367 10.2736 69.8467 11.0536C70.5567 11.8336 71.5067 12.2236 72.6967 12.2236C73.8767 12.2236 74.8267 11.8336 75.5267 11.0436Z" fill="white"/>
</g>
<defs>
<clipPath id="clip0">
<rect width="190.89" height="93.84" fill="white" transform="translate(0.656738 0.393555)"/>
</clipPath>
</defs>
</svg>
