<svg width="231" height="104" viewBox="0 0 231 104" fill="none" xmlns="http://www.w3.org/2000/svg">
<path d="M120.279 24.6071C119.209 24.6071 118.241 24.4238 117.375 24.0571C116.525 23.6905 115.85 23.1625 115.351 22.4731C114.853 21.7838 114.596 20.9698 114.581 20.0311H117.881C117.925 20.6618 118.145 21.1605 118.541 21.5271C118.952 21.8938 119.509 22.0771 120.213 22.0771C120.932 22.0771 121.497 21.9085 121.907 21.5711C122.318 21.2191 122.523 20.7645 122.523 20.2071C122.523 19.7525 122.384 19.3785 122.105 19.0851C121.827 18.7918 121.475 18.5645 121.049 18.4031C120.639 18.2271 120.067 18.0365 119.333 17.8311C118.336 17.5378 117.522 17.2518 116.891 16.9731C116.275 16.6798 115.74 16.2471 115.285 15.6751C114.845 15.0885 114.625 14.3111 114.625 13.3431C114.625 12.4338 114.853 11.6418 115.307 10.9671C115.762 10.2925 116.4 9.77912 117.221 9.42712C118.043 9.06046 118.981 8.87712 120.037 8.87712C121.621 8.87712 122.905 9.26579 123.887 10.0431C124.885 10.8058 125.435 11.8765 125.537 13.2551H122.149C122.12 12.7271 121.893 12.2945 121.467 11.9571C121.057 11.6051 120.507 11.4291 119.817 11.4291C119.216 11.4291 118.732 11.5831 118.365 11.8911C118.013 12.1991 117.837 12.6465 117.837 13.2331C117.837 13.6438 117.969 13.9885 118.233 14.2671C118.512 14.5311 118.849 14.7511 119.245 14.9271C119.656 15.0885 120.228 15.2791 120.961 15.4991C121.959 15.7925 122.773 16.0858 123.403 16.3791C124.034 16.6725 124.577 17.1125 125.031 17.6991C125.486 18.2858 125.713 19.0558 125.713 20.0091C125.713 20.8305 125.501 21.5931 125.075 22.2971C124.65 23.0011 124.027 23.5658 123.205 23.9911C122.384 24.4018 121.409 24.6071 120.279 24.6071ZM131.969 14.7951V20.6911C131.969 21.1018 132.065 21.4025 132.255 21.5931C132.461 21.7691 132.798 21.8571 133.267 21.8571H134.697V24.4531H132.761C130.165 24.4531 128.867 23.1918 128.867 20.6691V14.7951H127.415V12.2651H128.867V9.25112H131.969V12.2651H134.697V14.7951H131.969ZM136.121 18.3151C136.121 17.0831 136.363 15.9905 136.847 15.0371C137.345 14.0838 138.013 13.3505 138.849 12.8371C139.699 12.3238 140.645 12.0671 141.687 12.0671C142.596 12.0671 143.388 12.2505 144.063 12.6171C144.752 12.9838 145.302 13.4458 145.713 14.0031V12.2651H148.815V24.4531H145.713V22.6711C145.317 23.2431 144.767 23.7198 144.063 24.1011C143.373 24.4678 142.574 24.6511 141.665 24.6511C140.638 24.6511 139.699 24.3871 138.849 23.8591C138.013 23.3311 137.345 22.5905 136.847 21.6371C136.363 20.6691 136.121 19.5618 136.121 18.3151ZM145.713 18.3591C145.713 17.6111 145.566 16.9731 145.273 16.4451C144.979 15.9025 144.583 15.4918 144.085 15.2131C143.586 14.9198 143.051 14.7731 142.479 14.7731C141.907 14.7731 141.379 14.9125 140.895 15.1911C140.411 15.4698 140.015 15.8805 139.707 16.4231C139.413 16.9511 139.267 17.5818 139.267 18.3151C139.267 19.0485 139.413 19.6938 139.707 20.2511C140.015 20.7938 140.411 21.2118 140.895 21.5051C141.393 21.7985 141.921 21.9451 142.479 21.9451C143.051 21.9451 143.586 21.8058 144.085 21.5271C144.583 21.2338 144.979 20.8231 145.273 20.2951C145.566 19.7525 145.713 19.1071 145.713 18.3591ZM158.577 12.0891C160.029 12.0891 161.202 12.5511 162.097 13.4751C162.992 14.3845 163.439 15.6605 163.439 17.3031V24.4531H160.359V17.7211C160.359 16.7531 160.117 16.0125 159.633 15.4991C159.149 14.9711 158.489 14.7071 157.653 14.7071C156.802 14.7071 156.128 14.9711 155.629 15.4991C155.145 16.0125 154.903 16.7531 154.903 17.7211V24.4531H151.823V12.2651H154.903V13.7831C155.314 13.2551 155.834 12.8445 156.465 12.5511C157.11 12.2431 157.814 12.0891 158.577 12.0891ZM165.576 18.3151C165.576 17.0831 165.818 15.9905 166.302 15.0371C166.801 14.0838 167.475 13.3505 168.326 12.8371C169.177 12.3238 170.123 12.0671 171.164 12.0671C171.956 12.0671 172.711 12.2431 173.43 12.5951C174.149 12.9325 174.721 13.3871 175.146 13.9591V8.17312H178.27V24.4531H175.146V22.6491C174.765 23.2505 174.229 23.7345 173.54 24.1011C172.851 24.4678 172.051 24.6511 171.142 24.6511C170.115 24.6511 169.177 24.3871 168.326 23.8591C167.475 23.3311 166.801 22.5905 166.302 21.6371C165.818 20.6691 165.576 19.5618 165.576 18.3151ZM175.168 18.3591C175.168 17.6111 175.021 16.9731 174.728 16.4451C174.435 15.9025 174.039 15.4918 173.54 15.2131C173.041 14.9198 172.506 14.7731 171.934 14.7731C171.362 14.7731 170.834 14.9125 170.35 15.1911C169.866 15.4698 169.47 15.8805 169.162 16.4231C168.869 16.9511 168.722 17.5818 168.722 18.3151C168.722 19.0485 168.869 19.6938 169.162 20.2511C169.47 20.7938 169.866 21.2118 170.35 21.5051C170.849 21.7985 171.377 21.9451 171.934 21.9451C172.506 21.9451 173.041 21.8058 173.54 21.5271C174.039 21.2338 174.435 20.8231 174.728 20.2951C175.021 19.7525 175.168 19.1071 175.168 18.3591ZM180.486 18.3151C180.486 17.0831 180.728 15.9905 181.212 15.0371C181.711 14.0838 182.378 13.3505 183.214 12.8371C184.065 12.3238 185.011 12.0671 186.052 12.0671C186.961 12.0671 187.753 12.2505 188.428 12.6171C189.117 12.9838 189.667 13.4458 190.078 14.0031V12.2651H193.18V24.4531H190.078V22.6711C189.682 23.2431 189.132 23.7198 188.428 24.1011C187.739 24.4678 186.939 24.6511 186.03 24.6511C185.003 24.6511 184.065 24.3871 183.214 23.8591C182.378 23.3311 181.711 22.5905 181.212 21.6371C180.728 20.6691 180.486 19.5618 180.486 18.3151ZM190.078 18.3591C190.078 17.6111 189.931 16.9731 189.638 16.4451C189.345 15.9025 188.949 15.4918 188.45 15.2131C187.951 14.9198 187.416 14.7731 186.844 14.7731C186.272 14.7731 185.744 14.9125 185.26 15.1911C184.776 15.4698 184.38 15.8805 184.072 16.4231C183.779 16.9511 183.632 17.5818 183.632 18.3151C183.632 19.0485 183.779 19.6938 184.072 20.2511C184.38 20.7938 184.776 21.2118 185.26 21.5051C185.759 21.7985 186.287 21.9451 186.844 21.9451C187.416 21.9451 187.951 21.8058 188.45 21.5271C188.949 21.2338 189.345 20.8231 189.638 20.2951C189.931 19.7525 190.078 19.1071 190.078 18.3591ZM199.268 14.1571C199.664 13.5118 200.177 13.0058 200.808 12.6391C201.453 12.2725 202.187 12.0891 203.008 12.0891V15.3231H202.194C201.226 15.3231 200.493 15.5505 199.994 16.0051C199.51 16.4598 199.268 17.2518 199.268 18.3811V24.4531H196.188V12.2651H199.268V14.1571ZM204.291 18.3151C204.291 17.0831 204.533 15.9905 205.017 15.0371C205.515 14.0838 206.19 13.3505 207.041 12.8371C207.891 12.3238 208.837 12.0671 209.879 12.0671C210.671 12.0671 211.426 12.2431 212.145 12.5951C212.863 12.9325 213.435 13.3871 213.861 13.9591V8.17312H216.985V24.4531H213.861V22.6491C213.479 23.2505 212.944 23.7345 212.255 24.1011C211.565 24.4678 210.766 24.6511 209.857 24.6511C208.83 24.6511 207.891 24.3871 207.041 23.8591C206.19 23.3311 205.515 22.5905 205.017 21.6371C204.533 20.6691 204.291 19.5618 204.291 18.3151ZM213.883 18.3591C213.883 17.6111 213.736 16.9731 213.443 16.4451C213.149 15.9025 212.753 15.4918 212.255 15.2131C211.756 14.9198 211.221 14.7731 210.649 14.7731C210.077 14.7731 209.549 14.9125 209.065 15.1911C208.581 15.4698 208.185 15.8805 207.877 16.4231C207.583 16.9511 207.437 17.5818 207.437 18.3151C207.437 19.0485 207.583 19.6938 207.877 20.2511C208.185 20.7938 208.581 21.2118 209.065 21.5051C209.563 21.7985 210.091 21.9451 210.649 21.9451C211.221 21.9451 211.756 21.8058 212.255 21.5271C212.753 21.2338 213.149 20.8231 213.443 20.2951C213.736 19.7525 213.883 19.1071 213.883 18.3591ZM224.657 24.6511C223.66 24.6511 222.765 24.4751 221.973 24.1231C221.181 23.7565 220.55 23.2651 220.081 22.6491C219.626 22.0331 219.377 21.3511 219.333 20.6031H222.435C222.494 21.0725 222.721 21.4611 223.117 21.7691C223.528 22.0771 224.034 22.2311 224.635 22.2311C225.222 22.2311 225.676 22.1138 225.999 21.8791C226.336 21.6445 226.505 21.3438 226.505 20.9771C226.505 20.5811 226.3 20.2878 225.889 20.0971C225.493 19.8918 224.855 19.6718 223.975 19.4371C223.066 19.2171 222.318 18.9898 221.731 18.7551C221.159 18.5205 220.66 18.1611 220.235 17.6771C219.824 17.1931 219.619 16.5405 219.619 15.7191C219.619 15.0445 219.81 14.4285 220.191 13.8711C220.587 13.3138 221.144 12.8738 221.863 12.5511C222.596 12.2285 223.454 12.0671 224.437 12.0671C225.889 12.0671 227.048 12.4338 227.913 13.1671C228.778 13.8858 229.255 14.8611 229.343 16.0931H226.395C226.351 15.6091 226.146 15.2278 225.779 14.9491C225.427 14.6558 224.95 14.5091 224.349 14.5091C223.792 14.5091 223.359 14.6118 223.051 14.8171C222.758 15.0225 222.611 15.3085 222.611 15.6751C222.611 16.0858 222.816 16.4011 223.227 16.6211C223.638 16.8265 224.276 17.0391 225.141 17.2591C226.021 17.4791 226.747 17.7065 227.319 17.9411C227.891 18.1758 228.382 18.5425 228.793 19.0411C229.218 19.5251 229.438 20.1705 229.453 20.9771C229.453 21.6811 229.255 22.3118 228.859 22.8691C228.478 23.4265 227.92 23.8665 227.187 24.1891C226.468 24.4971 225.625 24.6511 224.657 24.6511ZM61.6167 42.0971V51.6011C61.6167 52.6425 61.8881 53.4418 62.4307 53.9991C62.9734 54.5418 63.7361 54.8131 64.7187 54.8131C65.7161 54.8131 66.4861 54.5418 67.0287 53.9991C67.5714 53.4418 67.8427 52.6425 67.8427 51.6011V42.0971H70.9447V51.5791C70.9447 52.8845 70.6587 53.9918 70.0867 54.9011C69.5294 55.7958 68.7741 56.4705 67.8207 56.9251C66.8821 57.3798 65.8334 57.6071 64.6747 57.6071C63.5307 57.6071 62.4894 57.3798 61.5507 56.9251C60.6267 56.4705 59.8934 55.7958 59.3507 54.9011C58.8081 53.9918 58.5367 52.8845 58.5367 51.5791V42.0971H61.6167ZM87.0546 57.4531H83.9746L77.0006 46.9151V57.4531H73.9206V42.0751H77.0006L83.9746 52.6351V42.0751H87.0546V57.4531ZM89.7903 45.6391C89.8636 44.1725 90.377 43.0431 91.3303 42.2511C92.2983 41.4445 93.567 41.0411 95.1363 41.0411C96.207 41.0411 97.1236 41.2318 97.8863 41.6131C98.649 41.9798 99.221 42.4858 99.6023 43.1311C99.9983 43.7618 100.196 44.4805 100.196 45.2871C100.196 46.2111 99.9543 46.9958 99.4703 47.6411C99.001 48.2718 98.4363 48.6971 97.7763 48.9171V49.0051C98.627 49.2691 99.287 49.7385 99.7563 50.4131C100.24 51.0878 100.482 51.9531 100.482 53.0091C100.482 53.8891 100.277 54.6738 99.8663 55.3631C99.4703 56.0525 98.8763 56.5951 98.0843 56.9911C97.307 57.3725 96.3683 57.5631 95.2683 57.5631C93.611 57.5631 92.2616 57.1451 91.2203 56.3091C90.179 55.4731 89.629 54.2411 89.5703 52.6131H92.5623C92.5916 53.3318 92.8336 53.9111 93.2883 54.3511C93.7576 54.7765 94.3956 54.9891 95.2023 54.9891C95.9503 54.9891 96.5223 54.7838 96.9183 54.3731C97.329 53.9478 97.5343 53.4051 97.5343 52.7451C97.5343 51.8651 97.2556 51.2345 96.6983 50.8531C96.141 50.4718 95.2756 50.2811 94.1023 50.2811H93.4643V47.7511H94.1023C96.185 47.7511 97.2263 47.0545 97.2263 45.6611C97.2263 45.0305 97.0356 44.5391 96.6543 44.1871C96.2876 43.8351 95.7523 43.6591 95.0483 43.6591C94.359 43.6591 93.8236 43.8498 93.4423 44.2311C93.0756 44.5978 92.863 45.0671 92.8043 45.6391H89.7903ZM105.6 48.9611C104.134 48.1985 103.4 47.0178 103.4 45.4191C103.4 44.6271 103.598 43.9085 103.994 43.2631C104.405 42.6031 105.014 42.0825 105.82 41.7011C106.642 41.3051 107.639 41.1071 108.812 41.1071C109.986 41.1071 110.976 41.3051 111.782 41.7011C112.604 42.0825 113.212 42.6031 113.608 43.2631C114.019 43.9085 114.224 44.6271 114.224 45.4191C114.224 46.2258 114.026 46.9371 113.63 47.5531C113.234 48.1545 112.706 48.6238 112.046 48.9611C112.853 49.3131 113.484 49.8265 113.938 50.5011C114.393 51.1758 114.62 51.9751 114.62 52.8991C114.62 53.8965 114.364 54.7691 113.85 55.5171C113.352 56.2505 112.662 56.8151 111.782 57.2111C110.902 57.6071 109.912 57.8051 108.812 57.8051C107.712 57.8051 106.722 57.6071 105.842 57.2111C104.977 56.8151 104.288 56.2505 103.774 55.5171C103.276 54.7691 103.026 53.8965 103.026 52.8991C103.026 51.9751 103.254 51.1758 103.708 50.5011C104.163 49.8118 104.794 49.2985 105.6 48.9611ZM111.232 45.8591C111.232 45.1405 111.012 44.5831 110.572 44.1871C110.147 43.7911 109.56 43.5931 108.812 43.5931C108.079 43.5931 107.492 43.7911 107.052 44.1871C106.627 44.5831 106.414 45.1478 106.414 45.8811C106.414 46.5411 106.634 47.0691 107.074 47.4651C107.529 47.8611 108.108 48.0591 108.812 48.0591C109.516 48.0591 110.096 47.8611 110.55 47.4651C111.005 47.0545 111.232 46.5191 111.232 45.8591ZM108.812 50.3031C107.976 50.3031 107.294 50.5158 106.766 50.9411C106.253 51.3665 105.996 51.9751 105.996 52.7671C105.996 53.5005 106.246 54.1018 106.744 54.5711C107.258 55.0258 107.947 55.2531 108.812 55.2531C109.678 55.2531 110.36 55.0185 110.858 54.5491C111.357 54.0798 111.606 53.4858 111.606 52.7671C111.606 51.9898 111.35 51.3885 110.836 50.9631C110.323 50.5231 109.648 50.3031 108.812 50.3031ZM118.769 57.6071C118.212 57.6071 117.75 57.4385 117.383 57.1011C117.031 56.7491 116.855 56.3165 116.855 55.8031C116.855 55.2898 117.031 54.8645 117.383 54.5271C117.75 54.1751 118.212 53.9991 118.769 53.9991C119.312 53.9991 119.759 54.1751 120.111 54.5271C120.463 54.8645 120.639 55.2898 120.639 55.8031C120.639 56.3165 120.463 56.7491 120.111 57.1011C119.759 57.4385 119.312 57.6071 118.769 57.6071ZM122.812 45.6391C122.885 44.1725 123.398 43.0431 124.352 42.2511C125.32 41.4445 126.588 41.0411 128.158 41.0411C129.228 41.0411 130.145 41.2318 130.908 41.6131C131.67 41.9798 132.242 42.4858 132.624 43.1311C133.02 43.7618 133.218 44.4805 133.218 45.2871C133.218 46.2111 132.976 46.9958 132.492 47.6411C132.022 48.2718 131.458 48.6971 130.798 48.9171V49.0051C131.648 49.2691 132.308 49.7385 132.778 50.4131C133.262 51.0878 133.504 51.9531 133.504 53.0091C133.504 53.8891 133.298 54.6738 132.888 55.3631C132.492 56.0525 131.898 56.5951 131.106 56.9911C130.328 57.3725 129.39 57.5631 128.29 57.5631C126.632 57.5631 125.283 57.1451 124.242 56.3091C123.2 55.4731 122.65 54.2411 122.592 52.6131H125.584C125.613 53.3318 125.855 53.9111 126.31 54.3511C126.779 54.7765 127.417 54.9891 128.224 54.9891C128.972 54.9891 129.544 54.7838 129.94 54.3731C130.35 53.9478 130.556 53.4051 130.556 52.7451C130.556 51.8651 130.277 51.2345 129.72 50.8531C129.162 50.4718 128.297 50.2811 127.124 50.2811H126.486V47.7511H127.124C129.206 47.7511 130.248 47.0545 130.248 45.6611C130.248 45.0305 130.057 44.5391 129.676 44.1871C129.309 43.8351 128.774 43.6591 128.07 43.6591C127.38 43.6591 126.845 43.8498 126.464 44.2311C126.097 44.5978 125.884 45.0671 125.826 45.6391H122.812ZM139.656 54.2191L137.082 60.4011H135.102L136.532 54.2191H139.656ZM146.37 49.7531C146.37 48.2425 146.707 46.8931 147.382 45.7051C148.071 44.5025 149.003 43.5711 150.176 42.9111C151.364 42.2365 152.691 41.8991 154.158 41.8991C155.874 41.8991 157.377 42.3391 158.668 43.2191C159.959 44.0991 160.861 45.3165 161.374 46.8711H157.832C157.48 46.1378 156.981 45.5878 156.336 45.2211C155.705 44.8545 154.972 44.6711 154.136 44.6711C153.241 44.6711 152.442 44.8838 151.738 45.3091C151.049 45.7198 150.506 46.3065 150.11 47.0691C149.729 47.8318 149.538 48.7265 149.538 49.7531C149.538 50.7651 149.729 51.6598 150.11 52.4371C150.506 53.1998 151.049 53.7938 151.738 54.2191C152.442 54.6298 153.241 54.8351 154.136 54.8351C154.972 54.8351 155.705 54.6518 156.336 54.2851C156.981 53.9038 157.48 53.3465 157.832 52.6131H161.374C160.861 54.1825 159.959 55.4071 158.668 56.2871C157.392 57.1525 155.889 57.5851 154.158 57.5851C152.691 57.5851 151.364 57.2551 150.176 56.5951C149.003 55.9205 148.071 54.9891 147.382 53.8011C146.707 52.6131 146.37 51.2638 146.37 49.7531ZM167.085 44.5831V48.4331H172.255V50.8751H167.085V54.9451H172.915V57.4531H164.005V42.0751H172.915V44.5831H167.085ZM179.08 54.2191L176.506 60.4011H174.526L175.956 54.2191H179.08ZM196.024 42.0971V44.5831H189.622V48.5211H194.528V50.9631H189.622V57.4531H186.542V42.0971H196.024ZM197.46 49.7531C197.46 48.2425 197.797 46.8931 198.472 45.7051C199.161 44.5025 200.092 43.5711 201.266 42.9111C202.454 42.2365 203.781 41.8991 205.248 41.8991C206.964 41.8991 208.467 42.3391 209.758 43.2191C211.048 44.0991 211.95 45.3165 212.464 46.8711H208.922C208.57 46.1378 208.071 45.5878 207.426 45.2211C206.795 44.8545 206.062 44.6711 205.226 44.6711C204.331 44.6711 203.532 44.8838 202.828 45.3091C202.138 45.7198 201.596 46.3065 201.2 47.0691C200.818 47.8318 200.628 48.7265 200.628 49.7531C200.628 50.7651 200.818 51.6598 201.2 52.4371C201.596 53.1998 202.138 53.7938 202.828 54.2191C203.532 54.6298 204.331 54.8351 205.226 54.8351C206.062 54.8351 206.795 54.6518 207.426 54.2851C208.071 53.9038 208.57 53.3465 208.922 52.6131H212.464C211.95 54.1825 211.048 55.4071 209.758 56.2871C208.482 57.1525 206.978 57.5851 205.248 57.5851C203.781 57.5851 202.454 57.2551 201.266 56.5951C200.092 55.9205 199.161 54.9891 198.472 53.8011C197.797 52.6131 197.46 51.2638 197.46 49.7531ZM214.346 49.7531C214.346 48.2425 214.684 46.8931 215.358 45.7051C216.048 44.5025 216.979 43.5711 218.152 42.9111C219.34 42.2365 220.668 41.8991 222.134 41.8991C223.85 41.8991 225.354 42.3391 226.644 43.2191C227.935 44.0991 228.837 45.3165 229.35 46.8711H225.808C225.456 46.1378 224.958 45.5878 224.312 45.2211C223.682 44.8545 222.948 44.6711 222.112 44.6711C221.218 44.6711 220.418 44.8838 219.714 45.3091C219.025 45.7198 218.482 46.3065 218.086 47.0691C217.705 47.8318 217.514 48.7265 217.514 49.7531C217.514 50.7651 217.705 51.6598 218.086 52.4371C218.482 53.1998 219.025 53.7938 219.714 54.2191C220.418 54.6298 221.218 54.8351 222.112 54.8351C222.948 54.8351 223.682 54.6518 224.312 54.2851C224.958 53.9038 225.456 53.3465 225.808 52.6131H229.35C228.837 54.1825 227.935 55.4071 226.644 56.2871C225.368 57.1525 223.865 57.5851 222.134 57.5851C220.668 57.5851 219.34 57.2551 218.152 56.5951C216.979 55.9205 216.048 54.9891 215.358 53.8011C214.684 52.6131 214.346 51.2638 214.346 49.7531Z" fill="white"/>
<g clip-path="url(#clip0)">
<path d="M14.3267 75.5005C6.6067 75.5005 0.366699 81.7505 0.366699 89.4705C0.366699 97.1905 6.6067 103.44 14.3267 103.44C22.0567 103.44 28.2967 97.1905 28.2967 89.4705C28.2967 81.7505 22.0567 75.5005 14.3267 75.5005ZM12.6867 84.5405C9.9667 84.5405 7.7567 86.7505 7.7567 89.4705C7.7567 92.1905 9.9667 94.4005 12.6867 94.4005V96.0405C9.0667 96.0405 6.1167 93.0905 6.1167 89.4705C6.1167 85.8405 9.0667 82.9005 12.6867 82.9005V84.5405ZM20.9067 84.5405C18.4667 84.5405 16.4367 86.3205 16.0467 88.6505H20.9067V90.2905H16.0467C16.4367 92.6205 18.4667 94.4005 20.9067 94.4005V96.0405C17.2767 96.0405 14.3267 93.0905 14.3267 89.4705C14.3267 85.8405 17.2767 82.9005 20.9067 82.9005V84.5405Z" fill="white"/>
<path fill-rule="evenodd" clip-rule="evenodd" d="M115.056 98.068C110.486 98.068 106.766 94.338 106.766 89.778C106.766 85.208 110.486 81.488 115.056 81.488C117.806 81.488 120.256 82.838 121.756 84.918H125.186C123.366 81.148 119.506 78.528 115.056 78.528C109.326 78.528 104.586 82.838 103.896 88.378H96.3461V82.918C96.3461 82.288 96.8561 81.778 97.4861 81.768H104.426V77.918H96.3461C94.2261 77.918 92.4961 79.648 92.4961 81.768V99.878C92.5061 100.508 93.0161 101.018 93.6461 101.018H96.3461V91.388H103.926C104.706 96.828 109.406 101.018 115.056 101.018C119.416 101.018 123.226 98.508 125.086 94.848H121.596C120.086 96.798 117.706 98.068 115.056 98.068ZM115.056 93.738C112.866 93.738 111.096 91.958 111.096 89.778C111.096 87.598 112.866 85.818 115.056 85.818C116.406 85.818 117.606 86.498 118.316 87.548H121.596C120.666 84.828 118.076 82.858 115.056 82.858C111.246 82.858 108.136 85.968 108.136 89.778C108.136 93.588 111.246 96.688 115.056 96.688C118.026 96.688 120.576 94.788 121.546 92.138H118.226C117.506 93.108 116.346 93.738 115.056 93.738Z" fill="white"/>
<path d="M46.1668 88.9105C45.9468 88.9805 45.4068 89.0205 44.5368 89.0205H43.1968V86.7405H44.6068C45.3468 86.7405 45.7868 86.7505 45.9368 86.7705C46.2268 86.8205 46.4568 86.9405 46.6168 87.1205C46.7768 87.3105 46.8568 87.5505 46.8568 87.8605C46.8568 88.1205 46.7968 88.3505 46.6768 88.5305C46.5568 88.7105 46.3868 88.8305 46.1668 88.9105Z" fill="white"/>
<path d="M55.2067 89.4604C54.9067 89.1204 54.5267 88.9504 54.0767 88.9504C53.6267 88.9504 53.2467 89.1204 52.9467 89.4604C52.6367 89.8104 52.4867 90.3004 52.4867 90.9504C52.4867 91.5904 52.6367 92.0904 52.9467 92.4304C53.2467 92.7704 53.6267 92.9404 54.0767 92.9404C54.5267 92.9404 54.9067 92.7704 55.2067 92.4304C55.5167 92.0804 55.6667 91.5904 55.6667 90.9304C55.6667 90.3004 55.5167 89.8104 55.2067 89.4604ZM55.2067 89.4604C54.9067 89.1204 54.5267 88.9504 54.0767 88.9504C53.6267 88.9504 53.2467 89.1204 52.9467 89.4604C52.6367 89.8104 52.4867 90.3004 52.4867 90.9504C52.4867 91.5904 52.6367 92.0904 52.9467 92.4304C53.2467 92.7704 53.6267 92.9404 54.0767 92.9404C54.5267 92.9404 54.9067 92.7704 55.2067 92.4304C55.5167 92.0804 55.6667 91.5904 55.6667 90.9304C55.6667 90.3004 55.5167 89.8104 55.2067 89.4604ZM82.1467 77.9204H35.3167C34.6367 77.9204 34.0867 78.4704 34.0867 79.1504V100.28C34.0867 100.96 34.6367 101.51 35.3167 101.51H82.1467C82.8267 101.51 83.3767 100.96 83.3767 100.28V79.1504C83.3767 78.4704 82.8267 77.9204 82.1467 77.9204ZM47.2867 94.2004L45.9767 92.2504C45.5067 91.5504 45.1967 91.1104 45.0267 90.9304C44.8567 90.7504 44.6667 90.6204 44.4767 90.5504C44.2867 90.4904 43.9867 90.4504 43.5667 90.4504H43.2067V94.2004H41.3867V85.2204H45.2067C46.1667 85.2204 46.8567 85.3004 47.2967 85.4604C47.7267 85.6204 48.0767 85.9104 48.3367 86.3204C48.5967 86.7404 48.7267 87.2104 48.7267 87.7404C48.7267 88.4104 48.5267 88.9704 48.1267 89.4104C47.7367 89.8504 47.1467 90.1304 46.3567 90.2404C46.7467 90.4704 47.0667 90.7204 47.3267 90.9904C47.5867 91.2704 47.9267 91.7504 48.3567 92.4504L49.4567 94.2004H47.2867ZM56.4767 93.3804C55.8467 94.0204 55.0467 94.3504 54.0867 94.3504C53.4867 94.3504 52.9167 94.2104 52.3767 93.9404C51.8367 93.6704 51.4267 93.2804 51.1367 92.7604C50.8667 92.2404 50.7267 91.6004 50.7267 90.8504C50.7267 90.2804 50.8667 89.7304 51.1467 89.1904C51.4267 88.6604 51.8267 88.2504 52.3367 87.9704C52.8567 87.6904 53.4367 87.5504 54.0767 87.5504C55.0567 87.5504 55.8567 87.8704 56.4867 88.5104C57.1167 89.1504 57.4367 89.9504 57.4367 90.9304C57.4367 91.9104 57.1167 92.7304 56.4767 93.3804ZM66.6767 94.2004H64.8567V90.2704H61.3067V94.2004H59.4967V85.2204H61.3067V88.7604H64.8567V85.2204H66.6767V94.2004ZM75.6567 93.0204C75.3667 93.4704 74.9667 93.8104 74.4467 94.0304C73.9167 94.2504 73.2667 94.3604 72.4867 94.3604C71.3567 94.3604 70.4867 94.0904 69.8767 93.5704C69.2667 93.0504 68.9067 92.2804 68.7867 91.2804L70.5467 91.1104C70.6567 91.7004 70.8667 92.1304 71.1967 92.4104C71.5167 92.6904 71.9567 92.8304 72.5067 92.8304C73.0867 92.8304 73.5267 92.7004 73.8267 92.4504C74.1267 92.2104 74.2767 91.9204 74.2767 91.5904C74.2767 91.3804 74.2067 91.2004 74.0867 91.0504C73.9667 90.9004 73.7467 90.7704 73.4367 90.6604C73.2267 90.5904 72.7367 90.4504 71.9867 90.2704C71.0167 90.0304 70.3267 89.7304 69.9367 89.3804C69.3867 88.8904 69.1167 88.2804 69.1167 87.5704C69.1167 87.1204 69.2467 86.6904 69.4967 86.2904C69.7567 85.8904 70.1367 85.5904 70.6167 85.3804C71.1067 85.1804 71.6967 85.0704 72.3867 85.0704C73.5167 85.0704 74.3667 85.3204 74.9367 85.8104C75.4967 86.3104 75.7967 86.9604 75.8267 87.7904L74.0167 87.8704C73.9367 87.4104 73.7667 87.0704 73.5167 86.8704C73.2567 86.6704 72.8767 86.5704 72.3667 86.5704C71.8367 86.5704 71.4267 86.6704 71.1367 86.8904C70.9467 87.0304 70.8467 87.2204 70.8467 87.4504C70.8467 87.6604 70.9367 87.8504 71.1167 87.9904C71.3467 88.1904 71.8967 88.3904 72.7767 88.5904C73.6567 88.8004 74.3167 89.0204 74.7367 89.2404C75.1567 89.4604 75.4867 89.7604 75.7267 90.1504C75.9667 90.5404 76.0867 91.0104 76.0867 91.5804C76.0867 92.0904 75.9367 92.5804 75.6567 93.0204ZM54.0767 88.9504C53.6267 88.9504 53.2467 89.1204 52.9467 89.4604C52.6367 89.8104 52.4867 90.3004 52.4867 90.9504C52.4867 91.5904 52.6367 92.0904 52.9467 92.4304C53.2467 92.7704 53.6267 92.9404 54.0767 92.9404C54.5267 92.9404 54.9067 92.7704 55.2067 92.4304C55.5167 92.0804 55.6667 91.5904 55.6667 90.9304C55.6667 90.3004 55.5167 89.8104 55.2067 89.4604C54.9067 89.1204 54.5267 88.9504 54.0767 88.9504ZM55.2067 89.4604C54.9067 89.1204 54.5267 88.9504 54.0767 88.9504C53.6267 88.9504 53.2467 89.1204 52.9467 89.4604C52.6367 89.8104 52.4867 90.3004 52.4867 90.9504C52.4867 91.5904 52.6367 92.0904 52.9467 92.4304C53.2467 92.7704 53.6267 92.9404 54.0767 92.9404C54.5267 92.9404 54.9067 92.7704 55.2067 92.4304C55.5167 92.0804 55.6667 91.5904 55.6667 90.9304C55.6667 90.3004 55.5167 89.8104 55.2067 89.4604ZM55.2067 89.4604C54.9067 89.1204 54.5267 88.9504 54.0767 88.9504C53.6267 88.9504 53.2467 89.1204 52.9467 89.4604C52.6367 89.8104 52.4867 90.3004 52.4867 90.9504C52.4867 91.5904 52.6367 92.0904 52.9467 92.4304C53.2467 92.7704 53.6267 92.9404 54.0767 92.9404C54.5267 92.9404 54.9067 92.7704 55.2067 92.4304C55.5167 92.0804 55.6667 91.5904 55.6667 90.9304C55.6667 90.3004 55.5167 89.8104 55.2067 89.4604Z" fill="white"/>
<path d="M194.697 99.0605L182.897 78.6105C182.677 78.2405 182.277 78.0105 181.847 78.0105C181.417 78.0105 181.017 78.2405 180.797 78.6105L168.937 99.1605C168.717 99.5305 168.717 99.9905 168.937 100.37C169.157 100.74 169.557 100.97 169.987 100.97H193.717C194.387 100.97 194.927 100.43 194.927 99.7605C194.927 99.5005 194.837 99.2505 194.697 99.0605ZM184.787 98.5505C185.997 97.8705 188.527 95.9205 185.947 92.7105C185.947 92.7105 186.787 95.6005 185.017 95.6005C184.787 95.6005 184.257 95.2505 184.707 94.5305C184.707 94.5305 186.057 92.0305 183.997 91.1205C183.997 91.1205 184.587 92.2305 183.637 92.9905C183.247 91.5905 181.567 90.5805 181.567 90.5805C179.957 89.5305 180.867 87.8405 180.867 87.8405C178.007 89.1005 179.887 92.5805 179.887 92.5805C180.497 93.5805 179.767 94.0505 179.457 94.0505C176.997 94.0505 178.157 90.0505 178.157 90.0505C174.397 94.7305 178.477 97.6705 180.007 98.5505H172.077L181.847 81.6405L191.617 98.5505H184.787Z" fill="white"/>
<path d="M150.657 88.4606C151.387 88.6006 152.117 88.1806 152.367 87.4806L153.657 83.8006C153.767 83.4706 153.417 83.1806 153.117 83.3506L152.157 83.9106L149.597 79.5006C149.287 78.9606 148.707 78.6206 148.077 78.6206H144.157C143.527 78.6206 142.947 78.9506 142.637 79.5006L139.907 84.2306C139.667 84.6506 139.807 85.1806 140.227 85.4206L143.177 87.1206C143.597 87.3606 144.127 87.2206 144.367 86.8006L146.117 83.7706L147.677 86.4806L146.707 87.0406C146.407 87.2106 146.487 87.6606 146.827 87.7306L150.657 88.4606Z" fill="white"/>
<path d="M158.837 96.6706C159.147 96.1206 159.137 95.4606 158.827 94.9106L156.057 90.2006C155.817 89.7906 155.277 89.6506 154.867 89.8906L151.927 91.6206C151.517 91.8606 151.377 92.4006 151.617 92.8106L153.387 95.8306L150.257 95.8506L150.247 94.7306C150.247 94.3806 149.817 94.2306 149.587 94.4906L147.067 97.4506C146.587 98.0206 146.587 98.8606 147.077 99.4206L149.647 102.361C149.877 102.621 150.307 102.461 150.297 102.111L150.287 101.001L155.377 100.961C156.007 100.961 156.577 100.621 156.887 100.071L158.837 96.6706Z" fill="white"/>
<path d="M142.007 95.8806L138.507 95.8706L140.087 93.1706L141.057 93.7306C141.357 93.9006 141.707 93.6106 141.597 93.2906L140.337 89.6106C140.097 88.9006 139.367 88.4806 138.637 88.6206L134.797 89.3306C134.457 89.3906 134.377 89.8406 134.677 90.0206L135.637 90.5806L133.077 94.9806C132.757 95.5206 132.757 96.1906 133.067 96.7406L135.007 100.141C135.317 100.681 135.897 101.021 136.527 101.021L141.987 101.041C142.467 101.041 142.857 100.651 142.857 100.171L142.867 96.7606C142.877 96.2706 142.487 95.8806 142.007 95.8806Z" fill="white"/>
<path d="M219.907 90.6905L218.137 89.0705L217.307 88.3105C217.027 88.0505 216.697 87.8605 216.337 87.7505C216.707 87.4805 216.997 87.1105 217.167 86.6705V86.6605C217.267 86.4105 217.317 86.1305 217.317 85.8405C217.317 84.5305 216.257 83.4705 214.957 83.4705C213.657 83.4705 212.597 84.5305 212.597 85.8405C212.597 86.6205 212.987 87.3205 213.577 87.7505C213.217 87.8605 212.887 88.0505 212.607 88.3105L210.007 90.6905C209.777 90.9005 209.637 91.2005 209.637 91.5105C209.637 92.1305 210.137 92.6305 210.777 92.6305C210.987 92.6305 211.207 92.5605 211.387 92.4405H211.397C211.457 92.4005 211.517 92.3505 211.567 92.3005L212.627 91.2405C212.657 91.6005 212.717 91.9505 212.807 92.2905L211.747 93.7705C211.347 94.3005 211.307 95.0005 211.647 95.5605C211.657 95.5905 211.667 95.6105 211.687 95.6405L212.707 97.1805C212.907 97.4705 213.237 97.6505 213.597 97.6505C214.187 97.6505 214.657 97.1705 214.657 96.5905V96.4405C214.657 96.2005 214.577 95.9705 214.427 95.7805L213.607 94.7505L214.067 94.4005C214.627 94.7905 215.277 94.7905 215.847 94.4005L216.307 94.7505L215.487 95.7805C215.337 95.9705 215.257 96.2005 215.257 96.4405V96.5905C215.257 97.1705 215.727 97.6505 216.317 97.6505C216.677 97.6505 217.007 97.4705 217.207 97.1805L218.237 95.6305C218.607 95.0605 218.587 94.3205 218.187 93.7905L217.107 92.2905C217.197 91.9505 217.257 91.6005 217.287 91.2405L218.347 92.3005C218.557 92.5105 218.837 92.6305 219.157 92.6305C219.767 92.6305 220.277 92.1305 220.277 91.5105C220.277 91.2005 220.137 90.9005 219.907 90.6905ZM214.957 94.1105C214.557 94.1105 214.177 93.8305 213.867 93.3405C213.697 93.0605 213.547 92.7205 213.427 92.3305H216.487C216.167 93.4105 215.577 94.1105 214.957 94.1105Z" fill="white"/>
<path d="M214.957 78.6604C208.377 78.6604 203.047 83.9804 203.047 90.5604C203.047 97.1404 208.377 102.47 214.957 102.47C221.537 102.47 226.867 97.1404 226.867 90.5604C226.867 83.9804 221.537 78.6604 214.957 78.6604ZM205.427 90.5604C205.427 85.3004 209.697 81.0404 214.957 81.0404C217.157 81.0404 219.177 81.7904 220.787 83.0404L217.167 86.6604V86.6704L211.397 92.4404H211.387L207.437 96.4004C206.187 94.7804 205.427 92.7604 205.427 90.5604ZM214.957 100.09C212.757 100.09 210.737 99.3304 209.127 98.0804L211.647 95.5604L213.867 93.3404L222.477 84.7304C223.727 86.3404 224.477 88.3604 224.477 90.5604C224.477 95.8204 220.217 100.09 214.957 100.09Z" fill="white"/>
</g>
<defs>
<clipPath id="clip0">
<rect width="226.5" height="27.94" fill="white" transform="translate(0.366699 75.5005)"/>
</clipPath>
</defs>
</svg>
