<svg width="257" height="61" viewBox="0 0 257 61" fill="none" xmlns="http://www.w3.org/2000/svg">
<path d="M8.28467 21.6003C6.84734 21.6003 5.52734 21.263 4.32467 20.5883C3.12201 19.9136 2.16867 18.9823 1.46467 17.7943C0.760672 16.5916 0.408672 15.235 0.408672 13.7243C0.408672 12.2283 0.760672 10.8863 1.46467 9.69829C2.16867 8.49562 3.12201 7.55695 4.32467 6.88229C5.52734 6.20762 6.84734 5.87029 8.28467 5.87029C9.73667 5.87029 11.0567 6.20762 12.2447 6.88229C13.4473 7.55695 14.3933 8.49562 15.0827 9.69829C15.7867 10.8863 16.1387 12.2283 16.1387 13.7243C16.1387 15.235 15.7867 16.5916 15.0827 17.7943C14.3933 18.9823 13.4473 19.9136 12.2447 20.5883C11.042 21.263 9.72201 21.6003 8.28467 21.6003ZM8.28467 18.8503C9.20867 18.8503 10.0227 18.645 10.7267 18.2343C11.4307 17.809 11.9807 17.2076 12.3767 16.4303C12.7727 15.653 12.9707 14.751 12.9707 13.7243C12.9707 12.6976 12.7727 11.803 12.3767 11.0403C11.9807 10.263 11.4307 9.66896 10.7267 9.25829C10.0227 8.84762 9.20867 8.64229 8.28467 8.64229C7.36067 8.64229 6.53934 8.84762 5.82067 9.25829C5.11667 9.66896 4.56667 10.263 4.17067 11.0403C3.77467 11.803 3.57667 12.6976 3.57667 13.7243C3.57667 14.751 3.77467 15.653 4.17067 16.4303C4.56667 17.2076 5.11667 17.809 5.82067 18.2343C6.53934 18.645 7.36067 18.8503 8.28467 18.8503ZM29.9361 9.25829V21.4463H26.8341V19.9063C26.4381 20.4343 25.9174 20.8523 25.2721 21.1603C24.6414 21.4536 23.9521 21.6003 23.2041 21.6003C22.2508 21.6003 21.4074 21.4023 20.6741 21.0063C19.9408 20.5956 19.3614 20.0016 18.9361 19.2243C18.5254 18.4323 18.3201 17.4936 18.3201 16.4083V9.25829H21.4001V15.9683C21.4001 16.9363 21.6421 17.6843 22.1261 18.2123C22.6101 18.7256 23.2701 18.9823 24.1061 18.9823C24.9568 18.9823 25.6241 18.7256 26.1081 18.2123C26.5921 17.6843 26.8341 16.9363 26.8341 15.9683V9.25829H29.9361ZM36.561 11.7883V17.6843C36.561 18.095 36.6564 18.3956 36.847 18.5863C37.0524 18.7623 37.3897 18.8503 37.859 18.8503H39.289V21.4463H37.353C34.757 21.4463 33.459 20.185 33.459 17.6623V11.7883H32.007V9.25829H33.459V6.24429H36.561V9.25829H39.289V11.7883H36.561ZM44.5843 11.0183C44.9803 10.461 45.523 9.99896 46.2123 9.63229C46.9163 9.25096 47.7157 9.06029 48.6103 9.06029C49.6517 9.06029 50.5903 9.31696 51.4263 9.83029C52.277 10.3436 52.9443 11.077 53.4283 12.0303C53.927 12.969 54.1763 14.0616 54.1763 15.3083C54.1763 16.555 53.927 17.6623 53.4283 18.6303C52.9443 19.5836 52.277 20.3243 51.4263 20.8523C50.5903 21.3803 49.6517 21.6443 48.6103 21.6443C47.7157 21.6443 46.9237 21.461 46.2343 21.0943C45.5597 20.7276 45.0097 20.2656 44.5843 19.7083V27.2543H41.5043V9.25829H44.5843V11.0183ZM51.0303 15.3083C51.0303 14.575 50.8763 13.9443 50.5683 13.4163C50.275 12.8736 49.879 12.463 49.3803 12.1843C48.8963 11.9056 48.3683 11.7663 47.7963 11.7663C47.239 11.7663 46.711 11.913 46.2123 12.2063C45.7283 12.485 45.3323 12.8956 45.0243 13.4383C44.731 13.981 44.5843 14.619 44.5843 15.3523C44.5843 16.0856 44.731 16.7236 45.0243 17.2663C45.3323 17.809 45.7283 18.227 46.2123 18.5203C46.711 18.799 47.239 18.9383 47.7963 18.9383C48.3683 18.9383 48.8963 18.7916 49.3803 18.4983C49.879 18.205 50.275 17.787 50.5683 17.2443C50.8763 16.7016 51.0303 16.0563 51.0303 15.3083ZM67.9205 9.25829V21.4463H64.8185V19.9063C64.4225 20.4343 63.9018 20.8523 63.2565 21.1603C62.6258 21.4536 61.9365 21.6003 61.1885 21.6003C60.2352 21.6003 59.3918 21.4023 58.6585 21.0063C57.9252 20.5956 57.3458 20.0016 56.9205 19.2243C56.5098 18.4323 56.3045 17.4936 56.3045 16.4083V9.25829H59.3845V15.9683C59.3845 16.9363 59.6265 17.6843 60.1105 18.2123C60.5945 18.7256 61.2545 18.9823 62.0905 18.9823C62.9412 18.9823 63.6085 18.7256 64.0925 18.2123C64.5765 17.6843 64.8185 16.9363 64.8185 15.9683V9.25829H67.9205ZM74.5454 11.7883V17.6843C74.5454 18.095 74.6407 18.3956 74.8314 18.5863C75.0367 18.7623 75.3741 18.8503 75.8434 18.8503H77.2734V21.4463H75.3374C72.7414 21.4463 71.4434 20.185 71.4434 17.6623V11.7883H69.9914V9.25829H71.4434V6.24429H74.5454V9.25829H77.2734V11.7883H74.5454ZM89.8129 18.6083L92.8929 9.25829H96.1709L91.6609 21.4463H87.9209L83.4329 9.25829H86.7329L89.8129 18.6083ZM103.313 21.6443C102.139 21.6443 101.083 21.3876 100.145 20.8743C99.2061 20.3463 98.4655 19.6056 97.9228 18.6523C97.3948 17.699 97.1308 16.599 97.1308 15.3523C97.1308 14.1056 97.4021 13.0056 97.9448 12.0523C98.5021 11.099 99.2575 10.3656 100.211 9.85229C101.164 9.32429 102.227 9.06029 103.401 9.06029C104.574 9.06029 105.637 9.32429 106.591 9.85229C107.544 10.3656 108.292 11.099 108.835 12.0523C109.392 13.0056 109.671 14.1056 109.671 15.3523C109.671 16.599 109.385 17.699 108.813 18.6523C108.255 19.6056 107.493 20.3463 106.525 20.8743C105.571 21.3876 104.501 21.6443 103.313 21.6443ZM103.313 18.9603C103.87 18.9603 104.391 18.8283 104.875 18.5643C105.373 18.2856 105.769 17.875 106.063 17.3323C106.356 16.7896 106.503 16.1296 106.503 15.3523C106.503 14.1936 106.195 13.3063 105.579 12.6903C104.977 12.0596 104.237 11.7443 103.357 11.7443C102.477 11.7443 101.736 12.0596 101.135 12.6903C100.548 13.3063 100.255 14.1936 100.255 15.3523C100.255 16.511 100.541 17.4056 101.113 18.0363C101.699 18.6523 102.433 18.9603 103.313 18.9603ZM115.01 5.16629V21.4463H111.93V5.16629H115.01ZM121.639 11.7883V17.6843C121.639 18.095 121.734 18.3956 121.925 18.5863C122.13 18.7623 122.468 18.8503 122.937 18.8503H124.367V21.4463H122.431C119.835 21.4463 118.537 20.185 118.537 17.6623V11.7883H117.085V9.25829H118.537V6.24429H121.639V9.25829H124.367V11.7883H121.639ZM125.79 15.3083C125.79 14.0763 126.032 12.9836 126.516 12.0303C127.015 11.077 127.682 10.3436 128.518 9.83029C129.369 9.31696 130.315 9.06029 131.356 9.06029C132.266 9.06029 133.058 9.24362 133.732 9.61029C134.422 9.97696 134.972 10.439 135.382 10.9963V9.25829H138.484V21.4463H135.382V19.6643C134.986 20.2363 134.436 20.713 133.732 21.0943C133.043 21.461 132.244 21.6443 131.334 21.6443C130.308 21.6443 129.369 21.3803 128.518 20.8523C127.682 20.3243 127.015 19.5836 126.516 18.6303C126.032 17.6623 125.79 16.555 125.79 15.3083ZM135.382 15.3523C135.382 14.6043 135.236 13.9663 134.942 13.4383C134.649 12.8956 134.253 12.485 133.754 12.2063C133.256 11.913 132.72 11.7663 132.148 11.7663C131.576 11.7663 131.048 11.9056 130.564 12.1843C130.08 12.463 129.684 12.8736 129.376 13.4163C129.083 13.9443 128.936 14.575 128.936 15.3083C128.936 16.0416 129.083 16.687 129.376 17.2443C129.684 17.787 130.08 18.205 130.564 18.4983C131.063 18.7916 131.591 18.9383 132.148 18.9383C132.72 18.9383 133.256 18.799 133.754 18.5203C134.253 18.227 134.649 17.8163 134.942 17.2883C135.236 16.7456 135.382 16.1003 135.382 15.3523ZM146.267 9.06029C147.176 9.06029 147.975 9.24362 148.665 9.61029C149.354 9.96229 149.897 10.4243 150.293 10.9963V9.25829H153.395V21.5343C153.395 22.6636 153.167 23.6683 152.713 24.5483C152.258 25.443 151.576 26.147 150.667 26.6603C149.757 27.1883 148.657 27.4523 147.367 27.4523C145.636 27.4523 144.213 27.049 143.099 26.2423C141.999 25.4356 141.375 24.3356 141.229 22.9423H144.287C144.448 23.4996 144.793 23.9396 145.321 24.2623C145.863 24.5996 146.516 24.7683 147.279 24.7683C148.173 24.7683 148.899 24.497 149.457 23.9543C150.014 23.4263 150.293 22.6196 150.293 21.5343V19.6423C149.897 20.2143 149.347 20.691 148.643 21.0723C147.953 21.4536 147.161 21.6443 146.267 21.6443C145.24 21.6443 144.301 21.3803 143.451 20.8523C142.6 20.3243 141.925 19.5836 141.427 18.6303C140.943 17.6623 140.701 16.555 140.701 15.3083C140.701 14.0763 140.943 12.9836 141.427 12.0303C141.925 11.077 142.593 10.3436 143.429 9.83029C144.279 9.31696 145.225 9.06029 146.267 9.06029ZM150.293 15.3523C150.293 14.6043 150.146 13.9663 149.853 13.4383C149.559 12.8956 149.163 12.485 148.665 12.2063C148.166 11.913 147.631 11.7663 147.059 11.7663C146.487 11.7663 145.959 11.9056 145.475 12.1843C144.991 12.463 144.595 12.8736 144.287 13.4163C143.993 13.9443 143.847 14.575 143.847 15.3083C143.847 16.0416 143.993 16.687 144.287 17.2443C144.595 17.787 144.991 18.205 145.475 18.4983C145.973 18.7916 146.501 18.9383 147.059 18.9383C147.631 18.9383 148.166 18.799 148.665 18.5203C149.163 18.227 149.559 17.8163 149.853 17.2883C150.146 16.7456 150.293 16.1003 150.293 15.3523ZM167.733 15.0883C167.733 15.5283 167.703 15.9243 167.645 16.2763H158.735C158.808 17.1563 159.116 17.8456 159.659 18.3443C160.201 18.843 160.869 19.0923 161.661 19.0923C162.805 19.0923 163.619 18.601 164.103 17.6183H167.425C167.073 18.7916 166.398 19.7596 165.401 20.5223C164.403 21.2703 163.179 21.6443 161.727 21.6443C160.553 21.6443 159.497 21.3876 158.559 20.8743C157.635 20.3463 156.909 19.6056 156.381 18.6523C155.867 17.699 155.611 16.599 155.611 15.3523C155.611 14.091 155.867 12.9836 156.381 12.0303C156.894 11.077 157.613 10.3436 158.537 9.83029C159.461 9.31696 160.524 9.06029 161.727 9.06029C162.885 9.06029 163.919 9.30962 164.829 9.80829C165.753 10.307 166.464 11.0183 166.963 11.9423C167.476 12.8516 167.733 13.9003 167.733 15.0883ZM164.543 14.2083C164.528 13.4163 164.242 12.7856 163.685 12.3163C163.127 11.8323 162.445 11.5903 161.639 11.5903C160.876 11.5903 160.231 11.825 159.703 12.2943C159.189 12.749 158.874 13.387 158.757 14.2083H164.543ZM185.651 8.07029H178.523V11.8323C178.831 11.451 179.271 11.143 179.843 10.9083C180.415 10.659 181.024 10.5343 181.669 10.5343C182.842 10.5343 183.803 10.791 184.551 11.3043C185.299 11.8176 185.842 12.4776 186.179 13.2843C186.516 14.0763 186.685 14.927 186.685 15.8363C186.685 17.523 186.201 18.8796 185.233 19.9063C184.28 20.933 182.916 21.4463 181.141 21.4463C179.469 21.4463 178.134 21.0283 177.137 20.1923C176.14 19.3563 175.575 18.2636 175.443 16.9143H178.435C178.567 17.501 178.86 17.9703 179.315 18.3223C179.784 18.6743 180.378 18.8503 181.097 18.8503C181.962 18.8503 182.615 18.579 183.055 18.0363C183.495 17.4936 183.715 16.775 183.715 15.8803C183.715 14.971 183.488 14.2816 183.033 13.8123C182.593 13.3283 181.94 13.0863 181.075 13.0863C180.459 13.0863 179.946 13.2403 179.535 13.5483C179.124 13.8563 178.831 14.267 178.655 14.7803H175.707V5.36429H185.651V8.07029ZM208.417 6.09029L202.785 21.4463H199.045L193.413 6.09029H196.713L200.937 18.3003L205.139 6.09029H208.417ZM215.632 6.09029C217.245 6.09029 218.661 6.40562 219.878 7.03629C221.11 7.66695 222.056 8.56895 222.716 9.74229C223.391 10.901 223.728 12.2503 223.728 13.7903C223.728 15.3303 223.391 16.6796 222.716 17.8383C222.056 18.9823 221.11 19.8696 219.878 20.5003C218.661 21.131 217.245 21.4463 215.632 21.4463H210.264V6.09029H215.632ZM215.522 18.8283C217.135 18.8283 218.382 18.3883 219.262 17.5083C220.142 16.6283 220.582 15.389 220.582 13.7903C220.582 12.1916 220.142 10.945 219.262 10.0503C218.382 9.14096 217.135 8.68629 215.522 8.68629H213.344V18.8283H215.522ZM225.286 13.7463C225.286 12.2356 225.623 10.8863 226.298 9.69829C226.987 8.49562 227.918 7.56429 229.092 6.90429C230.28 6.22962 231.607 5.89229 233.074 5.89229C234.79 5.89229 236.293 6.33229 237.584 7.21229C238.874 8.09229 239.776 9.30962 240.29 10.8643H236.748C236.396 10.131 235.897 9.58096 235.252 9.21429C234.621 8.84762 233.888 8.66429 233.052 8.66429C232.157 8.66429 231.358 8.87695 230.654 9.30229C229.964 9.71295 229.422 10.2996 229.026 11.0623C228.644 11.825 228.454 12.7196 228.454 13.7463C228.454 14.7583 228.644 15.653 229.026 16.4303C229.422 17.193 229.964 17.787 230.654 18.2123C231.358 18.623 232.157 18.8283 233.052 18.8283C233.888 18.8283 234.621 18.645 235.252 18.2783C235.897 17.897 236.396 17.3396 236.748 16.6063H240.29C239.776 18.1756 238.874 19.4003 237.584 20.2803C236.308 21.1456 234.804 21.5783 233.074 21.5783C231.607 21.5783 230.28 21.2483 229.092 20.5883C227.918 19.9136 226.987 18.9823 226.298 17.7943C225.623 16.6063 225.286 15.257 225.286 13.7463ZM256.413 0.612288L250.473 25.4283H247.459L253.399 0.612288H256.413ZM8.28467 54.6003C6.84734 54.6003 5.52734 54.263 4.32467 53.5883C3.12201 52.9136 2.16867 51.9823 1.46467 50.7943C0.760672 49.5916 0.408672 48.235 0.408672 46.7243C0.408672 45.2283 0.760672 43.8863 1.46467 42.6983C2.16867 41.4956 3.12201 40.557 4.32467 39.8823C5.52734 39.2076 6.84734 38.8703 8.28467 38.8703C9.73667 38.8703 11.0567 39.2076 12.2447 39.8823C13.4473 40.557 14.3933 41.4956 15.0827 42.6983C15.7867 43.8863 16.1387 45.2283 16.1387 46.7243C16.1387 48.235 15.7867 49.5916 15.0827 50.7943C14.3933 51.9823 13.4473 52.9136 12.2447 53.5883C11.042 54.263 9.72201 54.6003 8.28467 54.6003ZM8.28467 51.8503C9.20867 51.8503 10.0227 51.645 10.7267 51.2343C11.4307 50.809 11.9807 50.2076 12.3767 49.4303C12.7727 48.653 12.9707 47.751 12.9707 46.7243C12.9707 45.6976 12.7727 44.803 12.3767 44.0403C11.9807 43.263 11.4307 42.669 10.7267 42.2583C10.0227 41.8476 9.20867 41.6423 8.28467 41.6423C7.36067 41.6423 6.53934 41.8476 5.82067 42.2583C5.11667 42.669 4.56667 43.263 4.17067 44.0403C3.77467 44.803 3.57667 45.6976 3.57667 46.7243C3.57667 47.751 3.77467 48.653 4.17067 49.4303C4.56667 50.2076 5.11667 50.809 5.82067 51.2343C6.53934 51.645 7.36067 51.8503 8.28467 51.8503ZM29.9361 42.2583V54.4463H26.8341V52.9063C26.4381 53.4343 25.9174 53.8523 25.2721 54.1603C24.6414 54.4536 23.9521 54.6003 23.2041 54.6003C22.2508 54.6003 21.4074 54.4023 20.6741 54.0063C19.9408 53.5956 19.3614 53.0016 18.9361 52.2243C18.5254 51.4323 18.3201 50.4936 18.3201 49.4083V42.2583H21.4001V48.9683C21.4001 49.9363 21.6421 50.6843 22.1261 51.2123C22.6101 51.7256 23.2701 51.9823 24.1061 51.9823C24.9568 51.9823 25.6241 51.7256 26.1081 51.2123C26.5921 50.6843 26.8341 49.9363 26.8341 48.9683V42.2583H29.9361ZM36.561 44.7883V50.6843C36.561 51.095 36.6564 51.3956 36.847 51.5863C37.0524 51.7623 37.3897 51.8503 37.859 51.8503H39.289V54.4463H37.353C34.757 54.4463 33.459 53.185 33.459 50.6623V44.7883H32.007V42.2583H33.459V39.2443H36.561V42.2583H39.289V44.7883H36.561ZM44.5843 44.0183C44.9803 43.461 45.523 42.999 46.2123 42.6323C46.9163 42.251 47.7157 42.0603 48.6103 42.0603C49.6517 42.0603 50.5903 42.317 51.4263 42.8303C52.277 43.3436 52.9443 44.077 53.4283 45.0303C53.927 45.969 54.1763 47.0616 54.1763 48.3083C54.1763 49.555 53.927 50.6623 53.4283 51.6303C52.9443 52.5836 52.277 53.3243 51.4263 53.8523C50.5903 54.3803 49.6517 54.6443 48.6103 54.6443C47.7157 54.6443 46.9237 54.461 46.2343 54.0943C45.5597 53.7276 45.0097 53.2656 44.5843 52.7083V60.2543H41.5043V42.2583H44.5843V44.0183ZM51.0303 48.3083C51.0303 47.575 50.8763 46.9443 50.5683 46.4163C50.275 45.8736 49.879 45.463 49.3803 45.1843C48.8963 44.9056 48.3683 44.7663 47.7963 44.7663C47.239 44.7663 46.711 44.913 46.2123 45.2063C45.7283 45.485 45.3323 45.8956 45.0243 46.4383C44.731 46.981 44.5843 47.619 44.5843 48.3523C44.5843 49.0856 44.731 49.7236 45.0243 50.2663C45.3323 50.809 45.7283 51.227 46.2123 51.5203C46.711 51.799 47.239 51.9383 47.7963 51.9383C48.3683 51.9383 48.8963 51.7916 49.3803 51.4983C49.879 51.205 50.275 50.787 50.5683 50.2443C50.8763 49.7016 51.0303 49.0563 51.0303 48.3083ZM67.9205 42.2583V54.4463H64.8185V52.9063C64.4225 53.4343 63.9018 53.8523 63.2565 54.1603C62.6258 54.4536 61.9365 54.6003 61.1885 54.6003C60.2352 54.6003 59.3918 54.4023 58.6585 54.0063C57.9252 53.5956 57.3458 53.0016 56.9205 52.2243C56.5098 51.4323 56.3045 50.4936 56.3045 49.4083V42.2583H59.3845V48.9683C59.3845 49.9363 59.6265 50.6843 60.1105 51.2123C60.5945 51.7256 61.2545 51.9823 62.0905 51.9823C62.9412 51.9823 63.6085 51.7256 64.0925 51.2123C64.5765 50.6843 64.8185 49.9363 64.8185 48.9683V42.2583H67.9205ZM74.5454 44.7883V50.6843C74.5454 51.095 74.6407 51.3956 74.8314 51.5863C75.0367 51.7623 75.3741 51.8503 75.8434 51.8503H77.2734V54.4463H75.3374C72.7414 54.4463 71.4434 53.185 71.4434 50.6623V44.7883H69.9914V42.2583H71.4434V39.2443H74.5454V42.2583H77.2734V44.7883H74.5454ZM83.9389 48.3523C83.9389 47.091 84.1956 45.991 84.7089 45.0523C85.2222 44.099 85.9336 43.3656 86.8429 42.8523C87.7522 42.3243 88.7936 42.0603 89.9669 42.0603C91.4776 42.0603 92.7242 42.4416 93.7069 43.2043C94.7042 43.9523 95.3716 45.0083 95.7089 46.3723H92.3869C92.2109 45.8443 91.9102 45.4336 91.4849 45.1403C91.0742 44.8323 90.5609 44.6783 89.9449 44.6783C89.0649 44.6783 88.3682 45.001 87.8549 45.6463C87.3416 46.277 87.0849 47.179 87.0849 48.3523C87.0849 49.511 87.3416 50.413 87.8549 51.0583C88.3682 51.689 89.0649 52.0043 89.9449 52.0043C91.1916 52.0043 92.0056 51.447 92.3869 50.3323H95.7089C95.3716 51.6523 94.7042 52.701 93.7069 53.4783C92.7096 54.2556 91.4629 54.6443 89.9669 54.6443C88.7936 54.6443 87.7522 54.3876 86.8429 53.8743C85.9336 53.3463 85.2222 52.613 84.7089 51.6743C84.1956 50.721 83.9389 49.6136 83.9389 48.3523ZM109.471 42.2583V54.4463H106.369V52.9063C105.973 53.4343 105.453 53.8523 104.807 54.1603C104.177 54.4536 103.487 54.6003 102.739 54.6003C101.786 54.6003 100.943 54.4023 100.209 54.0063C99.4759 53.5956 98.8966 53.0016 98.4713 52.2243C98.0606 51.4323 97.8553 50.4936 97.8553 49.4083V42.2583H100.935V48.9683C100.935 49.9363 101.177 50.6843 101.661 51.2123C102.145 51.7256 102.805 51.9823 103.641 51.9823C104.492 51.9823 105.159 51.7256 105.643 51.2123C106.127 50.6843 106.369 49.9363 106.369 48.9683V42.2583H109.471ZM115.59 44.1503C115.986 43.505 116.5 42.999 117.13 42.6323C117.776 42.2656 118.509 42.0823 119.33 42.0823V45.3163H118.516C117.548 45.3163 116.815 45.5436 116.316 45.9983C115.832 46.453 115.59 47.245 115.59 48.3743V54.4463H112.51V42.2583H115.59V44.1503ZM124.485 44.1503C124.881 43.505 125.394 42.999 126.025 42.6323C126.67 42.2656 127.403 42.0823 128.225 42.0823V45.3163H127.411C126.443 45.3163 125.709 45.5436 125.211 45.9983C124.727 46.453 124.485 47.245 124.485 48.3743V54.4463H121.405V42.2583H124.485V44.1503ZM141.629 48.0883C141.629 48.5283 141.6 48.9243 141.541 49.2763H132.631C132.705 50.1563 133.013 50.8456 133.555 51.3443C134.098 51.843 134.765 52.0923 135.557 52.0923C136.701 52.0923 137.515 51.601 137.999 50.6183H141.321C140.969 51.7916 140.295 52.7596 139.297 53.5223C138.3 54.2703 137.075 54.6443 135.623 54.6443C134.45 54.6443 133.394 54.3876 132.455 53.8743C131.531 53.3463 130.805 52.6056 130.277 51.6523C129.764 50.699 129.507 49.599 129.507 48.3523C129.507 47.091 129.764 45.9836 130.277 45.0303C130.791 44.077 131.509 43.3436 132.433 42.8303C133.357 42.317 134.421 42.0603 135.623 42.0603C136.782 42.0603 137.816 42.3096 138.725 42.8083C139.649 43.307 140.361 44.0183 140.859 44.9423C141.373 45.8516 141.629 46.9003 141.629 48.0883ZM138.439 47.2083C138.425 46.4163 138.139 45.7856 137.581 45.3163C137.024 44.8323 136.342 44.5903 135.535 44.5903C134.773 44.5903 134.127 44.825 133.599 45.2943C133.086 45.749 132.771 46.387 132.653 47.2083H138.439ZM150.631 42.0823C152.083 42.0823 153.257 42.5443 154.151 43.4683C155.046 44.3776 155.493 45.6536 155.493 47.2963V54.4463H152.413V47.7143C152.413 46.7463 152.171 46.0056 151.687 45.4923C151.203 44.9643 150.543 44.7003 149.707 44.7003C148.857 44.7003 148.182 44.9643 147.683 45.4923C147.199 46.0056 146.957 46.7463 146.957 47.7143V54.4463H143.877V42.2583H146.957V43.7763C147.368 43.2483 147.889 42.8376 148.519 42.5443C149.165 42.2363 149.869 42.0823 150.631 42.0823ZM162.008 44.7883V50.6843C162.008 51.095 162.104 51.3956 162.294 51.5863C162.5 51.7623 162.837 51.8503 163.306 51.8503H164.736V54.4463H162.8C160.204 54.4463 158.906 53.185 158.906 50.6623V44.7883H157.454V42.2583H158.906V39.2443H162.008V42.2583H164.736V44.7883H162.008ZM182.622 41.0703H175.494V44.8323C175.802 44.451 176.242 44.143 176.814 43.9083C177.386 43.659 177.994 43.5343 178.64 43.5343C179.813 43.5343 180.774 43.791 181.522 44.3043C182.27 44.8176 182.812 45.4776 183.15 46.2843C183.487 47.0763 183.656 47.927 183.656 48.8363C183.656 50.523 183.172 51.8796 182.204 52.9063C181.25 53.933 179.886 54.4463 178.112 54.4463C176.44 54.4463 175.105 54.0283 174.108 53.1923C173.11 52.3563 172.546 51.2636 172.414 49.9143H175.406C175.538 50.501 175.831 50.9703 176.286 51.3223C176.755 51.6743 177.349 51.8503 178.068 51.8503C178.933 51.8503 179.586 51.579 180.026 51.0363C180.466 50.4936 180.686 49.775 180.686 48.8803C180.686 47.971 180.458 47.2816 180.004 46.8123C179.564 46.3283 178.911 46.0863 178.046 46.0863C177.43 46.0863 176.916 46.2403 176.506 46.5483C176.095 46.8563 175.802 47.267 175.626 47.7803H172.678V38.3643H182.622V41.0703ZM186 46.2183C186 43.681 186.455 41.6936 187.364 40.2563C188.288 38.819 189.813 38.1003 191.94 38.1003C194.067 38.1003 195.585 38.819 196.494 40.2563C197.418 41.6936 197.88 43.681 197.88 46.2183C197.88 48.7703 197.418 50.7723 196.494 52.2243C195.585 53.6763 194.067 54.4023 191.94 54.4023C189.813 54.4023 188.288 53.6763 187.364 52.2243C186.455 50.7723 186 48.7703 186 46.2183ZM194.844 46.2183C194.844 45.133 194.771 44.2236 194.624 43.4903C194.492 42.7423 194.213 42.1336 193.788 41.6643C193.377 41.195 192.761 40.9603 191.94 40.9603C191.119 40.9603 190.495 41.195 190.07 41.6643C189.659 42.1336 189.381 42.7423 189.234 43.4903C189.102 44.2236 189.036 45.133 189.036 46.2183C189.036 47.333 189.102 48.2716 189.234 49.0343C189.366 49.7823 189.645 50.391 190.07 50.8603C190.495 51.315 191.119 51.5423 191.94 51.5423C192.761 51.5423 193.385 51.315 193.81 50.8603C194.235 50.391 194.514 49.7823 194.646 49.0343C194.778 48.2716 194.844 47.333 194.844 46.2183ZM200.223 46.2183C200.223 43.681 200.677 41.6936 201.587 40.2563C202.511 38.819 204.036 38.1003 206.163 38.1003C208.289 38.1003 209.807 38.819 210.717 40.2563C211.641 41.6936 212.103 43.681 212.103 46.2183C212.103 48.7703 211.641 50.7723 210.717 52.2243C209.807 53.6763 208.289 54.4023 206.163 54.4023C204.036 54.4023 202.511 53.6763 201.587 52.2243C200.677 50.7723 200.223 48.7703 200.223 46.2183ZM209.067 46.2183C209.067 45.133 208.993 44.2236 208.847 43.4903C208.715 42.7423 208.436 42.1336 208.011 41.6643C207.6 41.195 206.984 40.9603 206.163 40.9603C205.341 40.9603 204.718 41.195 204.293 41.6643C203.882 42.1336 203.603 42.7423 203.457 43.4903C203.325 44.2236 203.259 45.133 203.259 46.2183C203.259 47.333 203.325 48.2716 203.457 49.0343C203.589 49.7823 203.867 50.391 204.293 50.8603C204.718 51.315 205.341 51.5423 206.163 51.5423C206.984 51.5423 207.607 51.315 208.033 50.8603C208.458 50.391 208.737 49.7823 208.869 49.0343C209.001 48.2716 209.067 47.333 209.067 46.2183ZM229.933 42.0823C231.429 42.0823 232.632 42.5443 233.541 43.4683C234.465 44.3776 234.927 45.6536 234.927 47.2963V54.4463H231.847V47.7143C231.847 46.761 231.605 46.035 231.121 45.5363C230.637 45.023 229.977 44.7663 229.141 44.7663C228.305 44.7663 227.638 45.023 227.139 45.5363C226.655 46.035 226.413 46.761 226.413 47.7143V54.4463H223.333V47.7143C223.333 46.761 223.091 46.035 222.607 45.5363C222.123 45.023 221.463 44.7663 220.627 44.7663C219.777 44.7663 219.102 45.023 218.603 45.5363C218.119 46.035 217.877 46.761 217.877 47.7143V54.4463H214.797V42.2583H217.877V43.7323C218.273 43.219 218.779 42.8156 219.395 42.5223C220.026 42.229 220.715 42.0823 221.463 42.0823C222.417 42.0823 223.267 42.2876 224.015 42.6983C224.763 43.0943 225.343 43.6663 225.753 44.4143C226.149 43.7103 226.721 43.1456 227.469 42.7203C228.232 42.295 229.053 42.0823 229.933 42.0823ZM247.266 51.5203H241.15L240.138 54.4463H236.904L242.426 39.0683H246.012L251.534 54.4463H248.278L247.266 51.5203ZM246.43 49.0563L244.208 42.6323L241.986 49.0563H246.43Z" fill="white"/>
</svg>
